<?xml version="1.0" encoding="UTF-8" standalone="no"?>
<!-- Created with Inkscape (http://www.inkscape.org/) -->

<svg
   xmlns:dc="http://purl.org/dc/elements/1.1/"
   xmlns:cc="http://web.resource.org/cc/"
   xmlns:rdf="http://www.w3.org/1999/02/22-rdf-syntax-ns#"
   xmlns:svg="http://www.w3.org/2000/svg"
   xmlns="http://www.w3.org/2000/svg"
   xmlns:xlink="http://www.w3.org/1999/xlink"
   version="1.0"
   width="251"
   height="304.20001"
   id="svg4166">
  <metadata
     id="metadata1880"><rdf:RDF><cc:Work
         rdf:about=""><dc:title>Göteborg kommunvapen</dc:title><dc:date>2007-11-05</dc:date><dc:creator><cc:Agent><dc:title>Lokal_Profil</dc:title></cc:Agent></dc:creator><cc:license
         rdf:resource="http://creativecommons.org/licenses/by-sa/2.5/" /><dc:rights><cc:Agent><dc:title>cc-by-sa-2.5</dc:title></cc:Agent></dc:rights><dc:format>image/svg+xml</dc:format><dc:type
         rdf:resource="http://purl.org/dc/dcmitype/StillImage" /></cc:Work><cc:License
         rdf:about="http://creativecommons.org/licenses/by-sa/2.5/"><cc:permits
         rdf:resource="http://web.resource.org/cc/Reproduction" /><cc:permits
         rdf:resource="http://web.resource.org/cc/Distribution" /><cc:requires
         rdf:resource="http://web.resource.org/cc/Notice" /><cc:requires
         rdf:resource="http://web.resource.org/cc/Attribution" /><cc:permits
         rdf:resource="http://web.resource.org/cc/DerivativeWorks" /><cc:requires
         rdf:resource="http://web.resource.org/cc/ShareAlike" /></cc:License></rdf:RDF>
  </metadata>
  <defs
     id="defs4168">
    <clipPath
       id="clipPath2000">
      <path
         d="M 185.87402,55.316891 103.27818,137.91278 45.519032,80.153671 C 14.062773,49.20828 29.695588,10.871588 44.264185,-3.697018 58.577357,-18.0102 97.169456,-33.898458 128.11487,-2.4422233 l 57.75915,57.7591143 z"
         id="Shield"
         style="fill:#eeeeee;fill-opacity:1;stroke:none" />
    </clipPath>
  </defs>
  <g
     transform="matrix(1.501897,-1.501898,-1.501898,-1.501897,53.46727,363.6836)"
     clip-path="url(#clipPath2000)"
     id="Backdrop">
    <path
       d="m 36.454593,106 c -10.739249,0 -12.739479,12.61369 -23.478731,12.61369 -4.4531621,0 -9.9864096,-3.68841 -12.975862,-5.33433 l 0,25.39853 C 2.9894524,140.32381 8.5226999,142 12.975862,142 c 10.739252,0 12.739482,-12.60148 23.478731,-12.60148 10.739249,0 12.739478,12.60149 23.478734,12.60148 10.739248,0 12.739481,-12.60148 23.478732,-12.60148 10.739249,0 12.739482,12.60149 23.478731,12.60148 10.73926,0 12.73948,-12.60148 23.47874,-12.60148 10.73926,0 12.73948,12.60149 23.47872,12.60148 10.73925,0 12.73951,-12.60148 23.47874,-12.60148 10.73926,0 12.73948,12.60149 23.47874,12.60148 5.70523,0 10.37891,-3.17263 13.24268,-5.75264 l 0,-23.39853 c -2.86377,2.58 -7.53745,5.76486 -13.24268,5.76486 C 190.06647,118.61369 188.06625,106 177.32699,106 166.58776,106 164.5875,118.61369 153.84825,118.61369 143.10901,118.61369 141.10877,106 130.36953,106 119.63028,106 117.63005,118.61369 106.89079,118.61369 96.151541,118.61369 94.151311,106 83.412059,106 72.672805,106 70.672575,118.61369 59.933327,118.61369 49.194071,118.61369 47.193842,106 36.454593,106 z"
       id="path4127"
       style="fill:#003d8f;fill-opacity:1;fill-rule:evenodd;stroke:none" />
    <use
       transform="translate(0,-46)"
       id="use1987"
       x="0"
       y="0"
       width="142"
       height="142"
       xlink:href="#path4127" />
    <use
       transform="translate(0,-92)"
       id="use1989"
       x="0"
       y="0"
       width="142"
       height="142"
       xlink:href="#path4127" />
    <use
       transform="translate(0,-138)"
       id="use1991"
       x="0"
       y="0"
       width="142"
       height="142"
       xlink:href="#path4127" />
    <path
       d="M 36.454593,83 C 25.715344,83 23.715114,95.61369 12.975862,95.61369 8.5226999,95.61369 2.9894524,91.92528 0,90.27936 l 0,25.39853 C 2.9894524,117.32381 8.5226999,119 12.975862,119 c 10.739252,0 12.739482,-12.60148 23.478731,-12.60148 10.739249,0 12.739478,12.60149 23.478734,12.60148 10.739248,0 12.739481,-12.60148 23.478732,-12.60148 10.739249,0 12.739482,12.60149 23.478731,12.60148 10.73926,0 12.73948,-12.60148 23.47874,-12.60148 10.73926,0 12.73948,12.60149 23.47872,12.60148 10.73925,0 12.73951,-12.60148 23.47874,-12.60148 10.73926,0 12.73948,12.60149 23.47874,12.60148 5.70523,0 10.37891,-3.17263 13.24268,-5.75264 l 0,-25.39853 c -2.86377,2.58 -7.53745,7.76486 -13.24268,7.76486 C 190.06647,95.61369 188.06625,83 177.32699,83 166.58776,83 164.5875,95.61369 153.84825,95.61369 143.10901,95.61369 141.10877,83 130.36953,83 119.63028,83 117.63005,95.61369 106.89079,95.61369 96.151541,95.61369 94.151311,83 83.412059,83 72.672805,83 70.672575,95.61369 59.933327,95.61369 49.194071,95.61369 47.193842,83 36.454593,83 z"
       id="use1993"
       style="fill:#eeeeee;fill-opacity:1;fill-rule:evenodd;stroke:none" />
    <use
       transform="translate(0,-46)"
       id="use1997"
       x="0"
       y="0"
       width="142"
       height="142"
       xlink:href="#use1993" />
    <use
       transform="translate(0,-92)"
       id="use1999"
       x="0"
       y="0"
       width="142"
       height="142"
       xlink:href="#use1993" />
  </g>
  <g
     transform="matrix(1.0628426,0,0,1.0628426,-16.292591,-0.53623254)"
     id="Lion-w-shield-and-sword">
    <g
       transform="matrix(-0.50683826,-0.86204116,0.86204116,-0.50683826,58.126416,204.14976)"
       id="g3044">
      <g
         transform="matrix(-0.88710573,-0.27228656,-0.27228656,0.88710573,191.69967,32.852183)"
         id="Tass"
         style="fill:#ffcd50;stroke:#003d8f;stroke-width:0.43579501">
        <g
           id="g3083"
           style="fill:#d40000;stroke:none">
          <path
             d="m 65.793956,40.051928 c -1.887896,2.894325 -2.519086,6.870806 0.421685,9.007334 0.03374,0.04934 0.105626,0.108058 0.143758,0.117436 0.649975,0.857501 0.786729,1.752787 0.448376,2.695271 l -0.03813,-0.0094 c -1.50725,0.531675 -3.041238,0.23617 -4.678225,-0.905293 l 0.03813,0.0094 c -0.07187,-0.05872 -0.110008,-0.0681 -0.186268,-0.08687 -4.486474,-3.607789 -1.4803,-10.825206 3.850674,-10.827878 z"
             id="path3439" />
          <path
             d="m 75.668287,47.147764 c -3.323336,-4.881238 4.401456,-13.223253 8.493018,-8.021234 -3.348901,0.249158 -5.437906,6.224551 -2.047913,6.65696 0.195279,2.525671 -0.799933,3.906592 -3.043248,4.126816 -1.721481,-0.634216 -2.567653,-1.615079 -3.401857,-2.762542 z"
             id="path3441" />
        </g>
        <path
           d="m 61.115356,52.425328 c 0.103045,-0.805497 0.412995,-1.288239 0.928739,-1.438248 0,0 0.04739,0.01424 0.05182,-0.02564 1.636996,1.141463 3.165944,1.4383 4.673194,0.906626 l 0.03574,0.0088 c 0.33835,-0.942474 0.199763,-1.843339 -0.450217,-2.700842 -0.03813,-0.0094 -0.101024,-0.06077 -0.13477,-0.110102 -0.132369,-0.935246 0.195956,-1.518611 0.921754,-1.70924 1.53661,-0.442382 2.879538,-0.524705 4.095328,-0.184426 0.485624,0.570856 0.861617,1.114733 1.10969,1.709191 0.383066,0.791792 0.530142,1.615263 0.476239,2.463625 1.088256,0.431984 1.647324,1.783994 2.336602,0.37516 -0.65346,-0.664078 -1.163084,-1.657344 -1.581857,-2.844257 -0.08113,-1.552464 -0.171249,-2.402612 0.271086,-3.368047 0.246907,-0.443409 0.441417,-0.731302 0.637715,-0.735321 0.150936,-0.04293 0.282947,0.111269 0.410341,0.427448 0.165757,1.590574 0.995634,2.353357 1.963208,3.010993 2.124422,0.753516 3.614038,-0.07645 4.510058,-2.4459 0.974536,-0.577827 1.887232,-0.549185 2.72478,0.03141 0.865478,1.018374 0.705874,3.759948 0.490687,4.650672 -1.309142,0.867645 -2.611689,1.295845 -3.833184,1.364466 2.647512,0.64775 4.783395,0.06457 4.674781,4.892365 1.257862,-0.757196 2.544224,-1.104742 3.900707,-0.976009 -0.06003,0.190373 -0.115321,0.381918 -0.137231,0.581676 -0.487354,2.300829 -0.214402,4.096402 0.773054,5.447262 l 0.266262,0.02707 0.476324,-5.011519 c 1.630853,0.48347 2.756341,1.624691 3.377395,3.459783 2.547716,-2.162961 5.26652,-2.650299 8.141219,-1.368317 -0.93836,0.343457 -1.61561,1.117889 -1.93335,2.229554 -0.0513,0.110469 -0.0602,0.236492 -0.10711,0.307014 -0.009,0.0799 -0.0173,0.157311 -0.026,0.237206 0,0 -0.005,0.04744 -0.01,0.08739 -0.469815,2.141022 -0.0412,5.395591 1.24958,9.693216 l 0.0301,0.05883 0.005,-0.04994 c 1.70008,-2.289542 1.96056,-5.333454 0.74036,-9.203419 3.04389,2.595574 3.9002,6.16825 2.61606,10.734758 l 0.18655,0.08439 c 1.14566,-2.590124 2.81956,-4.596324 5.08458,-5.967247 0.0425,-0.03057 0.0784,-0.06788 0.12095,-0.09845 l 0.0316,0.04626 c -0.009,0.0799 -0.0492,0.113551 -0.0536,0.153503 l -0.004,0.03744 c -1.39767,3.102523 -1.86587,6.72359 -1.499,10.875882 1.05404,-4.253887 2.23295,-6.879411 3.55963,-7.906876 0.774,-0.630092 1.60259,-0.664639 2.5208,-0.11039 -2.04706,7.181461 3.66906,13.246783 5.03175,15.599047 1.07992,-1.990852 -0.62462,-3.153452 -1.93994,-6.513424 6.88414,4.206148 5.68599,6.099347 7.97488,12.424521 10.34992,9.048168 2.02205,2.678084 22.18602,16.195038 l -23.82319,8.65547 C 124.76543,126.14066 97.780033,94.633418 95.29412,92.033874 89.85281,86.304333 84.49146,80.225227 79.252194,73.724839 76.980998,70.86812 75.024486,67.686254 73.374768,64.161908 c -0.03374,-0.04934 -0.07172,-0.104838 -0.105459,-0.154177 0.387868,-1.750883 -0.120633,-3.563418 -1.521835,-5.426424 -1.208786,-1.118129 -2.44031,-2.029 -3.816085,-2.695875 -0.482548,-0.241854 -0.964277,-0.491219 -1.493723,-0.662561 -1.989798,0.289813 -3.794487,-0.349272 -5.349518,-1.880876 -0.01151,-0.341318 -0.0072,-0.648 0.02711,-0.916501 z"
           id="path3435" />
      </g>
      <g
         transform="matrix(-0.15211162,0.05562567,0.05562567,0.15211162,133.53699,4.8646348)"
         id="Sword"
         style="fill:#ffcd50;stroke:#003d8f;stroke-width:3">
        <path
           d="m 254.81293,227.21933 c 10.21429,-41.60714 23.14285,-41.60714 32.85714,0 9.71429,41.60714 12.71429,92.82143 2,134.42857 -10.71429,41.60714 -28.14285,41.60714 -38.85714,0 -10.71429,-41.60714 -6.21429,-92.82143 4,-134.42857 z"
           id="path2198" />
        <g
           transform="matrix(1.1573836,0,0,1.1573836,-41.883199,-54.948047)"
           id="Blade">
          <path
             d="m 249.53338,371.58029 41.41625,0 -6,385.85793 -14.70812,33.35539 -14.70813,-33.35539 -6,-385.85793 z"
             id="path2201" />
          <path
             d="m 268.23271,375.0625 1.49554,367.03125 4.50446,-367.03125 -6,0 z"
             id="path2203"
             style="fill:#003d8f;stroke:none" />
        </g>
        <rect
           width="161.86885"
           height="21.377804"
           x="189.3071"
           y="358.07336"
           id="rect2206" />
        <g
           id="g2005">
          <path
             d="m 299.03085,233.12339 c 0.006,15.90411 -12.88524,28.80008 -28.78934,28.80008 -15.90411,0 -28.79528,-12.89597 -28.78935,-28.80008 -0.006,-15.90411 12.88524,-28.80008 28.78935,-28.80008 15.9041,0 28.79527,12.89597 28.78934,28.80008 l 0,0 z"
             id="path2210" />
          <path
             d="m 282.39236,233.12342 c 0.003,6.71253 -5.43836,12.15546 -12.1509,12.15546 -6.71254,0 -12.15342,-5.44293 -12.15089,-12.15546 -0.003,-6.71254 5.43835,-12.15547 12.15089,-12.15547 6.71254,0 12.15342,5.44293 12.1509,12.15547 l 0,0 z"
             id="path2212" />
        </g>
      </g>
      <path
         d="m 117.94743,64.500048 c 0.0162,-0.07121 0.0133,-0.118151 0.0324,-0.142429 0.11279,-2.827708 -0.60547,-4.752654 -2.15768,-5.821784 -1.15248,-0.614077 -2.12141,-0.600016 -2.88473,0.06483 1.30522,1.078707 1.9767,2.252583 2.01153,3.474679 0.007,1.105534 -0.41827,1.898447 -1.27854,2.331787 0.022,0.02268 0.047,0.09229 0.0721,0.161883 -0.48415,1.171637 -0.42727,2.416406 0.17357,3.781246 0.73201,0.489212 1.37158,0.487936 1.89959,0.02042 0.31766,-0.200539 0.61326,-0.423754 0.86478,-0.69232 0.69719,-0.732869 1.10485,-1.807432 1.2671,-3.178345 z"
         id="path3437"
         style="fill:#d40000;stroke:#eeeeee;stroke-width:0.14552742" />
      <path
         d="m 105.27471,73.391018 c 0.003,0.04687 0.006,0.09385 0.009,0.140833 l 0.3235,-0.106652 c 2.54526,-0.545759 5.01269,-1.347287 7.4023,-2.404623 1.02494,-0.439731 2.25415,-0.581525 3.71258,-0.355755 0.59122,-0.446437 0.89877,-1.140673 0.9447,-2.060035 L 116.68057,67.6784 c -0.25152,0.268562 -0.54713,0.491781 -0.86479,0.692321 -0.528,0.467513 -1.16758,0.468792 -1.89959,-0.02042 -0.60084,-1.364842 -0.65773,-2.609607 -0.17356,-3.781248 -0.0249,-0.06965 -0.05,-0.139205 -0.0721,-0.161882 -0.53179,-1.249874 -1.17854,-1.695347 -1.94321,-1.383354 -1.12348,0.514136 -2.06927,1.562514 -2.91967,3.148334 -1.7102,0.701585 -3.09958,0.590784 -4.12988,-0.380946 l -0.022,-0.02268"
         id="path3423"
         style="fill:#ffcd50;stroke:#003d8f;stroke-width:0.46397644" />
    </g>
    <g
       id="Lion"
       style="fill:#ffcd50;stroke:#003d8f;stroke-width:0.43579501">
      <path
         d="m 173.08006,191.07939 c 3.29215,-0.0374 5.28965,1.25731 5.99247,3.921 0.3699,1.99749 0.22193,3.5141 -0.36991,4.54983 -0.22195,0.33292 -0.44389,0.62885 -0.73981,0.88777 -0.62884,0.48089 -1.47963,0.73981 -2.51536,0.77681 -1.5536,0.0373 -3.58809,-0.36991 -6.10344,-1.29467 1.81254,1.51698 3.55109,2.51536 5.21567,2.95924 0.29592,0.074 0.55486,0.11098 0.85078,0.18496 1.51662,0.22231 2.99624,0.0373 4.43887,-0.62884 0.66583,-0.29593 1.36865,-0.70246 1.99749,-1.22069 0.25893,-0.18496 0.48087,-0.4069 0.73981,-0.59185 -0.14797,0.25894 -0.25894,0.5175 -0.36991,0.7768 -2.07147,3.99498 -4.43887,5.32664 -7.17617,3.95799 0,-0.037 0,-0.037 -0.037,-0.074 -0.25894,-0.1476 -0.51787,-0.29593 -0.77681,-0.4069 -0.11097,-0.074 -0.22194,-0.11098 -0.33291,-0.14797 -1.40564,-0.62884 -2.81128,-0.85077 -4.21692,-0.66583 1.40564,-0.18494 2.81128,0.037 4.21692,0.66583 0.11097,0.0374 0.22194,0.074 0.33291,0.14797 0.25894,0.11097 0.51787,0.25893 0.77681,0.4069 0.037,0.037 0.037,0.037 0.037,0.074 0.96176,3.07021 3.81003,5.0677 8.58181,5.91849 -4.95673,1.88651 -8.6188,0.85077 -11.06018,-3.18119 l -0.25892,0.18495 c 0.25892,1.25731 0.62883,2.44137 1.10971,3.55109 1.36865,3.18119 3.69905,5.80752 6.99121,7.95297 -2.58934,0.4069 -4.6978,0.11097 -6.39936,-0.85079 -1.77555,-0.99873 -3.07021,-2.77428 -3.921,-5.25265 0.11098,3.1072 1.07273,5.65956 2.81128,7.65704 -0.40689,0.62884 -0.85078,1.25731 -1.40564,1.81217 -0.51786,0.55485 -1.10972,1.07272 -1.77555,1.5536 -1.33165,0.92477 -2.92225,1.66458 -4.77177,2.18244 2.3304,0.22195 3.95798,0 4.91974,-0.62883 0.22194,-0.14797 0.44388,-0.29593 0.62884,-0.4069 0,0 0,0 0.037,-0.0374 0.25894,-0.18496 0.4439,-0.29593 0.51787,-0.36991 0.7768,-0.25893 1.29467,-0.44388 1.51661,-0.51749 0.22195,-0.074 0.48088,-0.11135 0.81379,-0.14797 1.03574,-0.037 2.55236,0.18495 4.62382,0.62884 2.62634,1.18369 5.84451,1.92351 9.54356,2.18207 0.85079,-0.037 1.5906,-0.22194 2.33041,-0.55486 0.70282,-0.3699 1.36865,-0.8874 1.96049,-1.51661 0.14797,-2.21943 0.77681,-4.58683 1.84954,-7.21315 0.59184,-0.44389 1.51661,-0.59185 2.7003,-0.48088 0.55486,-0.11097 0.92477,0.074 1.03574,0.55486 0.037,0.037 0.037,0.074 0.037,0.11097 0,0.037 0,0.037 0,0.074 -2.14545,3.21817 -1.77555,4.69779 1.1467,4.43886 0.73981,0 1.88652,0.22194 3.47712,0.62884 1.62758,0.81342 2.07147,1.70156 1.40564,2.73692 l -0.18496,0.14797 c -0.074,0.14759 -0.14796,0.25893 -0.25893,0.4069 0,0 -0.037,0.0374 -0.037,0.074 -0.73981,0.99874 -1.77554,1.77555 -3.10721,2.25643 -2.03448,0.73981 -4.69779,0.92476 -8.02694,0.55485 1.84953,1.47963 4.73479,1.81254 8.65579,0.92477 1.22068,-0.36991 2.62632,-1.07236 4.21692,-1.99712 l 0.96175,0.92476 c -1.62758,1.73855 -2.51536,3.44012 -2.70031,5.1047 0.22194,1.1467 0.92476,2.14545 2.10846,3.1072 0.037,0.037 0.074,0.11097 0.074,0.18495 0.36991,1.03574 0.11098,1.77555 -0.7768,2.25642 l -2.51535,-0.11097 c -1.44263,-0.85078 -2.21943,-1.96049 -2.21943,-3.44012 -0.074,1.44226 -0.4069,2.25643 -0.99875,2.478 -1.25768,0.18495 -2.40439,0.11134 -3.47711,-0.25856 -0.96175,-0.44389 -1.88652,-0.55486 -2.84827,-0.2963 -1.40564,-0.70245 -2.29341,-1.59059 -2.62633,-2.66295 0.33292,1.07236 1.22069,1.9605 2.62633,2.66295 0.96175,-0.25856 1.88652,-0.14759 2.84827,0.2963 0.29592,0.11097 0.59185,0.29592 0.88778,0.48087 l 2.55234,2.14545 -0.96176,1.14671 c 0,0.0374 -0.037,0.074 -0.037,0.074 -2.25642,0.51786 -3.884,1.62758 -4.95673,3.29215 -0.33291,0.73981 -0.22194,1.25731 0.25893,1.51661 0,0.0374 0,0.0374 0.037,0.074 0.14796,0.66583 -0.25894,1.14671 -1.25767,1.29467 -1.14672,0.48088 -2.07148,0.51787 -2.81129,0.037 -1.73855,-1.07236 -2.66332,-2.62633 -2.88526,-4.66081 0.88777,-1.29467 0.33291,-2.95924 -1.62759,-5.03072 1.9605,2.07148 2.51536,3.73605 1.62759,5.03072 -0.36991,0.55486 -0.99874,1.55361 -1.88652,2.92226 -1.40564,-2.47837 -2.7373,-4.10632 -3.95799,-4.80878 1.22069,1.73819 1.70157,3.5141 1.40564,5.25229 0,0.0374 0,0.074 -0.037,0.074 l 0,-0.074 c -2.3304,-2.44137 -5.17867,-3.81002 -8.54481,-4.06896 1.07272,3.03322 3.69906,5.0677 7.84199,6.1408 0.037,0 0.074,0 0.074,0.037 -0.81379,2.25679 -2.99624,3.03322 -6.47334,2.3304 -2.51536,-0.96176 -4.17993,-2.55198 -5.06771,-4.73478 l -0.22194,0.0373 c -0.22195,-1.33203 -0.96176,-2.51572 -2.18244,-3.44049 1.22068,0.92477 1.96049,2.10846 2.18244,3.44049 0.037,0.18496 0.037,0.36991 0.037,0.5175 0.44388,5.14169 -2.47837,7.58307 -8.69278,7.39811 -0.074,-0.037 -0.18495,-0.037 -0.25894,-0.037 0.037,0 0.11098,-0.0373 0.14797,-0.0373 0.037,-0.037 0.074,-0.037 0.074,-0.0736 2.33041,-1.07273 3.44012,-2.88564 3.32915,-5.36364 l -0.037,-0.11133 c 0.074,-1.36829 -0.7768,-2.95925 -2.58933,-4.80878 -1.92352,2.58934 -2.99624,5.36363 -3.25517,8.28588 -2.18245,-3.36613 -3.07022,-7.06518 -2.55235,-11.17114 -0.037,0.11097 -0.074,0.22231 -0.11097,0.33292 0,0.074 -0.037,0.14759 -0.037,0.22194 -0.18495,0.62884 -0.36991,1.25768 -0.62884,1.81254 -1.77555,4.21655 -5.36363,6.32538 -10.69027,6.32538 3.1442,-2.10846 5.36363,-4.84576 6.6583,-8.24889 0.33292,-0.36991 0.62884,-0.73981 0.92477,-1.14671 -0.29593,0.4069 -0.59185,0.7768 -0.92477,1.14671 -1.9235,2.03448 -4.40187,3.14419 -7.50908,3.21817 -0.81379,-0.0373 -1.5536,-0.18495 -2.25642,-0.44388 -1.25768,-0.51786 -2.29342,-1.40564 -3.03323,-2.70031 l 0.074,-0.11097 -0.18495,-0.22232 c 0.22194,0.11097 0.44351,0.25894 0.66583,0.36991 1.25768,0.73981 2.33041,1.07272 3.25516,1.03573 3.18119,-0.48087 4.99373,-2.51535 5.40062,-6.10343 -0.25893,-2.81128 -1.51661,-5.21567 -3.84701,-7.10182 -0.48088,-0.44389 -0.99874,-0.81379 -1.5906,-1.1837 l 0,-0.0739 -0.037,-0.074 c -0.22193,-2.07147 -0.7768,-4.36488 -1.62757,-6.84325 -4.89363,-6.85704 -5.81894,-7.8252 2.81128,-10.728 -0.33292,-2.81128 -1.25768,-5.65955 -2.77429,-8.50782 -1.44263,-2.47837 -3.62508,-4.95636 -6.51034,-7.47209 -0.11134,-0.11097 -0.18495,-0.22194 -0.25893,-0.29593 -0.85079,-1.03573 -1.36865,-2.14545 -1.51699,-3.36613 -0.14759,-1.29467 0.11135,-2.7373 0.77718,-4.29128 0.22193,-1.1467 0.29592,-2.21943 0.25892,-3.25517 l 0.36991,-0.85077 c 6.28839,0.44388 11.46707,2.51535 15.57302,6.17741 1.73855,-0.22231 3.5141,-0.40726 5.21567,-0.48087 3.32914,-0.0373 6.21441,0.7768 8.69277,2.44138 2.58935,3.0702 4.88275,4.99372 6.88025,5.73353 0.18494,0.074 0.3699,0.14796 0.55485,0.18495 1.77555,0.48088 3.29217,0.11097 4.58683,-1.07273 1.40564,-1.36643 0.92477,-3.17896 -1.44263,-5.43538 z"
         id="path3459" />
      <path
         d="m 163.13997,156.69617 c 0.25464,1.83992 1.15421,3.45876 2.57294,4.82758 0.56646,0.42609 1.15739,0.80508 1.77719,1.14059 1.31203,1.04187 2.90305,1.62616 4.69496,1.75066 2.34874,-0.12515 4.58948,-0.82489 6.76392,-2.09549 -2.11353,-0.0833 -3.73466,-0.69194 -4.90716,-1.77719 1.61549,-0.53048 3.43384,-0.51127 5.51724,0.0531 0.0587,-0.0101 0.12426,-0.0158 0.2122,0.053 1.55531,0.37551 3.21847,1.12524 5.06631,2.12202 1.3537,-2.02467 0.59529,-4.0545 -2.30769,-6.1008 2.05554,-0.35447 4.36579,0.13702 6.97613,1.61804 0.73444,-0.32255 0.78134,-1.29769 0.0795,-3.02387 -0.0293,-0.0229 -0.0531,-0.0265 -0.0531,-0.0265 -0.0585,-0.15785 -0.10349,-0.26298 -0.13263,-0.39788 0.0879,0.12479 0.20103,0.20006 0.31831,0.29178 1.08499,0.7365 2.66745,0.55122 4.69495,-0.61008 0.0295,-0.033 0.0766,-0.12316 0.10611,-0.21221 3.31772,-0.26426 3.70153,0.90445 1.11405,3.42175 4.40756,-2.49532 5.78016,-5.16518 4.11141,-7.98408 0.0587,-0.0101 0.0795,-0.0531 0.0795,-0.0531 1.9359,1.00958 4.55411,1.29706 7.93103,0.74271 0.97153,-1.87508 2.55652,-3.17865 4.64191,-3.84616 l 0.45093,-0.39787 c 1.9e-4,0.0562 0,0.0265 0,0.0265 0.76129,1.04394 1.11939,2.38088 1.08753,3.92573 2.11646,-1.7084 3.29355,-3.2877 3.50133,-4.69496 -0.99649,-1.00365 -1.0638,-2.40209 -0.23873,-4.1114 1.08843,-1.55939 2.31628,-2.16734 3.60742,-1.83024 l -0.76923,-2.12202 c -1.32,-0.64 -2.94589,-0.94958 -4.85411,-0.92838 l -0.23864,-3.23607 c 1.58699,-1.05733 3.01932,-1.11484 4.45623,-0.15915 1.2367,-2.28439 1.24846,-4.21624 0.1061,-5.78249 -1.17523,0.59449 -2.06443,0.27812 -2.67904,-0.87534 -0.43943,-0.56794 -0.0894,-1.71035 1.08753,-3.36869 0.38261,-0.59775 0.4758,-1.08453 0.2122,-1.45889 -0.11719,-0.14772 -0.27212,-0.26683 -0.47745,-0.37135 -0.85098,-0.2171 -1.82354,0.37292 -2.97082,1.83024 l -1.72414,2.81167 -0.15915,0.15915 c -0.35346,0.73267 -0.74382,1.42084 -1.27321,2.01591 -0.82349,0.92567 -1.74542,1.69321 -2.89124,2.25464 -2.46775,1.09727 -4.77651,1.82392 -6.9496,2.25464 -0.88104,0.20791 -1.7215,0.36154 -2.57294,0.42441 -1.87936,0.32408 -3.6467,1.391 -5.41114,3.26259 -0.0871,-0.6287 -0.62809,-0.87462 -1.53846,-0.68965 0,0 -13.57789,2.64661 -19.52254,4.24403 -21.38614,-7.54435 -11.12882,7.34146 -9.49602,16.92307 z"
         id="use2186" />
      <path
         d="m 43.33212,120.81269 c -0.22052,0.1354 -0.414972,0.30471 -0.613124,0.4765 -0.113227,0.0982 -0.208105,0.19406 -0.314493,0.30409 -0.404327,0.50485 -0.754779,1.02057 -0.999827,1.55737 -0.03899,0.0329 -0.05271,0.0833 -0.07506,0.13525 -0.290169,0.6409 -0.494517,1.26735 -0.550806,1.9107 -0.03194,0.15927 -0.0047,0.32483 -0.0042,0.52314 -0.003,0.0355 -0.01934,0.0964 -0.02558,0.1679 0.004,0.16224 0.0377,0.33439 0.04169,0.49662 0.01631,0.0195 0.02349,0.0495 0.0398,0.0689 0.425095,1.72973 1.117757,3.15389 2.170815,4.29046 1.736811,1.55637 3.902681,2.47487 6.395221,2.80099 1.429669,0.12508 2.686277,-0.31504 3.761423,-1.28342 0.453246,-0.44656 0.8799,-0.88107 1.326885,-1.25615 -0.258223,0.48163 -0.465137,0.98609 -0.671119,1.49011 -1.140097,2.94373 -1.167912,5.88387 -0.08292,8.71578 2.148379,4.25787 5.808536,6.08763 11.026585,5.51771 0.32793,-0.0433 0.658227,-0.0461 0.947293,-0.0568 0.39648,-0.002 0.770575,0.01 1.072806,0.0544 2.034348,0.21382 2.069642,1.39456 0.16017,3.46045 0.349815,-0.29354 0.62233,-0.62169 0.897539,-0.88574 2.576493,-2.69183 2.30756,-4.41876 -0.868548,-5.16484 1.813693,-0.56145 2.761848,-1.67227 2.817875,-3.34211 0.09045,-2.06295 -0.999459,-3.26778 -3.365332,-3.60081 1.00971,0.80865 1.531763,1.6618 1.550771,2.47382 -0.132684,1.10485 -0.570306,1.84011 -1.319525,2.17074 -0.188294,0.0917 -0.376487,0.14762 -0.545123,0.22293 -0.411904,0.18008 -0.752617,0.27777 -1.047936,0.35999 -0.09072,0.01 -0.171703,0.0208 -0.246493,0.0505 -1.94747,0.44188 -3.565988,0.1278 -4.765128,-0.98554 -1.786214,-1.81298 -2.406565,-3.58848 -1.912229,-5.32799 0.530076,-1.73638 1.389012,-3.17018 2.619632,-4.26903 1.214313,-1.11829 3.550479,-1.54914 6.932953,-1.30742 3.10775,0.70408 5.544761,1.98098 7.34727,3.81339 3.276989,3.39365 5.787549,6.97528 7.611966,10.79704 -1.492013,-1.26502 -2.984854,-1.6535 -4.538972,-1.17738 -0.0909,0.0101 -0.158621,0.044 -0.233243,0.0735 -0.03899,0.0329 -0.09616,0.0435 -0.151079,0.0566 -2.120572,1.1832 -3.251985,2.58323 -3.366334,4.30196 -0.02795,0.32151 0.0036,0.65576 0.04715,0.98352 0.432076,1.02841 1.230825,1.15717 2.45586,0.32795 -0.812007,0.019 -1.202841,-0.40028 -1.166857,-1.2253 0.667459,-1.45424 1.638121,-2.24436 2.910967,-2.38511 0.948042,-0.13315 1.888396,0.13823 2.797137,0.866 -1e-6,0 0.01024,0.0265 0.02655,0.046 0.302913,0.24258 0.579237,0.53149 0.908705,0.88427 1.177255,1.36353 2.138026,3.18687 2.879887,5.41251 0.862972,3.51496 1.156808,6.41335 0.959804,8.66508 -0.07614,1.11143 0.1009,2.32499 0.480126,3.64327 -0.949318,-0.93128 -1.845183,-1.96045 -2.26219,-2.64502 -0.283719,-0.43645 -0.517623,-0.92055 -0.763078,-1.42779 -0.930526,-1.7355 -2.532553,-3.25069 -4.768052,-4.59803 -4.191747,-2.6712 -7.447825,-4.4652 -9.792031,-5.34226 -1.521142,-0.57735 -2.917876,-1.05011 -4.211208,-1.45849 -0.686351,-0.19831 -1.34079,-0.36441 -1.95664,-0.52428 -1.768038,-0.49209 -4.637395,-0.94508 -8.612795,-1.3369 -5.07321,-0.30205 -9.921916,0.65538 -14.539187,2.88104 -0.443768,0.17942 -0.921701,0.29947 -1.393452,0.34509 -1.197737,0.0722 -2.447581,-0.36506 -3.83206,-1.27924 -0.718793,-0.74474 -1.042566,-1.58689 -0.916322,-2.59507 0.235041,-1.04078 0.655711,-1.7356 1.221481,-2.02226 1.341726,-0.30441 2.125569,0.32702 2.360931,1.91418 0.52459,-0.78364 0.585232,-1.52547 0.279397,-2.27468 -0.759931,-1.24198 -1.805192,-1.83621 -3.232197,-1.77871 -1.928136,0.12372 -3.275133,1.29874 -4.021402,3.48565 -0.45248,1.54342 -0.572692,3.05153 -0.352052,4.43002 0.818871,2.07647 2.283221,3.54403 4.448103,4.41521 -1.257801,1.14331 -1.782768,2.87517 -1.625195,5.19569 0.128183,2.34111 -0.64388,4.16159 -2.31174,5.43892 -1.290177,1.03482 -2.932783,1.24148 -4.883029,0.61396 -0.141092,-0.0764 -0.31853,-0.15625 -0.45518,-0.25789 -0.06614,-0.0632 -0.148665,-0.14972 -0.214803,-0.21289 -0.305737,-0.31153 -0.480694,-0.62171 -0.61008,-1.05669 -0.157317,-0.56872 -0.196171,-1.22436 -0.08459,-2.00329 0.462648,-1.7472 1.332253,-2.72405 2.556431,-2.94613 l 0.08836,-0.11221 c -0.720199,-0.59069 -1.668881,-0.49794 -2.844467,0.32522 -0.774019,0.81023 -1.282939,1.76054 -1.448344,2.79644 -0.02364,0.14798 -0.02352,0.26532 -0.03433,0.41799 0.01479,0.64664 0.08451,1.28251 0.241834,1.85123 -0.0088,0.0503 0.0042,0.0873 0.02037,0.14139 0.189673,0.67747 0.440503,1.29995 0.810922,1.82896 0.07791,0.14254 0.206331,0.26804 0.334169,0.41964 0.02066,0.0292 0.0481,0.0428 0.08928,0.1016 0.107329,0.1217 0.259496,0.24842 0.366847,0.37015 0.02498,0.004 0.06071,0.0379 0.08569,0.0423 1.437485,1.0518 2.853471,1.68176 4.390735,1.87554 2.33089,0.0758 4.59723,-0.59567 6.716242,-1.94803 1.17559,-0.82316 1.853217,-1.95843 2.054359,-3.39134 0.06016,-0.63343 0.0978,-1.25553 0.199126,-1.83017 0.11177,0.53493 0.298255,1.08169 0.464447,1.6002 1.018829,2.98786 2.859562,5.20869 5.511016,6.68064 4.382647,1.88076 8.368577,0.967 11.999496,-2.82368 0.223362,-0.24397 0.483356,-0.45395 0.697902,-0.64796 0.302715,-0.25607 0.579204,-0.50811 0.839285,-0.66833 1.695836,-1.14387 2.485328,-0.2772 2.350523,2.53276 0.0793,-0.44972 0.07515,-0.85184 0.11625,-1.23101 0.243433,-3.7182 -1.070357,-4.8674 -3.982958,-3.39736 1.028484,-1.59591 1.040481,-3.07055 0.01008,-4.38573 -1.256758,-1.63845 -2.868457,-1.83933 -4.894897,-0.5737 1.293271,-0.0296 2.237639,0.26943 2.77416,0.87926 0.608539,0.93166 0.760759,1.76053 0.39934,2.49539 -0.08525,0.19132 -0.196497,0.36158 -0.277308,0.52764 -0.199803,0.40272 -0.39804,0.72033 -0.57143,0.97312 -0.06314,0.0659 -0.128712,0.1175 -0.166993,0.18821 -1.207824,1.59031 -2.635849,2.39429 -4.270093,2.31221 -2.533671,-0.24066 -4.149088,-1.19359 -4.888557,-2.84389 -0.710052,-1.67086 -0.985557,-3.3253 -0.749183,-4.9581 0.211399,-1.6372 1.726713,-3.47267 4.473215,-5.46171 2.833242,-1.45827 5.533524,-2.03801 8.092188,-1.79293 4.691704,0.49327 8.909945,1.62637 12.764105,3.3813 -1.956076,-0.01 -3.357448,0.62594 -4.241922,1.98964 -0.06318,0.0661 -0.07928,0.15039 -0.117461,0.22095 -0.0088,0.0503 -0.04133,0.0899 -0.07511,0.13516 -0.863876,2.26947 -0.831619,4.07717 0.185556,5.46728 0.185258,0.26428 0.417194,0.49777 0.661227,0.72088 0.992036,0.51006 1.664604,0.0744 2.070033,-1.34829 -0.609813,0.53651 -1.182489,0.49484 -1.685232,-0.16028 -0.423475,-1.54307 -0.167342,-2.76538 0.717253,-3.69137 0.640658,-0.7114 1.548604,-1.11066 2.712539,-1.13729 10e-7,0 0.01116,0.005 0.03623,0.01 0.387971,-0.009 0.79779,0.0312 1.276949,0.0897 1.778295,0.2878 3.699798,1.05619 5.698713,2.28426 2.920445,2.1379 4.739919,4.39554 6.291097,6.01587 2.369462,2.47507 3.078608,4.31354 4.877521,7.01575 4.523597,5.31168 9.478451,7.99351 14.818414,8.10657 4.70733,0.0997 8.82369,-1.32543 12.31183,-4.35166 0.0385,-0.0327 0.059,-0.0596 0.0786,-0.076 0.0385,-0.0326 0.0397,-0.0434 0.0786,-0.076 0.0388,-0.0328 0.10868,-0.0832 0.14755,-0.11579 0.0194,-0.0158 0.059,-0.0596 0.0786,-0.076 1.92628,-1.4917 -7.48594,7.46227 -5.73586,6.3497 -0.003,0.13369 -0.0265,0.66313 -0.0265,0.66313 l 0,1.85676 c 0,0.92477 -0.0587,1.85479 -0.13263,2.70557 -0.29593,2.84827 -0.78781,5.33466 -1.56499,7.48011 -0.77643,2.10883 -1.79272,3.85681 -3.05039,5.22546 2.62633,0.4805 4.81876,-0.80733 6.63129,-3.76658 0,-0.006 0.0247,0.006 0.0265,0 -2.10809,6.10344 -4.78684,9.69091 -7.93103,10.68965 -0.81379,0.25893 -1.70123,0.31272 -2.625994,0.23873 0.07398,0.14796 0.154274,0.32949 0.265254,0.47745 0.55486,0.73981 1.53866,1.22089 2.94429,1.40584 2.36703,-0.11098 4.28681,-1.03612 5.72944,-2.81167 -0.29592,2.25642 -1.66965,4.06341 -4.1114,5.35809 -0.44352,0.11097 -0.93542,0.14831 -1.37931,0.18567 -0.1106,0 -0.23385,-10e-6 -0.34483,0 -0.0374,0 -0.0953,-10e-6 -0.13262,0 -1.96051,0 -3.66067,-0.61514 -5.066314,-1.90981 -0.110976,-0.11097 -0.207327,-0.20732 -0.318302,-0.3183 -0.07398,-0.1106 -0.180802,-0.20733 -0.291777,-0.31831 0.184951,2.73767 1.810049,4.52825 4.880633,5.30504 -1.5536,0.92478 -3.473013,1.31057 -5.729439,1.27321 -3.662065,-0.62847 -6.442391,-2.11987 -8.328909,-4.37666 -0.851152,0.92477 -1.016255,2.09009 -0.424403,3.42175 1.738553,2.14545 4.257051,3.95245 7.586203,5.35809 -3.255167,-1.10971 -6.276389,-0.9603 -9.124664,0.37135 -0.14759,0.11099 -0.319026,0.19128 -0.503979,0.26526 -2.515353,1.88651 -3.29634,4.0573 -2.334216,6.49867 0.776805,-1.5536 2.172189,-2.84181 4.24403,-3.76658 1.701568,-0.55486 3.262789,-0.31955 4.668433,0.71618 -0.702825,2.03448 -2.098575,3.55275 -4.24403,4.58886 -0.07436,0.0366 -0.165119,0.0587 -0.238727,0.13262 -1.221058,0.55487 -2.718396,0.67737 -4.641908,0.34483 10e-7,0 -0.04222,-0.0157 -0.07957,-0.0531 -0.03662,-1e-5 -0.08517,-1e-5 -0.159151,0 -0.814157,-0.18496 -1.701223,-0.40979 -2.625994,-0.7427 0.702819,2.21944 2.851947,3.34217 6.366045,3.34217 0.592213,-0.11061 1.201403,-0.23386 1.830238,-0.34483 2.145453,-0.44425 4.348341,-1.04297 6.604772,-1.85676 -2.219432,0.85078 -3.738079,2.37988 -4.588858,4.56233 -0.517871,0.96138 -0.352402,1.87534 0.424403,2.65252 0.924762,-1.03573 2.309684,-1.69906 4.270555,-2.06896 -4.698173,4.2909 -6.494337,7.63818 -5.384613,10.07957 1.849529,-2.99586 4.026269,-4.80882 6.578247,-5.43767 l 0.106101,0.2122 c 0.03662,1.40564 -0.395536,2.61428 -1.246684,3.68701 -0.258931,0.3699 -0.55848,0.70156 -0.928382,1.03448 l -0.02653,0 c -3e-6,0.0366 -0.05305,0.0795 -0.05305,0.0795 -0.07398,0.0744 -0.153915,0.16475 -0.265252,0.23873 -1.109719,0.77716 -2.425179,1.25824 -3.978778,1.40583 -0.03663,0 -0.04221,-10e-6 -0.07958,0 -0.924765,0.0744 -1.983265,-0.0115 -3.129972,-0.15915 0.739811,1.07234 2.081795,1.9553 4.005303,2.7321 1.664582,0.44388 3.348687,0.24667 5.013261,-0.53051 -0.517865,2.44137 -0.05773,4.78882 1.458885,7.08223 0.739816,-2.2934 1.685893,-4.01525 2.758619,-5.19894 0.295914,-0.33254 0.568934,-0.57344 0.901854,-0.79576 -0.11135,0.36992 -0.14869,0.65898 -0.18568,0.95491 0,0.25894 0,0.45164 0,0.63661 0.14759,1.59058 -0.0877,3.02369 -0.716174,4.4297 -0.444257,1.2577 -1.956942,2.32105 -4.509281,3.02387 2.959239,0.77681 5.060185,0.95834 6.206885,0.47746 0.14796,-0.037 0.31343,-0.13823 0.4244,-0.2122 0.33255,-0.14759 0.67504,-0.3082 1.00796,-0.53051 0.074,-0.037 0.13822,-0.0956 0.2122,-0.13262 -0.11097,0.11098 -0.19127,0.2499 -0.26525,0.39787 -0.29593,0.44389 -0.51517,0.87191 -0.66313,1.35279 -0.037,0.0743 -0.0321,0.16474 -0.1061,0.23872 -0.29593,0.92477 -0.40312,1.83385 -0.29178,2.75862 -0.11097,0.51787 0.2151,0.83348 0.95491,0.98144 0.0366,0.037 0.0422,0.053 0.0796,0.053 0.55486,-0.66584 1.18534,-0.99715 1.77718,-1.03449 0.96176,0.0373 1.89738,0.36268 2.78515,0.95491 0.88814,0.85078 1.25679,1.85065 1.03448,2.99735 0.51824,0.73982 1.59206,1.45059 3.18302,2.04244 0.92476,-0.29594 1.51338,-0.80948 1.88329,-1.51194 0.0366,-0.14796 0.0953,-0.26039 0.13263,-0.37135 l 0.18567,-0.2122 2.78515,1.77718 c -0.0374,0.074 -0.0688,0.11206 -0.1061,0.18568 -0.73981,1.47961 0.13156,2.44737 2.57294,2.89125 l 0.2122,-0.13263 c 0.22231,-0.55486 0.4789,-1.11063 0.84881,-1.59151 0,-0.0366 -0.0104,-0.0796 0.0265,-0.0795 0.59184,-0.81343 1.37806,-1.53538 2.41379,-2.20159 0.88815,-0.037 1.7386,0.0594 2.62601,0.3183 0.48124,0.11061 0.89805,0.3082 1.37931,0.5305 l 0.053,-0.0795 c 0.44387,-0.77718 0.22427,-1.55742 -0.66313,-2.33422 l -0.23873,-0.0795 0.053,-0.1061 c 0.074,10e-6 0.059,-1e-5 0.13263,0 0.92476,-0.14832 1.56084,-0.92821 1.85676,-2.33422 0.29629,2.47837 1.83586,3.98095 4.72147,4.53581 0.55487,-1.1837 0.6135,-2.49916 0.13263,-3.97878 -0.0373,-0.11097 -0.0956,-0.19165 -0.13263,-0.26525 -0.3699,-0.92476 -0.4502,-1.90856 -0.26525,-2.9443 0.3699,-1.03609 1.00599,-1.6774 1.85676,-1.93634 l 0.053,0 c 0.22195,-0.70317 -0.0294,-1.21564 -0.76923,-1.51193 -1.40564,-0.18494 -2.74204,-0.18496 -3.92572,0 -0.96139,0.92477 -1.98327,1.43796 -3.12998,1.51193 -1.03573,-0.0743 -1.92317,-0.28725 -2.62599,-0.58355 -0.25856,-0.11098 -0.52038,-0.26001 -0.7427,-0.37135 -0.36991,-0.25857 -0.66945,-0.56932 -0.92839,-0.90186 -0.3699,-2.81165 -0.90475,-5.58639 -1.64456,-8.24933 -0.99836,-4.55021 -3.17996,-9.09458 -6.47213,-13.60742 6.39973,-0.85079 10.66621,-3.35882 12.81166,-7.61273 l 0.34483,0.0795 c 2.14545,0.037 4.0488,-0.94717 5.67639,-2.9443 0.18494,-0.22193 0.37207,-0.49386 0.55703,-0.71618 -0.11062,0.22232 -0.23348,0.47294 -0.34483,0.76924 -0.29555,0.92475 -0.43001,2.03704 -0.50399,3.36869 -0.074,2.40439 0.5621,4.42575 1.85678,6.12732 1.40564,1.96087 2.76928,3.14711 4.13793,3.55438 0,-1e-5 -0.0104,1e-5 0.0265,0 0.44389,0.14795 0.88237,0.20661 1.32626,0.13262 -0.99874,-1.03574 -1.89665,-2.83677 -2.59947,-5.27851 -0.5175,-1.96049 -0.38453,-4.59702 0.31829,-8.03713 1.25731,0.55486 2.55148,1.57636 3.84615,3.12997 1e-5,-0.0367 0,-0.0422 0,-0.0795 -0.22192,-2.07147 -0.79378,-4.36513 -1.64456,-6.8435 0.3699,0.62885 0.81886,1.23802 1.29974,1.83024 0.074,0.037 0.11169,0.1117 0.18567,0.18567 0.074,0.0744 0.13823,0.13822 0.2122,0.21221 1.03575,1.03536 2.30301,1.9183 3.81963,2.73209 0.037,0 0.12216,-0.0104 0.15915,0.0265 2.99624,0.8138 5.89458,0.67448 8.77984,-0.39788 1.47963,-0.85078 2.67148,-2.27306 3.44827,-4.27055 0.074,-0.18496 0.14869,-0.37207 0.18568,-0.55703 0.48088,-1.55396 0.22464,-3.28552 -0.66313,-5.17241 -1.29467,-1.51624 -2.95227,-2.45783 -4.98674,-2.86472 1.88653,1.92314 2.65108,3.83804 2.28117,5.83554 -0.11097,0.44387 -0.18641,0.82373 -0.37135,1.19363 -0.48089,1.03575 -1.39484,1.80029 -2.65252,2.28117 -1.10972,0.36991 -2.40353,0.3699 -3.84615,0 -1.5906,-0.40688 -2.77758,-0.95781 -3.55438,-1.69761 -0.77672,-0.77661 -1.1405,-1.65954 -1.1405,-2.73227 0,-1.96049 -0.12289,-4.3987 -0.34482,-7.32095 -0.33292,-2.81128 -1.26854,-5.6663 -2.78515,-8.51458 -1.44264,-2.47836 -3.61341,-4.93786 -6.49867,-7.45358 -0.11134,-0.11097 -0.19127,-0.24431 -0.26525,-0.3183 -0.85078,-1.03575 -1.36398,-2.14803 -1.51194,-3.3687 -0.14759,-1.29468 0.1034,-2.74348 0.76923,-4.29708 0.22158,-1.14671 0.30225,-2.20035 0.26526,-3.23608 0,-0.29592 0.021,-0.58986 -0.053,-0.8488 -0.11098,-1.7012 -0.60251,-3.25232 -1.37931,-4.69496 0,-0.074 0.0209,-0.0691 -0.0531,-0.1061 1.33165,-2.18244 2.85589,-3.88262 4.66843,-5.06631 0.40652,-0.29594 0.82932,-0.52076 1.27321,-0.74271 0.3699,-0.22193 0.77067,-0.38254 1.14058,-0.5305 0.55486,-0.22193 1.06317,-0.36649 1.61804,-0.47745 3.95798,-0.66583 7.82334,-1.82629 11.4854,-3.52785 1.81253,-1.14671 2.39556,-3.02913 1.80372,-5.72944 0.074,0.25892 0.12775,0.48376 0.23872,0.7427 1.07272,2.99624 2.78336,4.35988 5.03979,4.13793 -1.29467,-1.44263 -1.71709,-3.56036 -1.27321,-6.44562 l 6.12732,4.82758 c -1.95938,-2.89088 -2.2603,-6.0431 -0.92838,-9.36339 3.42005,-9.07734 0.6273,-11.9305 -3.12998,-16.79044 -14.09415,-3.55271 -16.3135,-1.50476 -30.55701,-3.44828 -2.44138,-0.59184 -4.28609,-1.58124 -5.54377,-3.02387 -0.1841,-1.07613 -0.92838,-0.1061 -0.92838,-0.1061 -0.8874,0.25894 -1.80733,0.44607 -2.73209,0.55703 0.7768,0.92477 1.408,1.86598 1.96286,2.86472 0.99874,2.33041 1.47532,4.62966 1.51194,6.92308 0.0107,0.67124 -3.4e-4,0.52453 0,0.6366 0,0.22195 -0.0265,0.49423 -0.0265,0.71618 -0.96138,2.92224 -2.66752,5.47287 -5.14588,7.6923 1.51698,0.037 2.9766,-0.65773 4.45623,-1.98938 l 0.18568,0.15915 c -0.96213,3.14419 -1.587,6.34135 -1.88329,9.52254 0,0.037 -0.016,0.0691 -0.053,0.1061 -0.4069,2.62633 -1.3104,5.16649 -2.67905,7.71883 -2.99935,5.56725 -5.53819,7.42607 -10.72687,9.76646 -3.43747,1.13922 -6.57976,0.77891 -9.25504,-0.7517 -1.800503,-1.23798 -3.143883,-3.05954 -4.084369,-5.48283 -0.745467,-2.3882 0.187954,-4.99079 2.933104,-7.7579 1.240865,-1.00809 2.436386,-1.51219 3.605825,-1.49988 0.93554,0.01 1.87983,0.38814 2.78838,1.11609 1.22636,1.42165 1.30795,2.88409 0.32573,4.43686 -1.04858,1.07859 -2.21224,1.43763 -3.548525,1.06862 0.601595,1.1511 1.916995,1.3429 3.974135,0.67652 0.21069,-0.14358 0.46168,-0.28029 0.65293,-0.40757 0.0386,-0.0326 0.059,-0.0596 0.0786,-0.076 l 0.0459,-0.0265 c 2.09646,-1.52731 2.74208,-3.58249 2.00219,-6.24032 -0.89782,-2.29349 -2.88717,-3.37024 -5.96586,-3.17139 1.81388,-0.56162 2.90832,-1.53086 3.29697,-2.88363 -1.54688,0.80129 -3.05911,1.25753 -4.478039,1.42151 -0.146135,0.0232 -0.301026,0.0511 -0.447124,0.0744 0.09718,-0.0815 0.220833,-0.16341 0.318073,-0.24484 1.44506,-1.08009 2.06598,-2.6947 1.87363,-4.81843 -0.31253,-1.16181 -1.06887,-2.13678 -2.293224,-2.96402 -1.444672,-0.77485 -2.930006,-0.72082 -4.411288,0.15783 2.183168,0.15517 3.434655,1.07111 3.690228,2.67813 0.02415,1.37071 -0.350477,2.61521 -1.217415,3.67387 -0.40433,0.50485 -0.970588,0.98437 -1.602548,1.41528 -1.158023,0.47493 -2.14302,1.15691 -2.978232,2.0564 -0.158623,0.16618 -0.338648,0.36948 -0.464634,0.57454 -0.947622,1.15945 -1.200188,2.41764 -0.795874,3.7674 -0.630612,-1.02741 -0.818397,-2.38368 -0.564204,-4.05415 0.06322,-0.5167 0.193732,-1.05413 0.331751,-1.60046 0.402732,-1.92761 0.155943,-4.08499 -0.690489,-6.55405 -1.494062,-4.74067 -2.8513,-8.23598 -4.083297,-10.41465 -0.794162,-1.42005 -1.545847,-2.68849 -2.274057,-3.83269 -0.398311,-0.59309 -0.79975,-1.13468 -1.16876,-1.653 -1.038088,-1.51342 -2.947259,-3.6925 -5.740731,-6.54801 -3.692148,-3.49236 -8.023879,-5.90748 -12.991539,-7.17045 -0.455264,-0.14788 -0.881996,-0.34458 -1.2727,-0.61287 -0.963917,-0.7146 -1.657817,-1.83513 -2.130772,-3.42535 -0.07192,-1.03254 0.2406,-1.89923 0.98536,-2.59039 0.84905,-0.6462 1.583336,-0.89416 2.201013,-0.75006 1.223493,0.62926 1.422328,1.60451 0.582415,2.97163 0.905569,-0.2631 1.453254,-0.79331 1.700586,-1.56378 0.216188,-1.43988 -0.204462,-2.5524 -1.334574,-3.4256 -1.556562,-1.14461 -3.342348,-1.12584 -5.319744,0.0697 l -0.02298,0.0133 c -1.338713,0.89148 -2.361568,1.95792 -3.078623,3.15573 -0.707435,2.11703 -0.557361,4.18322 0.541047,6.24215 -1.698425,0.0673 -3.218896,1.04667 -4.58979,2.92558 -1.406638,1.87579 -3.169821,2.79845 -5.268531,2.70487 -1.653497,-0.0366 -3.050289,-0.92867 -4.140902,-2.66297 -0.05897,-0.14922 -0.120755,-0.32381 -0.160104,-0.48951 -0.01007,-0.0909 -0.04394,-0.21483 -0.054,-0.30574 -0.03396,-0.43516 0.0312,-0.80846 0.21169,-1.22485 0.245054,-0.5368 0.673467,-1.05988 1.259625,-1.58484 1.477495,-1.04105 2.769485,-1.21624 3.850009,-0.59949 l 0.128057,-0.0435 c -0.172016,-0.91543 -0.982401,-1.45329 -2.412073,-1.57837 -0.835304,0.0924 -1.599267,0.34637 -2.260216,0.75363 z"
         id="use2033" />
      <path
         d="m 113.71024,79.848832 c 0.3699,-1.627584 1.40564,-3.107206 3.18119,-4.475855 -2.70032,-0.332915 -4.17994,-1.220688 -4.36489,-2.7373 1.29467,0.66583 2.62633,0.850782 3.95799,0.591848 1.14671,-2.145451 2.92188,-3.773035 5.32626,-4.882751 6.83666,-3.253534 -0.35666,-6.468223 11.80036,-3.40313 2.44138,1.072726 6.17742,1.812536 11.20813,2.219433 0.14797,0 0.25894,0.03699 0.4069,0.03699 l 0.037,0 c 7.87899,1.072726 13.79748,2.515356 17.68148,4.327893 0.96176,0.443887 1.81254,0.924764 2.55235,1.442631 -0.11097,1.368651 -0.66583,2.182442 -1.70157,2.404386 l -0.037,0.07398 -1.81254,-1.072726 0,-0.850783 0,0.850783 1.81254,1.072726 0.037,0.03699 c 0.18496,1.220688 0.18496,2.330404 0.037,3.292158 -1.59059,3.107206 -3.92099,5.289647 -7.10218,6.584316 0,0 -0.037,0 -0.037,0.03699 -0.037,0 -0.074,0 -0.074,0.03699 -1.44263,-0.03699 -2.77429,-0.03699 -3.99498,0.03699 -1.66457,0.110972 -3.18118,0.258935 -4.47586,0.554859 -0.037,0 -0.037,0 -0.037,0 -1.33166,0.258933 -2.44137,0.628839 -3.44011,1.072725 -1.77555,0.813792 -3.21818,1.738556 -4.36489,2.7373 -0.51786,0.517868 -0.99875,1.035735 -1.40564,1.590594 -1.25731,1.960498 -1.25731,3.588082 0,4.84576 0.037,0.03699 0.11098,0.110972 0.14797,0.147963 0.70282,0.591848 1.9235,0.924763 3.62507,0.998745 3.21817,-0.03699 5.8445,-0.443887 7.805,-1.183698 0.25894,-0.07398 0.55486,-0.184953 0.81379,-0.258934 1.40564,-0.406895 3.03323,-0.554858 4.88276,-0.480877 0.59185,0 1.22068,0.07398 1.84952,0.147963 0.92477,0.961754 0.88778,1.960498 -0.074,2.959243 1.10972,1.997486 3.18118,2.515356 6.17742,1.590586 -1.10972,1.92351 -2.47837,2.81128 -4.17994,2.70031 -1.5166,-0.14796 -3.1072,-0.73981 -4.6608,-1.81253 -0.11097,-0.074 -0.18496,-0.14797 -0.29593,-0.22195 0.11097,0.11098 0.18496,0.18496 0.22195,0.25894 1.5536,1.62758 2.55234,3.07021 2.99623,4.2909 0.037,0.037 0.037,0.074 0.037,0.074 0,0.037 0,0.037 0,0.074 0.22194,0.66583 0.29592,1.25768 0.18495,1.81254 -0.18495,-0.59185 -0.48088,-1.14671 -0.88777,-1.66457 -1.29468,-1.47963 -3.66206,-2.44138 -7.13918,-2.81128 0.18495,1.36864 1.29468,2.81128 3.36614,4.25391 -4.03197,-0.55486 -6.76927,-1.92351 -8.2119,-4.10595 -0.33292,2.10846 -1.51661,3.25517 -3.5141,3.40313 0.62884,-1.62759 0.44389,-2.95925 -0.59185,-3.95799 -1.44263,2.77429 -3.95798,4.43886 -7.50907,5.03071 1.84952,-1.47962 2.7003,-3.44012 2.51535,-5.8445 -1.55361,1.47962 -2.84827,2.18244 -3.95798,2.07147 0.22193,-2.07147 -0.40691,-3.920997 -1.92352,-5.585571 -0.48087,1.886511 -2.58933,2.959241 -6.36237,3.218171 2.77429,-2.404379 4.03197,-4.882746 3.81039,-7.435093 -0.18495,-2.552347 -0.55485,-4.512846 -1.14707,-5.955477 -1.51661,0.184953 -2.55198,1.442631 -3.10684,3.773035 -0.44388,-4.10595 1.22069,-6.84325 4.88239,-8.2119 -1.07236,0.258934 -2.1081,0.406896 -3.1442,0.443886 -0.62847,0 -1.25731,-0.03699 -1.88651,-0.110971 -2.14546,-0.295924 -3.25518,-2.108461 -3.29217,-5.43761 -0.037,-0.665829 0.0374,-1.257678 0.14797,-1.775546 0,-0.03699 0,-0.03699 0,-0.03699 0.3699,-1.516612 1.25767,-2.552347 2.66331,-3.033224 0.074,-0.03699 0.14759,-0.07398 0.22195,-0.07398 0.0373,-0.03699 0.074,-0.03699 0.11097,-0.03699 l 0.037,0 c 0.25893,-0.110971 0.55486,-0.184952 0.85078,-0.221943 0.29592,-0.07398 0.59185,-0.07398 0.88777,-0.110971 1.77555,0.03699 2.95924,0.554857 3.58772,1.553602 -0.62848,-0.998745 -1.81217,-1.516612 -3.58772,-1.553602 -0.29629,0.03699 -0.59221,0.03699 -0.88777,0.110971 -0.29592,0.03699 -0.59185,0.110972 -0.85078,0.221943 l -0.0373,0 c -0.037,0 -0.0736,0 -0.11097,0.03699 -0.074,0 -0.14759,0.03699 -0.22194,0.07398 -1.40564,0.480877 -2.29341,1.516612 -2.66332,3.033224 0,0 0,0 0,0.03699 -0.11098,0.517868 -0.18496,1.109717 -0.14797,1.775546 0.0374,3.329149 1.14708,5.141686 3.29217,5.43761 0.62883,0.07398 1.25767,0.110971 1.88651,0.110971 1.03611,-0.03699 2.07184,-0.184952 3.1442,-0.443886 -3.66169,1.36865 -5.32627,4.10595 -4.88239,8.2119 0.55487,-2.330404 1.5906,-3.588082 3.10685,-3.773035 0.59221,1.442631 0.96212,3.40313 1.14707,5.955477 0.22194,2.552347 -1.03611,5.030714 -3.8104,7.435093 3.77304,-0.25893 5.8815,-1.33166 6.36238,-3.218171 1.51698,1.664574 2.14545,3.514101 1.92351,5.585571 1.10971,0.11097 2.40438,-0.59185 3.95799,-2.07147 0.18494,2.40438 -0.66583,4.36488 -2.51536,5.8445 3.55109,-0.59185 6.06607,-2.25642 7.50908,-5.03071 1.03573,0.99874 1.22068,2.3304 0.59184,3.95799 1.99749,-0.14796 3.18119,-1.29467 3.5141,-3.40313 1.44263,2.18244 4.17994,3.55109 8.2119,4.10595 -2.07146,-1.44263 -3.18118,-2.88527 -3.36613,-4.25391 3.47711,0.3699 5.8445,1.33165 7.13917,2.81128 -1.22068,0.66583 -1.88651,1.36865 -1.99749,2.07147 -0.074,0.85078 0.33291,1.36865 1.1837,1.5536 0.70282,-0.25893 1.40564,-0.44389 2.10846,-0.59185 2.55235,-0.59185 5.10469,-0.70282 7.65704,-0.25893 0.037,0 0.11098,0 0.14797,0 0.22194,0.037 0.40689,0.074 0.59184,0.11097 2.40439,-0.99875 3.69906,-2.7373 3.77304,-5.17868 2.18244,0.96176 3.10721,2.40439 2.88526,4.29091 -1.36865,3.03322 -3.99498,4.58682 -7.805,4.69779 -0.11097,0 -0.22195,0 -0.29593,0 0.074,0 0.18496,0 0.29593,0.037 5.17868,0.85079 8.39685,3.10721 9.65453,6.76927 1.44263,2.40439 3.55109,2.18245 6.28839,-0.73981 -0.18496,0.4069 -0.40689,0.81379 -0.59185,1.22069 -0.70282,1.25768 -1.51661,2.44138 -2.36739,3.47712 -0.037,0.037 -0.037,0.037 -0.037,0.074 -1.1467,1.33166 -2.44138,2.44137 -3.921,3.36614 0.037,-1.84952 -0.55486,-3.32915 -1.81253,-4.40188 -0.22195,-0.25893 -0.51787,-0.44388 -0.85079,-0.66583 0.33292,0.22195 0.62884,0.4069 0.85079,0.66583 1.25767,1.07273 1.84952,2.55236 1.81253,4.40188 0.18495,1.99748 1.03574,3.5141 2.62633,4.51285 1.62759,0.99874 2.99624,0.92476 4.17993,-0.18496 0.14796,-0.11097 0.25894,-0.25893 0.36991,-0.40689 0.3699,-0.51788 0.44388,-1.10972 0.18495,-1.70157 -3.72262,-3.00466 0.8092,-2.02612 1.40564,-0.51786 0.33291,0.40689 0.59185,0.88777 0.7768,1.51661 0.14796,0.92476 0.18495,1.77554 0,2.51535 -0.22194,1.10972 -0.81379,1.9605 -1.77554,2.55235 -0.36991,0.22195 -0.77681,0.44388 -1.22069,0.59185 -0.62884,0.22194 -1.22069,0.36991 -1.77555,0.51786 -0.11097,0 -0.22194,0.037 -0.33292,0.037 -0.29592,0.074 -0.59184,0.11097 -0.88776,0.14796 -0.66584,0.037 -1.33167,0.037 -1.96051,-0.037 -0.51786,-0.11098 -0.99874,-0.22195 -1.47962,-0.3699 -0.074,-0.074 -0.18495,-0.11098 -0.25893,-0.14797 -0.25893,-0.11097 -0.51787,-0.22194 -0.7768,-0.33292 -0.62885,-0.3699 -1.25768,-0.81379 -1.84953,-1.40564 -0.7768,-0.81379 -1.47962,-1.77554 -2.07147,-2.95924 -0.7768,-1.70157 -1.81254,-2.84827 -3.03322,-3.32914 1.22068,0.48087 2.25642,1.62757 3.03322,3.32914 0.59185,1.1837 1.29467,2.14545 2.07147,2.95924 0.59185,0.59185 1.22068,1.03574 1.84953,1.40564 0.25893,0.11098 0.51787,0.22195 0.7768,0.33292 l 0.33291,0.25893 c 0.48088,0.25894 0.92477,0.4069 1.33166,0.48088 0.11097,0.037 0.18496,0.037 0.25894,0.037 0.59184,0.11097 1.18369,0 1.77555,-0.22195 0.29592,-0.037 0.59184,-0.074 0.88776,-0.14796 0.11098,0 0.22195,-0.037 0.33292,-0.037 -0.037,0.037 -0.074,0.14797 -0.074,0.18496 -0.074,0.11097 -0.11098,0.22194 -0.18496,0.33292 -0.037,0.074 -0.074,0.18494 -0.11097,0.22193 0,0.037 -0.037,0.074 -0.074,0.14797 -0.81379,1.44263 -2.03448,2.3304 -3.5511,2.7373 -0.92475,-0.73982 -1.9235,-1.40564 -2.99623,-1.92351 -0.96175,-0.48087 -1.9605,-0.88777 -2.99623,-1.18369 -3.14419,-0.88778 -5.1047,-2.66333 -5.84451,-5.36363 0.73981,2.7003 2.70032,4.47585 5.84451,5.36363 1.03573,0.29592 2.03448,0.70282 2.99623,1.18369 1.07273,0.51787 2.07148,1.18369 2.99623,1.92351 1.10972,0.88777 2.14545,1.9605 3.10721,3.18118 0.33292,0.40691 0.62884,0.85079 0.96176,1.33166 0.59184,1.51661 0.33291,2.66333 -0.7768,3.47712 -1.36865,-1.62759 -3.07022,-2.81129 -5.03072,-3.58809 -1.03573,-0.40689 -2.18244,-0.66583 -3.44012,-0.85078 l -0.037,0 c -2.25642,0.037 -4.21692,-0.36991 -5.8445,-1.29467 l -3.884,-2.70031 c 0.33291,0.7768 0.59184,1.51661 0.77679,2.21943 0.037,0.037 0.037,0.074 0.037,0.11098 0.70282,2.40438 0.59185,4.40187 -0.25893,5.95548 -1.5906,2.44137 -3.77304,3.95798 -6.47334,4.58682 0.037,-0.037 0.0739,-0.074 0.0739,-0.11097 0.44389,-0.4069 0.81379,-0.81379 1.10972,-1.25768 0.074,-0.0739 0.11097,-0.11097 0.14796,-0.18495 0.85078,-1.1837 1.40564,-2.44138 1.66457,-3.84702 -0.3699,-2.81128 -2.21943,-4.77178 -5.51159,-5.99247 -0.11097,-0.074 -0.25893,-0.074 -0.4069,-0.14796 0.14797,0.074 0.29593,0.074 0.4069,0.14796 0.4069,0.33292 0.7768,0.70282 1.10971,1.07273 1.88653,2.10846 2.47837,4.21692 1.84954,6.28839 -0.037,0.074 -0.074,0.14796 -0.11098,0.25894 -0.18495,0.44388 -0.3699,0.81379 -0.62883,1.10971 -0.73982,0.96176 -1.81254,1.33166 -3.25518,1.14671 1.92352,-2.40439 1.88653,-4.66081 -0.11097,-6.76927 -0.33291,-0.4069 -0.70282,-0.81379 -1.10971,-1.14671 -0.96176,-0.81379 -2.14545,-1.36865 -3.5141,-1.66457 -0.33292,1.55361 -0.074,3.14419 0.81379,4.69779 0.3699,0.66583 0.85078,1.29468 1.44263,1.96051 -0.85078,-0.29593 -1.70156,-0.59186 -2.51536,-0.92477 -3.25517,-1.47962 -5.80751,-3.77303 -7.65704,-6.84325 l 0.037,-0.18495 c 0.037,0 0.037,0 0.074,0.037 1.40564,0.51788 2.84827,0.62884 4.25392,0.48089 l 0.0374,0 c 0,-0.037 0,-0.037 -0.037,-0.037 l 0,0 c -0.92477,-0.66583 -1.66458,-1.44263 -2.25642,-2.25642 -0.11098,-0.074 -0.18496,-0.22195 -0.25893,-0.33292 -0.29593,-0.44389 -0.55487,-0.88778 -0.7768,-1.36865 -0.36991,-0.81379 -0.62885,-1.70157 -0.7768,-2.66332 0.14795,0.96175 0.40689,1.84953 0.7768,2.66332 0.22193,0.48087 0.48087,0.92476 0.7768,1.36865 0.0739,0.11097 0.14795,0.25893 0.25893,0.33292 0.59184,0.81379 1.33165,1.59059 2.25642,2.25642 l 0,0 c 0.037,0 0.037,0 0.037,0.037 l -0.037,0 c -1.40564,0.14795 -2.84827,0.037 -4.25391,-0.48089 -0.037,-0.037 -0.037,-0.037 -0.074,-0.037 -0.037,0 -0.11097,0 -0.14796,-0.037 -0.92477,-0.33291 -1.84952,-0.81379 -2.73693,-1.44263 0.11097,-0.92476 0.1476,-1.81253 0.0736,-2.62633 -0.18496,-2.25642 -1.07236,-4.21692 -2.66295,-5.8445 1.59059,1.62758 2.47799,3.58808 2.66295,5.8445 0.074,0.8138 0.0374,1.70157 -0.0736,2.62633 -0.70282,2.14545 -1.77592,3.77303 -3.14419,4.91975 -1.36865,1.10971 -3.03323,1.77554 -4.99373,1.99748 -1.81253,0.074 -3.32915,-0.22194 -4.62381,-0.92476 -0.11135,-0.037 -0.18496,-0.074 -0.2963,-0.14797 l -0.037,0 c -0.037,-0.037 -0.11098,-0.0739 -0.18496,-0.11096 -0.14796,-0.11097 -0.22194,-0.18496 -0.36991,-0.25894 0.22195,-0.037 0.4069,-0.074 0.59186,-0.11097 2.25679,-0.3699 4.25391,-1.55361 5.95584,-3.44012 0.92477,-1.29467 0.85078,-2.55235 -0.22231,-3.77304 l 0,0 0,-0.037 c -0.59185,-0.70282 -1.07236,-1.51662 -1.47962,-2.29342 -0.70246,-1.33166 -1.14671,-2.73729 -1.36829,-4.21692 0.22195,1.47963 0.66583,2.88526 1.36829,4.21692 0.40726,0.7768 0.88777,1.5906 1.47962,2.29342 l 0,0.037 c -2.44138,-0.59184 -4.2909,-1.59059 -5.54859,-3.03322 -0.207,-0.21667 -0.37058,-0.46908 -0.55523,-0.70282 -0.0253,-0.0601 -0.019,-0.0287 -0.0736,-0.11097 -0.88777,-1.22069 -1.40601,-2.51536 -1.59096,-3.88401 -0.0224,-0.33321 -0.0477,-0.6658 -0.074,-0.99874 -0.005,-0.38661 0.0518,-0.93909 0.0736,-1.25769 0.11135,-0.55485 0.22231,-1.1467 0.40727,-1.70155 -0.34813,0.9586 -0.42538,1.9532 -0.48088,2.95924 0.0215,0.33216 0.046,0.6662 0.074,0.99874 0.18494,1.36865 0.70282,2.66332 1.59096,3.88401 0.0228,0.0408 0.0488,0.0733 0.074,0.11097 0.264,0.30901 0.0932,0.36682 0.10426,0.41043 -0.003,-1.9e-4 -0.34063,0.13043 -0.47379,0.18142 -0.88741,0.25893 -1.81217,0.44389 -2.73694,0.55485 -1.9235,0.18496 -3.95798,-0.074 -6.02945,-0.85077 -2.18244,-0.55487 -3.77304,-1.66458 -4.73516,-3.25517 1.59096,0.7768 3.40313,1.10971 5.40099,0.88777 1.77554,-0.18495 3.07021,-0.99875 3.95798,-2.51536 0.0548,-0.0548 -0.14796,-0.40689 -0.14796,-0.40689 -2.70031,-4.21693 -4.73478,-4.06896 -6.06644,0.3699 -1.36828,-2.55234 -1.07236,-5.14168 0.81379,-7.76801 -3.03323,2.03448 -6.43599,2.77429 -10.28337,2.29342 -2.589341,-0.8138 -4.290906,-2.07148 -5.141689,-3.81004 1.072727,0.81379 2.848269,1.14671 5.290019,0.96176 3.03285,-0.25894 5.65955,-1.25768 7.91561,-2.92226 0.0374,-0.037 0.11097,-0.074 0.18495,-0.14796 1.5536,-1.22069 2.92225,-2.77429 4.10631,-4.73479 -6.65829,-3.1072 -8.50782,-2.10846 -5.54857,2.99624 0.037,0 0.037,0.037 0.037,0.074 -3.10721,-1.66458 -4.66081,-3.25517 -4.66081,-4.80877 0.83604,-5.37998 7.38411,-5.67639 8.38205,-10.224062 l -1.71445,-1.076632 c 0.20403,-0.462381 0.60993,-1.294573 0.73015,-1.830936 -0.70301,-0.887773 -1.51689,-1.091225 -2.44166,-0.610344 -0.46238,0.240439 -1.1153,0.724235 -1.1153,0.724235 l -2.51333,-1.438165 c 0.40685,-1.248431 1.40929,-2.37478 2.96308,-3.299544 1.81254,-1.072726 3.29216,-2.145452 4.32789,-3.255168 l 0.074,-0.07398 c 0.0736,-0.110971 0.18495,-0.184952 0.22194,-0.258933 0.33291,-0.332916 0.59185,-0.702821 0.81379,-1.109717 -0.22231,0.406896 -0.48088,0.776801 -0.81379,1.109717 -0.037,0.07398 -0.14796,0.147962 -0.22194,0.258933 l -0.074,0.07398 c -0.85078,0.887773 -1.88688,1.40564 -3.03322,1.627584 -0.4069,0.07398 -0.7768,0.110972 -1.14671,0.110972 -1.14707,-0.07398 -2.10846,-0.554859 -2.92225,-1.442632 -1.03573,-1.257678 -1.25768,-2.515357 -0.66583,-3.847016 0.66583,1.516613 1.73856,2.330404 3.21818,2.404386 1.10971,0.03699 2.03448,-0.332916 2.66295,-1.072727 0.25893,-0.258933 0.48124,-0.554857 0.62884,-0.924763 0.66546,-1.36865 1.2943,-3.44012 1.81216,-6.103439 z m 28.66766,-7.139174 c -0.14796,0.07398 -0.25892,0.147962 -0.3699,0.221943 -1.84953,1.109716 -3.40313,2.330404 -4.6978,3.736044 l 0,0 -1.96049,-0.73981 1.96049,0.73981 0,0 3.95799,0.517868 c 0.18495,0.03699 0.33291,0.03699 0.51787,0.07398 0.48087,0.03699 0.96175,0.03699 1.40564,0 0.29593,-0.03699 0.55485,-0.03699 0.81379,-0.110971 0.99875,-0.406897 1.5536,-1.109717 1.66458,-2.108462 0.14796,-0.961754 -0.25894,-1.886517 -1.18371,-2.663319 0.18496,0 0.40691,0 0.59186,0 0.48087,0.03699 0.96175,0.110972 1.47962,0.221944 0.037,-0.998744 -0.51787,-1.775546 -1.73856,-2.330404 1.22069,0.554858 1.77555,1.33166 1.73856,2.330404 -0.51787,-0.110972 -0.99875,-0.184953 -1.47962,-0.221944 -0.18495,0 -0.4069,0 -0.59186,0 -0.70282,0 -1.40564,0.110972 -2.10846,0.332917 z m -4.40187,13.390576 c 1.33166,-1.29467 2.92225,-2.293414 4.66081,-2.996234 1.51661,-0.480877 3.03323,-0.628839 4.62382,-0.332915 -1.59059,-0.295924 -3.10721,-0.147962 -4.62382,0.332915 -1.73856,0.70282 -3.32915,1.701564 -4.66081,2.996234 z m -11.87396,-9.432589 c 0.11097,0.03699 0.18495,0.07398 0.25893,0.110972 0.81342,0.406896 1.51662,0.554858 2.07147,0.517868 -0.55485,0.03699 -1.25767,-0.110972 -2.07147,-0.517868 -0.074,-0.03699 -0.14796,-0.07398 -0.25893,-0.110972 -0.70282,-0.369905 -1.47962,-0.961754 -2.25679,-1.701565 0.77717,0.739811 1.55397,1.33166 2.25679,1.701565 -0.70282,0.480878 -1.36865,1.109717 -1.92351,1.886518 0.22195,1.109717 0.66583,1.960499 1.33166,2.478366 -0.66583,-0.517867 -1.10971,-1.368649 -1.33166,-2.478366 0.55486,-0.776801 1.22069,-1.40564 1.92351,-1.886518 z m 7.87899,16.867687 c 0.25893,-1.183697 0.73981,-2.404385 1.40564,-3.662063 -0.66583,1.257678 -1.14671,2.478366 -1.40564,3.662063 -0.25894,1.960499 0.88776,3.699054 3.47711,5.178676 -2.58935,-1.479622 -3.73605,-3.218177 -3.47711,-5.178676 z"
         id="path3415" />
      <path
         d="m 144.00549,74.892099 c -0.14796,-0.887773 -0.70282,-1.590592 -1.62759,-2.182441 0.70282,-0.221943 1.40564,-0.332915 2.10846,-0.332915 0.92477,0.776801 1.33167,1.701564 1.18371,2.663319 -0.11098,0.998745 -0.66583,1.701564 -1.66458,2.108461 -0.25894,0.07398 -0.51786,0.07398 -0.81379,0.110971 0.70282,-0.739811 0.96175,-1.553603 0.81379,-2.367395 z"
         id="path3417" />
      <path
         d="m 137.3102,76.667645 c 1.29467,-1.40564 2.84827,-2.626328 4.6978,-3.736044 l -0.22194,4.327893 c -0.18496,-0.03699 -0.33292,-0.03699 -0.51787,-0.07398 l -3.95799,-0.517867 z"
         id="path3419" />
      <path
         d="m 154.25187,90.280164 0.074,0 0.66583,-1.072725 c 2.88527,0.03699 5.58558,0.03699 8.17491,0 1.62759,-0.184953 3.18119,-1.40564 4.69781,-3.699054 0.73981,0.887773 0.99873,1.997489 0.73981,3.366139 -0.70282,2.219432 -2.07147,3.588083 -4.06897,4.179931 -2.66331,0.850783 -5.47459,1.220688 -8.39684,1.146707 -0.11098,-0.03699 -0.22195,-0.03699 -0.33292,-0.03699 l -1.22069,-3.107206 -1.92351,2.885263 c -3.14419,-0.147963 -6.28839,-0.07398 -9.46958,0.184952 -1.9235,0.184953 -3.36613,0.887773 -4.2909,2.145451 -1.25731,-1.257678 -1.25731,-2.885262 0,-4.84576 0.40689,-0.554859 0.88778,-1.072726 1.40564,-1.590594 2.18244,-0.517867 4.25391,-0.813792 6.32538,-0.813792 1.99749,0.07398 4.14294,0.07398 6.43636,-0.03699 l 1.18369,1.294669 z"
         id="Tongue"
         style="fill:#d40000" />
      <g
         id="Teeth"
         style="fill:#d40000">
        <path
           d="m 152.62428,85.471394 c 1.2207,-0.07398 2.55235,-0.07398 3.99499,-0.03699 l 0.11097,0.03699 -1.73856,3.736045 -0.66583,1.072725 -0.074,0 -1.1837,-1.294668 -0.44389,-3.514102 z"
           id="path3427"
           style="stroke-width:0.36990541" />
        <path
           d="m 152.66127,93.942228 1.92352,-2.885262 1.22068,3.107206 0.36991,1.331659 c -1.84953,-0.07398 -3.47711,0.07398 -4.88275,0.480877 l 1.36864,-2.03448 z"
           id="path3433"
           style="stroke-width:0.36990541" />
      </g>
      <path
         d="m 197.88166,124.82957 c 0.29453,-1.38681 1.0725,-2.71722 2.37788,-3.98607 0.94459,-0.30115 1.77571,-0.12935 2.44744,0.54744 -0.26503,0.82927 -0.0925,1.747 0.43359,2.6686 1.48512,1.18311 3.20966,2.02018 5.2576,2.59579 0.84359,0.77166 1.02988,1.42918 0.46708,2.03671 -1.63206,-0.0783 -2.96828,0.10238 -3.96076,0.47273 l -2.52352,-0.78069 2.52352,0.78069 c -0.40737,0.17687 -0.77076,0.35885 -1.05022,0.62545 -1.31718,1.49186 -2.05121,2.82739 -2.15418,3.93737 -1.2306,-0.14363 -2.36347,-0.46283 -3.4806,-1.07942 -2.31425,-1.39207 -4.27104,-2.85464 -5.87028,-4.38769 2.10894,-0.57667 3.98172,-1.70449 5.53245,-3.43091 z"
         id="path3445" />
      <path
         d="m 137.7171,174.13772 c 0.55486,0.22194 1.03573,0.51787 1.40564,0.88778 0.7768,0.55485 1.29467,1.51661 1.55361,2.88526 -4.43887,0.074 -7.10219,1.88689 -8.02696,5.47459 -0.0374,0.0374 -0.0374,0.074 -0.074,0.14797 -0.11097,-1.70157 -0.59222,-3.25517 -1.36865,-4.6978 0,-0.074 0,-0.074 -0.074,-0.11097 1.33203,-2.18244 2.88527,-3.88401 4.6978,-5.06771 0.70282,0.074 1.33166,0.25894 1.88652,0.48088 z"
         id="path3461" />
      <g
         id="Claws"
         style="fill:#d40000">
        <path
           d="m 137.75409,262.06424 c 1.10972,1.03573 1.84953,2.21943 2.21943,3.55146 0.36991,1.70156 0.4069,3.29179 0.074,4.80877 -0.59185,1.73818 -1.9605,2.95924 -4.14294,3.66169 0.85078,-1.40564 1.14671,-2.95924 0.85078,-4.73479 -0.81379,-1.9235 -2.14545,-3.21817 -3.99497,-3.84701 -0.0374,-0.11097 -0.074,-0.18496 -0.11098,-0.25857 -0.3699,-0.92476 -0.44388,-1.92351 -0.25893,-2.95924 0.36991,-1.03611 0.99875,-1.66457 1.84953,-1.92351 l 0.037,0 c 1.29467,0.29556 2.44137,0.8874 3.47711,1.7012 z"
           id="path3467" />
        <path
           d="m 197.5308,218.48938 c 0,-0.074 0.037,-0.11097 0.074,-0.18495 1.33166,-1.10972 3.03323,-1.5906 5.03072,-1.40564 2.92225,0.22194 4.95673,0.96175 6.06645,2.14545 1.36865,1.36865 1.88651,2.7373 1.5536,4.10595 -1.99749,-1.47962 -4.17993,-2.21944 -6.62131,-2.18207 -1.5536,0.7768 -1.99749,1.70156 -1.25768,2.73693 l -0.7768,-0.25857 c 0.18496,0.037 0.33292,0.11097 0.48088,0.18495 -1.59059,-0.40726 -2.7373,-0.62883 -3.47711,-0.62883 -2.92225,0.25893 -3.29216,-1.22069 -1.14671,-4.43887 0.037,-0.0374 0.037,-0.0743 0.074,-0.0743 z"
           id="path3469" />
        <path
           d="m 192.94398,247.63793 c -0.48088,-0.25894 -0.59185,-0.77681 -0.25894,-1.51662 1.07273,-1.66457 2.70031,-2.77429 4.95673,-3.29215 0,0 0.037,-0.037 0.037,-0.074 1.73855,2.10847 2.62632,4.43887 2.62632,7.02821 -0.33291,3.81039 -2.58933,5.17867 -6.73227,4.06896 1.77554,-1.10972 2.51535,-2.70031 2.21943,-4.80877 -0.55486,-1.29467 -1.47962,-1.73819 -2.7373,-1.36828 -0.037,0 -0.037,0 -0.074,0 0,-0.0374 0,-0.0374 -0.037,-0.0374 z"
           id="path3471" />
        <path
           d="m 211.36527,234.76522 c 0.3699,2.21943 0.22194,4.10595 -0.4069,5.77052 -1.07273,1.73856 -2.51536,2.66332 -4.25391,2.66332 0.7768,-0.96175 1.07272,-2.18207 0.88777,-3.73604 -0.44389,-0.99875 -1.25768,-1.47963 -2.40438,-1.40564 0,-0.074 -0.037,-0.14797 -0.074,-0.18496 -1.18369,-0.96212 -1.88651,-1.96087 -2.10846,-3.1072 0.18496,-1.66458 1.07273,-3.36614 2.70031,-5.1047 2.81128,0.88778 4.6978,2.58934 5.65956,5.1047 z"
           id="path3473" />
        <path
           d="m 126.7679,269.90623 c 0.14796,1.9605 -0.11097,3.88401 -0.73981,5.73354 -0.51787,1.22068 -1.29467,2.10846 -2.25643,2.77429 -1.66457,0.62883 -2.92225,0.73981 -3.84701,0.25893 -1.03574,-0.40727 -1.84953,-0.85078 -2.40439,-1.33203 1.51662,0.14796 2.7373,-0.22194 3.58809,-1.07236 1.03573,-1.33203 1.18369,-2.66331 0.33254,-3.95798 l -0.81342,-0.8138 -0.33292,-0.25893 c 0.59185,-0.81342 1.36865,-1.55323 2.40439,-2.21943 0.88777,-0.037 1.73855,0.074 2.62633,0.33291 0.48124,0.11097 0.92476,0.29593 1.40601,0.51787 -3.7e-4,0 -3.7e-4,0 0.0366,0.037 z"
           id="path3475" />
        <path
           d="m 108.56855,268.24166 -0.037,0 c -0.88777,0.22194 -1.44263,0.70282 -1.62758,1.40564 -0.33255,0.73981 -0.4069,1.44263 -0.14759,2.07184 0.51749,1.1467 1.59059,1.70156 3.2178,1.66457 -0.3699,1.14671 -1.44226,1.77555 -3.29179,1.88652 -2.55234,-0.36991 -3.884,-1.44263 -3.99497,-3.25517 -0.2963,-2.18244 -0.22232,-4.36488 0.18495,-6.58431 0.037,-0.074 0.0736,-0.11135 0.11097,-0.11135 0.55486,-0.66583 1.1837,-0.99837 1.77555,-1.03573 0.96175,0.0374 1.88651,0.3699 2.77429,0.96212 0.8874,0.85042 1.25731,1.84916 1.03536,2.99587 z"
           id="path3477" />
      </g>
    </g>
    <g
       transform="matrix(0.61678643,-0.00906199,0.00906199,0.61678643,75.227584,49.811951)"
       id="Kunglig-krona"
       style="fill:#ffcd50;stroke:none">
      <path
         d="M 96.529495,-11.298315 C 83.330181,-4.76936 63.082529,-3.0642833 66.282245,13.299816 l 3.5585,19.749675 c -10e-7,-1e-6 10.694741,-2.954003 27.845263,-2.954005 17.320052,0 25.217752,1.365149 25.217752,1.365149 1.74486,-6.532426 5.02751,-12.879323 5.78568,-18.872519 3.42448,-14.355746 -17.46215,-19.4802536 -29.624513,-23.886431 l 0,1.9126937 c 8.034603,4.33508 29.423003,9.06872343 26.822193,21.6623683 -0.32355,0.06829 -0.60744,0.224929 -0.80067,0.444813 -0.95007,1.081158 0.17793,4.492606 0.17793,4.492606 0,2e-6 -4.89673,-3.821518 -4.80398,1.245475 0.0872,4.809602 4.62605,0.756183 4.62605,0.756181 0.0573,1.822062 -0.89754,3.774748 -2.62439,4.537088 0,-1e-6 -2.67072,-1.197524 -6.67219,-2.49095 -1.35578,-0.955583 -2.22705,-2.405024 -2.62439,-4.047794 0,0 4.82339,4.363349 4.80397,-0.845144 -0.0171,-4.592752 -4.58156,-1.156513 -4.58156,-1.156512 -1e-5,-10e-7 3.11733,-5.159898 -1.24548,-5.159825 -4.39617,7.1e-5 -1.15651,5.159825 -1.15651,5.159825 0,-10e-7 -4.75325,-3.925823 -4.49261,1.06755 0.23533,4.553138 4.44812,0.934106 4.44813,0.934106 -0.013,0.899213 -0.23508,1.738333 -0.62274,2.49095 -3.08667,-0.742878 -6.53902,-1.390959 -10.05276,-1.601325 -0.577897,-0.889293 -1.020358,-1.859178 -1.289956,-2.891281 -1e-6,0 4.759776,3.853639 4.892936,-0.845144 0.15079,-5.3207828 -4.803973,-1.156512 -4.803973,-1.156512 1.702763,-2.46203 2.436013,-5.1598253 -1.289957,-5.1598253 -3.930191,0 -3.215899,2.7264803 -1.467881,5.1598253 -3e-6,0 -4.910291,-4.1642722 -4.759494,1.156512 0.133162,4.698785 4.848457,0.845144 4.848457,0.845144 -0.247427,1.047238 -0.712345,2.00539 -1.289957,2.891281 -3.513745,0.210366 -6.966088,0.858447 -10.052762,1.601325 -0.360546,-0.761144 -0.532473,-1.606543 -0.578256,-2.49095 0,0 4.168307,3.61903 4.403643,-0.934106 0.260643,-4.993371 -4.448125,-1.06755 -4.448125,-1.06755 -10e-7,-10e-7 3.195168,-5.159752 -1.200993,-5.159825 -4.362811,-7.3e-5 -1.245475,5.159825 -1.245475,5.159825 -2e-6,-10e-7 -4.56448,-3.436241 -4.581569,1.156512 -0.01941,5.208494 4.803975,0.845144 4.803975,0.845144 -0.347785,1.726549 -1.353377,3.12327 -2.757838,4.092275 -2.217489,0.70974 -4.3798,1.576696 -6.538743,2.446469 -1.74696,-0.800126 -2.640654,-2.687647 -2.624394,-4.537088 1e-6,2e-6 4.538884,4.053424 4.62605,-0.756181 0.09274,-5.066995 -4.803975,-1.245475 -4.803975,-1.245475 -1e-6,2e-6 1.036948,-2.173068 0.177925,-4.492606 C 69.998593,12.387925 69.5095,12.243484 68.95112,12.232266 66.928936,1.022913 88.751366,-7.0073405 96.529495,-9.3856213 l 0,-1.9126937 z"
         id="path4130"
         style="stroke:#003d8f;stroke-width:0.75423771" />
      <path
         d="M 81.427722,10.757448 C 78.057631,-0.14372161 89.086597,-5.7695739 96.1362,-11.557091 l 0,1.5770375 C 90.642601,-4.2221298 83.282824,1.6494743 84.487179,10.694366 c 0,0 -2.708481,1.934952 -3.059457,0.06308 z"
         id="path3157" />
      <path
         d="M 113.75771,11.011696 C 117.12746,0.11526233 106.46599,-5.762029 99.426732,-11.557091 l 0,1.5770375 c 5.708518,6.0397952 12.794768,11.8545524 11.271518,20.9286675 0,0 2.65265,1.206888 3.05946,0.06308 z"
         id="path4128" />
      <path
         d="m 95.996078,-10.421672 3.392256,0 0,19.1561204 -3.392256,0 0,-19.1561204 z"
         id="rect3155" />
      <path
         d="m 96.243918,-25.733522 0,3.483966 -2.93278,0 0,2.698068 2.93278,0 0,4.643446 2.691733,0 0,-4.646212 3.137609,0 0,-2.69807 -3.137609,0 0,-3.481198 -2.691733,0 z"
         id="rect7058" />
      <path
         d="m 437.90112,-2.4896135 c 0,32.7761475 -26.57032,59.3464645 -59.34646,59.3464645 -32.77615,0 -59.34647,-26.570317 -59.34647,-59.3464645 0,-32.7761475 26.57032,-59.3464645 59.34647,-59.3464645 32.77614,0 59.34646,26.570317 59.34646,59.3464645 z"
         transform="matrix(0.0883141,0,0,0.0883141,64.26065,-9.630068)"
         id="path5109" />
    </g>
    <g
       transform="matrix(0.848806,0,0,0.848806,12.47002,29.75968)"
       id="Small-shield">
      <path
         d="m 272.71517,113.52185 -74.43031,0 0,52.04898 c -0.23017,28.11626 24.08683,38.34593 37.21516,38.34593 12.89815,0 37.44532,-10.22967 37.21515,-38.34593 l 0,-52.04898 z"
         id="path1983"
         style="fill:#003d8f" />
      <g
         transform="matrix(0.75,0,0,0.75,-26.5,38.52223)"
         id="Tre-kronor"
         style="fill:#ffcd50;stroke:none">
        <path
           d="m 330,170.57824 c 2.86437,4.05475 4.5908,8.80247 4.99999,13.75 l 0,7.50001 c 9.93057,-1.66667 20.06945,-1.66667 30.00001,0 l 0,-7.50001 c 0.40919,-4.94753 2.13563,-9.69525 5,-13.75 -1.22325,-1.11224 -3.10445,-1.06758 -4.27352,0.1015 -1.16906,1.16906 -1.21374,3.05025 -0.10148,4.2735 l -0.90124,1.98264 c -0.52748,-1.02681 -1.68939,-1.55896 -2.8114,-1.28761 -1.12202,0.27133 -1.91237,1.27561 -1.91236,2.42997 10e-6,0.76896 0.35389,1.49514 0.95953,1.96898 0.60563,0.47382 1.39562,0.64258 2.142,0.45756 L 362.5,181.82824 c -0.26898,0.80709 -1.02427,1.3515 -1.87499,1.3515 -0.85075,0 -1.60602,-0.54441 -1.87502,-1.3515 l 0,-7.5 c 0.69036,0 1.25001,-0.55965 1.25001,-1.24999 0,-0.69037 -0.55965,-1.25 -1.25001,-1.25 -0.69034,0 -1.24999,0.55963 -1.24999,1.25 -10e-6,0.55814 0.36999,1.04863 0.90665,1.20194 l -2.15665,7.54805 c -0.28876,0.91095 -1.20343,1.47092 -2.14605,1.31383 -0.94261,-0.15711 -1.62626,-0.98346 -1.60395,-1.93882 l -0.28236,-2.39959 c 0.75399,0.58493 1.77523,0.68959 2.6322,0.26976 0.85698,-0.41982 1.4002,-1.29089 1.40016,-2.24517 0,-1.06078 -0.66941,-2.00605 -1.67,-2.35821 -1.00059,-0.35216 -2.11449,-0.0346 -2.77889,0.79236 l -0.15472,-1.31484 c 1.28727,-0.62904 2.10362,-1.93658 2.10361,-3.36932 -2e-5,-1.79175 -1.26757,-3.33318 -3.02556,-3.67931 l -0.0994,-0.69567 c 0,-0.3452 -0.27982,-0.62502 -0.625,-0.62502 -0.34518,0 -0.625,0.27982 -0.625,0.62502 l -0.0994,0.69567 c -1.75799,0.34613 -3.02554,1.88756 -3.02556,3.67931 -1e-5,1.43274 0.81634,2.74028 2.10361,3.36932 l -0.15472,1.31484 c -0.6644,-0.82691 -1.7783,-1.14452 -2.77889,-0.79236 -1.00058,0.35216 -1.67,1.29743 -1.67,2.35821 -3e-5,0.95428 0.54319,1.82535 1.40016,2.24517 0.85697,0.41983 1.87821,0.31517 2.6322,-0.26976 L 347.5,181.20325 c 0.0223,0.95536 -0.66134,1.78171 -1.60395,1.93882 -0.94262,0.15709 -1.85729,-0.40288 -2.14605,-1.31383 l -2.15666,-7.54805 c 0.53667,-0.15331 0.90667,-0.6438 0.90666,-1.20194 0,-0.69037 -0.55965,-1.25 -1.24999,-1.25 -0.69036,0 -1.25001,0.55963 -1.25001,1.25 0,0.69034 0.55965,1.24999 1.25001,1.24999 l 0,7.5 c -0.269,0.80709 -1.02427,1.3515 -1.87502,1.3515 -0.85072,0 -1.60601,-0.54441 -1.87499,-1.3515 l -0.60154,-1.32346 c 0.74639,0.18502 1.53638,0.0163 2.14201,-0.45756 0.60564,-0.47384 0.95953,-1.20002 0.95953,-1.96898 10e-6,-1.15436 -0.79034,-2.15864 -1.91236,-2.42997 -1.12201,-0.27135 -2.28392,0.2608 -2.8114,1.28761 l -0.90123,-1.98264 c 1.11225,-1.22325 1.06757,-3.10444 -0.10149,-4.2735 -1.16907,-1.16908 -3.05027,-1.21374 -4.27352,-0.1015 z"
           id="Crown" />
        <use
           transform="matrix(1,0,0,0.999976,-23.33334,-39.03074)"
           id="Crown-2"
           x="0"
           y="0"
           width="251"
           height="304.20001"
           xlink:href="#Crown" />
        <use
           transform="translate(23.33333,-39.03534)"
           id="Crown-3"
           x="0"
           y="0"
           width="251"
           height="304.20001"
           xlink:href="#Crown" />
      </g>
      <path
         d="m 272.71519,113.52185 -74.43032,0 0,52.04898 c -0.23017,28.11626 24.08683,38.34593 37.21516,38.34593 12.89815,0 37.44533,-10.22967 37.21516,-38.34593 l 0,-52.04898 z"
         id="Small-Frame"
         style="fill:none;stroke:#eeeeee;stroke-width:1.5" />
      <path
         d="m 242.04441,109.91184 c 0.45077,-0.70423 0.55546,-1.28283 0.2449,-1.72388 1.97426,-1.75831 4.22344,-2.44294 6.6785,-2.10791 2.41965,0.83572 3.86988,2.30025 4.35067,4.39358 0.96535,1.87787 0.89295,3.86877 -0.21721,5.97265 -0.65427,-1.76665 -1.89715,-3.13504 -3.72871,-4.03921 -1.38265,-0.48697 -2.45286,-0.38204 -3.3885,0.73553 0,0 -5.51253,0 -5.51253,0 -0.51771,-0.66912 0.18628,-1.27703 1.57288,-3.23076 z"
         id="path3449"
         style="fill:#d40000;stroke:#003d8f;stroke-width:0.23882319" />
      <path
         d="m 224.12302,107.95314 c 0.075,-0.43188 0.30293,-0.80182 0.52858,-1.12798 3.09668,-0.43171 6.21267,-0.24429 9.4469,0.6619 3.28832,0.86845 5.07587,2.53111 5.52024,4.96232 0.39263,2.42517 -0.20169,3.80983 -1.88644,4.14194 -0.86324,-2.39196 -2.39618,-3.90139 -4.73348,-4.07737 -1.91783,-0.14439 -3.13491,-0.47393 -2.67276,0.63749 l -3.97939,0 c -0.22586,-1.00079 -1.39718,-0.91145 -1.85623,-2.01851 -0.6198,-1.08575 -0.67966,-2.20281 -0.36742,-3.17979 z"
         id="path3447"
         style="fill:#d40000;stroke:#003d8f;stroke-width:0.23882319" />
    </g>
  </g>
  <path
     d="m 249.55062,1.4395041 -248.101051,0 0,173.4965959 c -0.76723996,93.72088 80.28944,127.81975 124.050531,127.81975 42.99385,0 124.81775,-34.09887 124.05052,-127.81975 l 0,-173.4965959 z"
     id="Frame"
     style="fill:none;stroke:#000000;stroke-width:1.88832211;stroke-linejoin:bevel" />
  <metadata
     id="metadata3141">
    <rdf:RDF>
      <cc:Work
         rdf:about="">
        <dc:title></dc:title>
      </cc:Work>
    </rdf:RDF>
  </metadata>
</svg>
