<?xml version="1.0" encoding="UTF-8" standalone="no"?>
<!-- Created with Inkscape (http://www.inkscape.org/) -->
<svg
   xmlns:ns="http://creativecommons.org/ns#"
   xmlns:dc="http://purl.org/dc/elements/1.1/"
   xmlns:cc="http://web.resource.org/cc/"
   xmlns:rdf="http://www.w3.org/1999/02/22-rdf-syntax-ns#"
   xmlns:svg="http://www.w3.org/2000/svg"
   xmlns="http://www.w3.org/2000/svg"
   xmlns:xlink="http://www.w3.org/1999/xlink"
   xmlns:sodipodi="http://sodipodi.sourceforge.net/DTD/sodipodi-0.dtd"
   xmlns:inkscape="http://www.inkscape.org/namespaces/inkscape"
   version="1.0"
   width="346.24551"
   height="420.10452"
   id="svg4166"
   sodipodi:version="0.32"
   inkscape:version="0.45.1"
   sodipodi:docname="Stockholm_län_vapen_b_ram.svg"
   inkscape:output_extension="org.inkscape.output.svg.inkscape"
   sodipodi:docbase="C:\Users\Patrik\Pictures\Wikipedia">
  <title
     id="title36939">Coat of Arms of Stockholm</title>
  <metadata
     id="metadata2485">
    <rdf:RDF>
      <ns:Work
         rdf:about="">
        <dc:format>image/svg+xml</dc:format>
        <dc:type
           rdf:resource="http://purl.org/dc/dcmitype/StillImage" />
        <ns:license
           rdf:resource="http://creativecommons.org/licenses/publicdomain/" />
        <dc:title>Coat of Arms of Stockholm</dc:title>
        <dc:creator>
          <ns:Agent>
            <dc:title>Koyos</dc:title>
          </ns:Agent>
        </dc:creator>
      </ns:Work>
      <ns:License
         rdf:about="http://creativecommons.org/licenses/publicdomain/">
        <ns:permits
           rdf:resource="http://creativecommons.org/ns#Reproduction" />
        <ns:permits
           rdf:resource="http://creativecommons.org/ns#Distribution" />
        <ns:permits
           rdf:resource="http://creativecommons.org/ns#DerivativeWorks" />
      </ns:License>
      <cc:Work
         rdf:about="">
        <dc:format>image/svg+xml</dc:format>
        <dc:type
           rdf:resource="http://purl.org/dc/dcmitype/StillImage" />
      </cc:Work>
    </rdf:RDF>
  </metadata>
  <sodipodi:namedview
     inkscape:window-height="699"
     inkscape:window-width="1118"
     inkscape:pageshadow="2"
     inkscape:pageopacity="0.0"
     guidetolerance="10.0"
     gridtolerance="10.0"
     objecttolerance="10.0"
     borderopacity="1.0"
     bordercolor="#666666"
     pagecolor="#ffffff"
     id="Sankt Erik"
     showgrid="false"
     inkscape:zoom="0.70710678"
     inkscape:cx="35.926226"
     inkscape:cy="113.88454"
     inkscape:window-x="94"
     inkscape:window-y="103"
     inkscape:current-layer="svg4166"
     showguides="false"
     inkscape:guide-bbox="true"
     inkscape:window-maximized="1"
     inkscape:showpageshadow="false">
    <inkscape:grid
       type="xygrid"
       id="grid13797"
       visible="true"
       enabled="true"
       empspacing="5"
       snapvisiblegridlinesonly="true" />
    <sodipodi:guide
       orientation="1,0"
       position="175.07174,100.76804"
       id="guide3422" />
    <sodipodi:guide
       orientation="1,0"
       position="287.03623,173.03603"
       id="guide3424" />
    <sodipodi:guide
       orientation="1,0"
       position="58.526891,28.500051"
       id="guide3426" />
  </sodipodi:namedview>
  <defs
     id="defs4168">
    <inkscape:perspective
       sodipodi:type="inkscape:persp3d"
       inkscape:vp_x="0 : 380 : 1"
       inkscape:vp_y="0 : 1000 : 0"
       inkscape:vp_z="620 : 380 : 1"
       inkscape:persp3d-origin="310 : 253.33333 : 1"
       id="perspective3008" />
    <inkscape:perspective
       id="perspective3398"
       inkscape:persp3d-origin="0.5 : 0.33333333 : 1"
       inkscape:vp_z="1 : 0.5 : 1"
       inkscape:vp_y="0 : 1000 : 0"
       inkscape:vp_x="0 : 0.5 : 1"
       sodipodi:type="inkscape:persp3d" />
    <inkscape:perspective
       id="perspective4238"
       inkscape:persp3d-origin="0.5 : 0.33333333 : 1"
       inkscape:vp_z="1 : 0.5 : 1"
       inkscape:vp_y="0 : 1000 : 0"
       inkscape:vp_x="0 : 0.5 : 1"
       sodipodi:type="inkscape:persp3d" />
    <inkscape:perspective
       id="perspective4351"
       inkscape:persp3d-origin="0.5 : 0.33333333 : 1"
       inkscape:vp_z="1 : 0.5 : 1"
       inkscape:vp_y="0 : 1000 : 0"
       inkscape:vp_x="0 : 0.5 : 1"
       sodipodi:type="inkscape:persp3d" />
    <inkscape:perspective
       id="perspective4619"
       inkscape:persp3d-origin="0.5 : 0.33333333 : 1"
       inkscape:vp_z="1 : 0.5 : 1"
       inkscape:vp_y="0 : 1000 : 0"
       inkscape:vp_x="0 : 0.5 : 1"
       sodipodi:type="inkscape:persp3d" />
    <inkscape:perspective
       id="perspective4619-1"
       inkscape:persp3d-origin="0.5 : 0.33333333 : 1"
       inkscape:vp_z="1 : 0.5 : 1"
       inkscape:vp_y="0 : 1000 : 0"
       inkscape:vp_x="0 : 0.5 : 1"
       sodipodi:type="inkscape:persp3d" />
    <inkscape:perspective
       id="perspective5199"
       inkscape:persp3d-origin="0.5 : 0.33333333 : 1"
       inkscape:vp_z="1 : 0.5 : 1"
       inkscape:vp_y="0 : 1000 : 0"
       inkscape:vp_x="0 : 0.5 : 1"
       sodipodi:type="inkscape:persp3d" />
    <inkscape:perspective
       id="perspective5269"
       inkscape:persp3d-origin="0.5 : 0.33333333 : 1"
       inkscape:vp_z="1 : 0.5 : 1"
       inkscape:vp_y="0 : 1000 : 0"
       inkscape:vp_x="0 : 0.5 : 1"
       sodipodi:type="inkscape:persp3d" />
    <inkscape:perspective
       id="perspective5365"
       inkscape:persp3d-origin="0.5 : 0.33333333 : 1"
       inkscape:vp_z="1 : 0.5 : 1"
       inkscape:vp_y="0 : 1000 : 0"
       inkscape:vp_x="0 : 0.5 : 1"
       sodipodi:type="inkscape:persp3d" />
  </defs>
  <g
     id="g3796"
     transform="translate(0.5132304,-0.40087)">
    <path
       id="path4255"
       d="M 175.4375,0.90625 L 286.9375,382.4375 C 347.26613,365.31964 345.21875,315.40625 345.21875,315.40625 L 345.21875,0.90625 L 175.4375,0.90625 z "
       style="fill:#d40000" />
    <path
       id="path4253"
       d="M 174.6875,0.90625 L 58.59375,382.53125 C 73.666112,386.78307 87.341641,389.38224 99.65625,391.34375 C 111.98355,393.30729 122.94151,394.63041 132.59375,396.375 C 144.64117,398.5525 154.65263,401.36993 162.6875,406.84375 C 164.29567,407.93889 165.8297,409.11318 167.28125,410.4375 C 167.28674,410.44251 167.27576,410.46374 167.28125,410.46875 C 170.18168,413.11666 172.77924,416.24295 175.0625,420 C 176.40594,418.10388 177.77335,416.37945 179.1875,414.78125 C 180.60165,413.18305 182.06678,411.70809 183.5625,410.375 C 204.49843,391.71217 233.964,397.42338 286.84375,382.46875 C 286.87714,382.45931 286.90414,382.44696 286.9375,382.4375 L 175.4375,0.90625 L 174.6875,0.90625 z "
       style="fill:#ffcd50;fill-opacity:1" />
    <path
       id="Shield"
       d="M 0,0.90625 L 0,315.40625 C 0,315.40625 -2.0237497,365.37675 58.40625,382.46875 C 58.47309,382.48766 58.526965,382.51241 58.59375,382.53125 L 174.6875,0.90625 L 0,0.90625 z "
       style="fill:#003d8f" />
    <g
       transform="matrix(0.25,0,0,0.25,-12.039719,29.909723)"
       id="g3412">
      <path
         style="fill:#ffcd50;fill-opacity:1;fill-rule:evenodd;stroke:none"
         d="M 308.87518,52.624997 C 293.00617,60.648675 291.91008,90.022404 288.16042,97.153082 C 267.68992,77.802961 236.83989,103.42955 247.27415,127.30983 C 254.72034,151.36994 290.45697,136.77237 295.62518,137.31189 C 291.93939,167.01445 246.72437,173.24093 230.36771,151.11785 C 234.37494,141.96358 226.9774,117.99271 209.54067,122.84581 C 199.20093,135.03644 211.90536,149.69551 214.65827,156.36154 C 219.97515,185.22229 170.87729,180.65914 173.39068,170.5865 C 196.57344,172.96672 202.80009,135.9796 181.07151,129.20542 C 162.89184,121.8807 155.24809,150.093 140.27711,131.12915 C 127.80064,126.60452 112.09776,100.18293 124.97274,125.03393 C 136.72196,148.12897 145.41954,175.68058 167.90643,190.625 C 174.95823,211.89285 193.88689,232.81934 170.45329,245.29995 C 140.08545,275.6391 124.92102,324.35365 145.16247,364.29782 C 158.19136,395.63675 193.5805,415.25877 196.47813,450.9444 C 195.8077,478.83865 158.34456,456.26464 160.54735,459.25495 C 156.21688,481.70936 183.71787,502.49834 195.06854,513.00356 C 210.12302,520.01159 224.83423,490.73031 220.18964,516.42711 C 219.37511,538.47828 226.56255,566.10226 205.9236,581.55726 C 201.25994,587.34707 215.31873,595.71483 218.63713,602.60372 C 224.74954,607.60473 227.68745,619.27951 236.22245,619.1875 C 286.84624,619.1875 337.47004,619.1875 388.09383,619.1875 C 397.77091,607.30208 407.448,595.41667 417.12508,583.53125 C 394.66683,567.84497 397.68188,538.81289 398.79472,514.9527 C 393.65625,489.53213 419.24753,526.89055 431.62508,510.375 C 440.09029,500.6969 441.24024,492.26093 454.45938,487.14351 C 463.9192,474.4164 461.4854,444.11088 443.28514,464.36636 C 410.83199,469.67354 423.43418,423.50948 440.61836,412.20422 C 464.80105,384.22739 490.44815,349.78812 482.36988,310.44174 C 478.03704,281.18823 461.6342,254.44152 439.15633,235.53125 C 434.67344,215.3056 451.23898,191.06089 467.59311,177.71418 C 481.36125,157.27526 491.51021,134.58805 500.03133,111.53125 C 486.30406,121.69809 468.63794,149.86964 454.99399,129.49143 C 435.87085,119.11355 415.2412,146.78328 430.50028,162.43388 C 435.97456,175.55774 464.58854,166.70353 442.43696,176.29116 C 420.61581,193.35481 390.12302,157.9962 414.95861,145.72903 C 419.72269,125.97776 398.96873,113.12162 389.92789,135.21247 C 384.12533,146.98098 397.90098,157.29106 378.84876,162.48547 C 358.94198,169.28381 327.22827,162.20152 323.96532,137.6429 C 328.19651,135.36202 363.7328,152.18954 370.07437,128.30201 C 383.4773,104.13891 349.38799,79.121212 329.07859,96.923385 C 324.23708,90.826581 324.9632,61.008626 308.87518,52.624997 L 308.87518,52.624997 z "
         id="Figurbakgrund"
         sodipodi:nodetypes="cccccccccccccccccccccccccccccccccccccccccc" />
      <path
         style="fill:#000000;fill-opacity:1;fill-rule:evenodd;stroke:none;stroke-width:7.58999968;marker:none;visibility:visible;display:inline;overflow:visible;enable-background:accumulate"
         d="M 310.59393,46.5625 L 308.78143,47.375 C 304.60718,49.237494 301.44397,52.878798 298.68768,57.1875 C 295.93139,61.496202 293.62792,66.595807 291.81268,71.75 C 289.99744,76.904193 288.686,82.091373 288.00018,86.65625 C 287.8278,87.803629 287.79347,88.763361 287.68768,89.8125 C 283.23003,87.348555 278.62123,85.664331 273.96893,85.15625 C 267.01833,84.39717 259.98683,86.241134 254.18768,91.0625 C 247.92944,96.265545 243.98832,104.8614 243.31268,113.75 C 242.63704,122.6386 245.61481,132.22748 254.12518,137.78125 C 263.50932,143.90522 272.26862,145.25542 279.90643,143.78125 C 284.46537,142.90133 288.47224,141.04873 292.28143,138.96875 C 290.47242,145.02722 287.52109,149.22224 283.59393,152.15625 C 278.13186,156.237 270.44926,158.1178 261.21893,158.40625 C 252.04997,158.69278 247.00982,157.13415 243.03143,154.59375 C 239.88114,152.58214 237.12366,149.54028 234.00018,146.0625 C 235.80964,143.76258 237.04084,140.8486 236.96893,137.46875 C 236.85958,132.32899 233.8787,126.79346 227.46893,121.875 C 223.5897,118.89832 220.34777,117.05694 217.18768,116.3125 C 214.02759,115.56806 210.68385,116.2825 208.50018,118.1875 C 204.13284,121.99742 203.63576,127.79486 202.84393,133.5625 C 202.21946,138.11108 201.85166,142.62201 203.75018,146.75 C 205.19524,149.89202 208.26958,152.21119 212.28143,153.21875 C 211.89499,157.78209 211.25788,161.82721 209.84393,164.71875 C 208.06827,168.34999 205.47299,170.83502 199.78143,172.5625 C 194.90745,174.04183 192.18618,174.27655 188.59393,173.28125 C 187.24577,172.90771 185.52473,172.09156 183.78143,171.25 C 189.4907,169.29043 193.94117,165.35942 196.59393,160.5625 C 201.09793,152.41802 201.31263,142.07403 196.34393,134.34375 C 189.43638,123.59701 178.64523,121.17094 170.09393,123.21875 C 165.81828,124.24266 162.01054,126.24656 159.00018,128.65625 C 157.51908,129.84182 156.2101,131.10255 155.15643,132.5 C 145.31931,126.14352 132.78791,122.37178 123.43768,107.71875 L 116.78143,111.375 C 122.91239,124.5066 130.56833,142.25486 139.09393,157.90625 C 147.25992,172.89746 155.85332,186.06256 166.40643,191.53125 C 176.41379,212.25432 176.23827,217.60771 180.31268,229.5 C 170.48126,239.1603 143.96996,264.19847 136.18768,299.21875 C 126.19464,344.18744 146.99987,376.56034 168.46893,401.09375 C 179.96671,414.23264 187.93276,426.46388 191.65643,436.3125 C 195.3801,446.16112 194.89375,452.85582 190.93768,457.03125 C 187.72722,460.41974 184.26259,461.0036 179.65643,459.84375 C 175.05027,458.6839 169.6489,455.33482 164.84393,450.8125 L 159.12518,445.4375 L 158.46893,453.28125 C 156.65981,475.29223 160.72953,485.68422 166.40643,491.09375 C 169.24488,493.79852 172.25992,495.07965 174.18768,495.96875 C 175.15156,496.4133 175.84459,496.78112 176.09393,496.96875 C 176.34327,497.15638 176.14573,496.98175 176.12513,496.90625 C 177.17009,500.73781 179.25943,505.34112 183.34388,509.0625 C 187.42833,512.78388 193.51833,515.40625 201.56263,515.40625 C 208.76305,515.40625 214.04309,512.99145 217.81263,510.3125 C 217.87133,516.78112 217.9726,528.92549 218.31263,547.96875 C 218.69937,569.62743 202.68763,578.4375 202.68763,578.4375 L 198.81263,580.65625 L 201.62513,584.125 L 230.65638,619.78125 L 231.78138,621.1875 L 233.59388,621.1875 L 389.53138,621.1875 L 391.34388,621.1875 L 392.46888,619.78125 L 421.50013,584.125 L 424.03138,581.03125 L 420.81263,578.6875 C 420.81263,578.6875 404.14104,566.26054 403.59388,546.5625 C 403.28274,535.67231 403.76646,525.41813 404.06263,509.6875 C 408.27013,512.59379 412.51431,514.57957 416.78138,515.375 C 423.16741,516.56542 429.47415,515.21071 435.03138,511.84375 C 441.18435,508.11585 444.31655,502.38269 444.62513,496.21875 C 447.35609,495.31423 449.77481,494.62553 452.18763,493.40625 C 455.30167,491.83262 458.10489,489.20857 461.03138,484.65625 C 467.56439,474.49376 464.16686,462.82163 462.81263,453.0625 L 461.84388,446.125 L 456.56263,450.71875 C 452.17575,454.52765 447.52224,457.54857 443.46888,459 C 439.41552,460.45143 436.32889,460.39433 433.87513,458.84375 C 430.52915,456.72937 427.93388,453.02739 427.71888,447.125 C 427.50388,441.22261 429.87018,432.95639 437.34388,422.5625 C 450.25288,404.6096 488.17493,369.46765 488.84388,327.3125 C 489.80119,267.9007 447.51354,234.26413 441.59388,229.8125 C 441.74724,228.99385 441.80036,228.09065 443.46888,223.03125 C 445.4818,216.92755 449.30907,206.8884 455.75013,192.59375 C 457.34552,192.32176 458.87936,191.67284 460.25013,190.8125 C 462.58448,189.34739 464.75212,187.25842 467.00013,184.6875 C 471.49614,179.54566 476.2039,172.38275 480.87513,164.15625 C 490.21758,147.70325 499.38511,127.09868 505.06263,111.03125 L 498.53138,107.375 C 494.4634,112.37478 487.83825,117.74824 481.31263,122.59375 C 476.23249,126.36594 471.58565,129.65337 467.71888,132.6875 C 462.9187,126.18265 456.00379,122.1725 448.62513,121.84375 C 439.89013,121.45457 430.88443,126.21748 425.43763,136 C 420.64453,144.60845 423.06016,155.29076 428.93763,162.96875 C 431.87073,166.80038 435.87301,169.99873 440.50013,171.75 C 438.29914,172.72215 436.13953,173.6262 434.34388,174.0625 C 429.74789,175.17923 426.31141,174.86729 422.31263,173.53125 C 417.30033,171.85658 414.84168,169.02225 413.06263,165.15625 C 411.71868,162.23575 410.99688,158.67608 410.37513,155.03125 C 412.80328,154.41123 415.21344,153.43353 417.15638,151.21875 C 420.19038,147.76026 421.12195,142.45003 419.84388,135.25 C 419.06581,130.86673 418.08518,127.15164 416.65638,124.0625 C 415.22758,120.97336 413.26809,118.28075 410.15638,117.0625 C 407.04467,115.84425 403.49366,116.6287 400.40638,118.53125 C 397.3191,120.4338 394.23487,123.4472 390.78138,127.71875 C 386.7119,132.7522 384.63864,137.59748 384.87513,142.25 C 385.02955,145.28796 386.40846,147.96749 388.43763,150.09375 C 384.15118,154.82949 379.38156,157.44186 374.50013,158.65625 C 368.71596,160.09522 362.83651,159.68515 358.31263,158.78125 C 350.40727,157.20171 343.37107,155.31312 338.31263,151.53125 C 334.7323,148.85447 331.93811,145.15614 330.21888,139.46875 C 336.40038,142.48568 342.7569,143.79141 348.53138,143.75 C 356.74973,143.6911 363.77918,141.34401 368.21888,137.46875 C 373.5806,132.7887 377.76386,124.55562 378.00013,115.28125 C 378.2364,106.00688 373.79044,95.690282 362.12513,89.125 C 354.68089,84.935357 347.00203,84.857916 340.62513,86.5 C 337.26602,87.364989 334.28385,88.678346 331.65638,90.09375 C 331.34321,84.376103 330.22055,77.830838 328.15638,71.3125 C 325.14073,61.789508 320.31699,52.421602 312.28138,47.59375 L 310.59388,46.5625 L 310.59393,46.5625 z M 310.18768,55.59375 C 314.68414,59.304003 318.54658,66.043009 320.93768,73.59375 C 323.64977,82.158143 324.59677,91.4716 324.06268,96.59375 L 323.15643,105.15625 L 330.09393,100.0625 C 333.05165,97.878022 337.54768,95.158342 342.53143,93.875 C 347.51518,92.591658 352.82065,92.606301 358.40643,95.75 C 367.96886,101.13177 370.58309,108.12784 370.40643,115.0625 C 370.22977,121.99716 366.52683,128.86265 363.21893,131.75 C 360.85279,133.81532 355.149,136.10835 348.46893,136.15625 C 341.78886,136.20415 334.16378,134.23831 327.21893,128.75 L 320.21893,123.25 L 321.09393,132.09375 C 322.28323,144.38447 327.02643,152.56685 333.75018,157.59375 C 340.47393,162.62065 348.66976,164.59174 356.81268,166.21875 C 362.12376,167.27994 369.06343,167.80345 376.31268,166 C 383.56193,164.19655 391.11066,159.94274 396.96893,151.84375 L 399.53143,148.28125 L 395.65643,146.25 C 393.36867,145.05832 392.53831,143.85475 392.43768,141.875 C 392.33705,139.89525 393.34007,136.64059 396.68768,132.5 C 399.8308,128.61233 402.49703,126.15741 404.37518,125 C 406.25333,123.84259 406.91644,123.9454 407.37518,124.125 C 407.83392,124.3046 408.79854,125.12493 409.78143,127.25 C 410.76432,129.37507 411.66411,132.5879 412.37518,136.59375 C 413.44112,142.59879 412.49132,145.05332 411.46893,146.21875 C 410.44654,147.38418 408.47623,148.04329 405.65643,148.3125 L 401.65643,148.6875 L 402.25018,152.65625 C 402.99015,157.49681 403.77971,163.11105 406.18768,168.34375 C 408.59565,173.57645 412.94746,178.39368 419.90643,180.71875 C 424.92222,182.39458 430.259,182.9017 436.15643,181.46875 C 442.05386,180.0358 448.48857,176.83975 456.62518,171.5 L 453.28143,164.75 C 445.8389,167.37785 439.3511,164.06836 434.96893,158.34375 C 430.58676,152.61914 429.18887,144.8489 432.06268,139.6875 C 436.34742,131.99207 442.39436,129.17521 448.28143,129.4375 C 454.1685,129.69979 460.05527,133.26146 463.53143,139.90625 L 465.81268,144.21875 L 469.43768,140.96875 C 472.70758,138.05604 479.15608,133.65347 485.84393,128.6875 C 487.86469,127.18701 489.86423,125.54155 491.87518,123.9375 C 486.7709,136.19632 480.56027,149.34858 474.28143,160.40625 C 469.75766,168.37307 465.2117,175.25965 461.31268,179.71875 C 459.36317,181.9483 457.55672,183.53536 456.21893,184.375 C 454.88114,185.21464 454.25606,185.17389 454.18768,185.15625 L 451.12518,184.375 L 449.78143,187.25 C 442.51811,203.16008 438.48893,213.86777 436.25018,220.65625 C 434.01143,227.44473 433.53143,230.59375 433.53143,230.59375 L 433.21893,232.90625 L 435.09393,234.25 C 435.09393,234.25 482.2118,267.50839 481.25018,327.1875 C 480.65385,364.76585 445.32602,398.46242 431.18768,418.125 C 423.04714,429.4463 419.82854,439.26256 420.12518,447.40625 C 420.42182,455.54994 424.42672,461.84651 429.81268,465.25 C 434.71142,468.34559 440.63702,468.08789 446.03143,466.15625 C 449.53031,464.90337 452.90297,462.82251 456.21893,460.46875 C 457.37336,468.27304 458.09163,475.21884 454.65643,480.5625 C 452.14266,484.4728 450.64939,485.69652 448.75018,486.65625 C 446.85097,487.61598 443.98045,488.26445 439.56268,489.9375 L 436.81268,490.96875 L 437.15643,493.90625 C 437.73303,498.93236 436.41052,502.12258 431.09393,505.34375 C 426.87552,507.89957 422.71804,508.75658 418.15643,507.90625 C 413.59482,507.05592 408.5158,504.36353 403.03143,499.1875 L 396.71893,493.21875 L 396.62523,501.90625 C 396.39409,523.41516 395.65389,533.56508 396.03148,546.78125 C 396.52962,564.71452 407.72042,577.17739 413.25023,582.25 L 387.75023,613.59375 L 235.37523,613.59375 L 210.00023,582.40625 C 215.68922,577.71584 226.24052,566.52013 225.90648,547.8125 C 225.48661,524.29807 225.28148,501.3125 225.28148,501.3125 L 218.15648,499.5625 C 218.15648,499.5625 214.27801,507.8125 201.56273,507.8125 C 195.09967,507.8125 191.18486,505.91197 188.46898,503.4375 C 185.7531,500.96303 184.20618,497.72391 183.43773,494.90625 C 182.96379,493.16847 181.79293,491.76144 180.65648,490.90625 C 179.52003,490.05106 178.41546,489.54226 177.37523,489.0625 C 175.29477,488.10298 173.38365,487.26935 171.62523,485.59375 C 168.60165,482.71257 165.59853,476.26884 165.84398,461.375 C 169.64009,464.0558 173.64292,466.14539 177.78148,467.1875 C 184.25258,468.81695 191.36801,467.60084 196.43773,462.25 C 202.9978,455.32616 203.02507,444.84874 198.78148,433.625 C 194.53789,422.40126 186.06807,409.66981 174.18773,396.09375 C 153.26657,372.18646 134.24386,342.95053 143.59398,300.875 C 151.05422,267.3039 178.2024,242.32908 187.31273,233.21875 L 189.03148,231.5 L 188.18773,229.21875 C 183.306,215.96685 184.36949,210.95547 172.75023,187.15625 L 172.15643,185.9375 L 170.87518,185.375 C 163.42752,182.06267 154.0309,169.4831 145.75018,154.28125 C 141.21669,145.95861 136.97608,137.04371 132.96893,128.375 C 141.36647,134.32527 149.5327,137.36041 154.15643,141.09375 L 158.84393,144.875 L 160.21893,139.03125 C 160.40706,138.23828 161.62749,136.26164 163.75018,134.5625 C 165.87287,132.86336 168.7868,131.36459 171.87518,130.625 C 178.05195,129.14582 184.56279,130.10651 189.93768,138.46875 C 193.09873,143.38669 193.14068,151.17085 189.96888,156.90625 C 186.79713,162.64165 181.21339,166.48316 171.62513,164.59375 L 168.87513,171.53125 C 176.40469,176.23578 181.50019,179.1911 186.56263,180.59375 C 191.62507,181.9964 196.43134,181.52448 201.96888,179.84375 C 209.20522,177.64741 214.04948,173.36238 216.65638,168.03125 C 219.26328,162.70012 219.8781,156.65627 220.18763,150.15625 L 220.37513,146.28125 L 216.50013,146.18755 C 212.22635,146.07266 211.3895,145.15659 210.65638,143.56255 C 209.92326,141.96851 209.78537,138.66197 210.34388,134.5938 C 211.10017,129.085 212.621,124.67323 213.50013,123.9063 C 213.9397,123.52284 213.99608,123.3792 215.43763,123.7188 C 216.87918,124.0584 219.44053,125.29478 222.84388,127.9063 C 228.02419,131.88136 229.32473,135.25594 229.37513,137.62505 C 229.42553,139.99416 228.15793,141.82776 226.75013,142.7188 L 222.90638,145.1563 L 225.96888,148.50005 C 230.12253,153.04087 233.62324,157.55534 238.96888,160.9688 C 244.31452,164.38226 251.29468,166.28675 261.46888,165.9688 C 271.5817,165.65277 280.87224,163.63749 288.12513,158.2188 C 295.37802,152.80011 300.15005,144.04456 301.43763,131.81255 L 302.25013,123.9063 L 295.59388,128.2188 C 289.92591,131.87576 284.33906,135.17955 278.46888,136.31255 C 272.5987,137.44555 266.32225,136.70531 258.25013,131.43755 C 252.36532,127.59719 250.34957,121.22675 250.87513,114.31255 C 251.40069,107.39835 254.86089,100.37361 259.03138,96.9063 C 263.31097,93.34829 267.94654,92.121992 273.12513,92.68755 C 278.30372,93.253108 284.03251,95.763852 289.56263,100.00005 L 300.21888,108.18755 L 295.40638,95.62505 C 295.20451,95.100187 294.90244,91.759603 295.50008,87.7813 C 296.09777,83.802997 297.33646,79.004978 299.00008,74.2813 C 300.6637,69.557622 302.77526,64.905752 305.09383,61.2813 C 306.80404,58.607851 308.57513,56.831355 310.18758,55.5938 L 310.18768,55.59375 z "
         id="Figurkant" />
      <path
         style="fill:#000000;fill-opacity:1;fill-rule:evenodd;stroke:none;stroke-width:7.58999968;marker:none;visibility:visible;display:inline;overflow:visible;enable-background:accumulate"
         d="M 208.96893,274.53125 C 200.31065,277.78486 197.12553,287.15033 199.58083,295.59784 C 201.14618,317.30257 200.3529,339.3651 205.01066,360.72226 C 208.96114,367.69229 208.75629,375.87716 209.61178,383.69487 C 210.93495,402.20316 213.56485,420.5871 214.39017,439.12477 C 214.48377,446.1622 218.10292,452.51238 217.47898,459.56597 C 217.80083,474.57939 218.55942,489.61866 217.71893,504.625 C 220.71811,504.20141 225.04502,510.7865 225.50375,501.92446 C 225.35472,490.36132 225.31732,476.93045 225.21893,467.84375 C 229.03491,472.55 245.23957,470.96965 233.87573,460.26015 C 226.9552,452.66703 219.90818,443.45233 221.07577,432.54215 C 219.15538,411.03741 217.44036,389.51237 215.59393,368 C 220.21128,369.79583 224.16398,372.1183 225.714,377.02064 C 228.49689,382.22209 231.27979,387.42355 234.06268,392.625 C 230.62518,384.34375 227.18768,376.0625 223.75018,367.78125 C 217.28648,365.0258 209.62307,361.20186 210.13061,352.72842 C 208.20441,328.45468 206.26383,304.03093 207.66791,279.68149 C 207.92945,277.94302 207.95031,276.04825 208.96893,274.53125 L 208.96893,274.53125 z "
         id="Vänster"
         sodipodi:nodetypes="cccccccccccccccccc" />
      <path
         style="fill:#000000;fill-opacity:1;fill-rule:evenodd;stroke:none;stroke-width:7.58999968;marker:none;visibility:visible;display:inline;overflow:visible;enable-background:accumulate"
         d="M 423.06268,279.09375 C 414.478,281.99359 416.84481,287.68007 415.32706,300.60872 C 414.13136,314.24726 414.78908,328.2145 411.63141,341.57562 C 408.62946,348.99892 408.34335,359.23704 400.03636,362.97374 C 395.3178,364.1615 392.93161,367.27588 391.76853,371.75938 C 387.752,381.55834 383.73546,391.35729 379.71893,401.15625 C 386.0106,391.75 392.30226,382.34375 398.59393,372.9375 C 406.67964,367.27625 401.37813,382.36981 401.8936,385.92279 C 400.19425,404.76959 399.78287,423.87721 395.7454,442.40967 C 394.78697,446.41761 388.56275,451.14219 395.61793,450.86243 C 397.63873,454.72373 396.18598,459.41338 396.62518,463.64549 C 396.62518,476.51366 396.62518,489.38183 396.62518,502.25 C 398.8859,501.67181 403.48655,503.43355 404.21893,501.32702 C 404.21893,489.43677 404.21893,477.54651 404.21893,465.65625 C 406.97443,471.80454 416.6889,480.76912 419.33527,480.77978 C 410.6009,474.07894 406.23685,462.93729 405.30851,452.27044 C 404.79062,438.30694 410.51651,425.12028 414.80455,412.08038 C 423.17446,388.07742 434.88704,364.8556 438.15415,339.39623 C 438.80733,329.94636 437.48658,345.26889 436.25417,348.4311 C 431.99205,363.48369 422.03953,375.97235 413.31268,388.65625 C 420.55955,359.43885 428.75454,329.8112 427.83982,299.44238 C 427.4032,292.47698 426.32258,285.352 423.06268,279.09375 L 423.06268,279.09375 z "
         id="Höger"
         sodipodi:nodetypes="cccccccccccccccccccccc" />
      <path
         style="fill:#000000;fill-opacity:1;fill-rule:evenodd;stroke:none;stroke-width:7.58999968;marker:none;visibility:visible;display:inline;overflow:visible;enable-background:accumulate"
         d="M 296.93768,215.03125 C 250.48518,215.27428 206.15433,218.96977 180.87518,226.90625 L 183.15643,234.15625 C 192.33598,231.2743 204.71103,228.93406 219.12518,227.125 C 218.44936,246.98761 194.77119,286.91028 189.65643,300.0625 C 186.96569,306.98153 182.74366,326.42619 179.71893,345.59375 C 184.55452,322.27212 193.91462,292.48302 199.78143,292.71875 C 206.35999,292.98308 225.57634,255.60073 232.50018,232.09375 C 259.25347,229.95886 292.11562,228.5983 305.53143,228.9375 C 333.98273,229.66052 369.54826,232.02945 397.68768,234.34375 C 403.44076,256.10347 416.53126,285.00523 422.68768,287.1875 C 428.55079,289.2658 439.37633,319.12204 444.49475,344.08123 C 441.54866,324.00506 437.57815,309.07102 434.71893,301.71875 C 429.55655,288.44408 405.46476,249.13494 405.21893,229.46875 C 428.32671,231.6812 439.50018,237.78125 439.50018,237.78125 C 439.86338,238.04589 440.20901,238.3237 440.56268,238.59375 C 441.46536,238.28727 442.06268,238.125 442.06268,238.125 C 441.25524,235.35697 440.06819,232.53408 439.53143,230.375 C 438.49487,230.13835 437.40961,229.91991 436.28143,229.6875 L 436.87518,227.46875 C 406.54947,219.42316 356.0212,215.25886 306.25018,215.03125 C 303.13949,215.01705 300.03451,215.01505 296.93768,215.03125 z "
         id="Lockar"
         sodipodi:nodetypes="ccccscscccscscccccccsc" />
      <path
         style="fill:#000000;fill-opacity:1;fill-rule:evenodd;stroke:none"
         d="M 399.00018,262.90625 C 392.31065,265.8863 375.21571,264.65409 357.43768,264.96875 C 340.96857,265.26024 328.22451,271.69701 321.43768,278.84375 C 313.01481,287.71328 311.76385,298.60223 311.68768,310.03125 C 311.53361,333.15478 312.70611,357.21417 313.65643,362.53125 C 314.43523,366.88871 318.62626,372.33261 312.93768,379.0625 C 305.27051,388.13316 298.82643,379.667 293.59393,383.8125 C 288.43272,387.9015 285.72352,387.94916 281.28143,385.84375 C 284.17537,389.32771 289.36576,393.01442 294.84393,391.9375 C 298.85068,391.14984 303.8579,399.948 309.68768,400.09375 C 315.51745,400.23949 318.20746,392.23433 323.00018,392.96875 C 331.54847,394.27865 338.68768,385.8125 338.68768,385.8125 C 338.68768,385.8125 330.88581,387.60384 327.78143,384.59375 C 323.29633,380.24488 324.80673,378.10654 324.53143,372.78125 C 323.25338,348.05992 318.89685,353.18579 320.18768,319.40625 C 321.12425,294.72254 324.04288,291.84374 329.37518,285.75 C 334.6236,279.75212 344.64227,277.29194 351.46893,276.75 C 361.20779,275.97688 380.77521,278.64361 387.62518,275 C 394.47517,271.35639 397.15444,266.08362 399.00018,262.90625 z M 232.50018,263.28125 C 242.42011,272.30066 246.1227,268.14275 256.25018,271.5625 C 267.47248,275.35196 274.49303,281.20356 281.75018,290.8125 C 288.16227,299.30253 291.73964,310.27505 292.68768,319.96875 C 296.55061,308.96676 294.71571,290.67245 289.46893,283.09375 C 283.32211,274.21502 277.13458,270.59747 266.59393,267.34375 C 257.5695,264.55807 247.8436,268.01815 232.50018,263.28125 z M 249.00018,284.4375 C 241.78331,284.5194 238.44059,285.28752 233.56268,288.40625 C 229.05587,291.28772 228.29976,293.6257 225.56268,296.21875 C 230.14171,291.93179 236.4018,292.09507 239.78143,296.18755 C 242.28068,299.21393 241.53738,304.32551 239.40643,306.62505 C 236.19256,310.09318 231.96646,309.7857 229.40643,309.18755 C 233.48793,310.41888 242.37188,312.85085 248.28143,312.7188 C 256.5472,312.53409 261.86112,309.6376 264.71893,307.93755 C 268.85512,305.47705 271.93765,304.54975 278.00018,301.8438 C 269.82712,297.04009 268.95177,293.66231 264.68768,289.75005 C 260.11918,285.5585 254.98039,284.36904 249.00018,284.43755 L 249.00018,284.4375 z M 365.78143,284.4375 C 358.56456,284.5194 354.84684,285.63127 349.96893,288.75 C 345.46212,291.63147 344.73726,293.96945 342.00018,296.5625 C 346.57921,292.27554 352.80805,292.47007 356.18768,296.5625 C 358.68693,299.58888 357.95938,304.65494 355.84393,306.96875 C 352.66029,310.45089 348.36872,310.1342 345.81268,309.53125 C 349.89418,310.76258 358.80939,313.19455 364.71893,313.0625 C 372.98471,312.87779 378.26736,310.01255 381.12518,308.3125 C 385.26137,305.852 388.3439,304.89345 394.40643,302.1875 C 386.23337,297.38379 385.38927,294.00601 381.12518,290.09375 C 376.55667,285.9022 371.76164,284.36899 365.78143,284.4375 z M 227.21893,308.5 C 227.21893,308.5 228.04722,308.85621 229.28143,309.15625 C 228.05482,308.78354 227.21893,308.5 227.21893,308.5 z M 343.96893,308.96875 C 344.28775,309.09136 344.87563,309.29387 345.56268,309.46875 C 344.66181,309.19311 344.1551,309.03011 343.96893,308.96875 z M 300.34393,416.5 C 295.21574,416.5 292.94086,417.9303 287.81268,421.03125 C 282.68448,424.13221 276.26222,425.28043 269.56268,428.125 C 292.06261,426.89581 323.13322,427.13984 346.09393,428.125 C 338.08243,425.80749 333.30078,423.87482 328.56268,419.9375 C 325.53304,417.4199 321.73364,416.45925 317.43768,416.5 C 313.4088,416.5382 308.96893,419.125 308.96893,419.125 C 308.96893,419.125 305.47213,416.5 300.34393,416.5 z M 278.53143,438.875 C 277.69605,440.54771 287.32453,443.26712 293.18768,445.59375 C 299.69966,448.17789 304.58491,450.78125 309.46893,450.78125 C 314.35291,450.78125 319.48195,447.75288 323.56268,445.59375 C 328.44667,443.00963 339.51519,440.6934 338.78143,438.875 C 323.11858,440.68085 289.31633,440.01501 278.53143,438.875 z M 308.96893,470.53125 C 307.0934,474.90173 302.3049,474.71939 300.15643,478.875 C 307.56704,475.16672 310.81285,475.54427 319.31268,478.9687 C 314.94462,475.81017 315.56291,471.62253 308.96893,470.5312 L 308.96893,470.53125 z "
         id="Ansikte"
         sodipodi:nodetypes="csssssscssscsscsssccsscssccscsscsscscccscsscsscsccccccccsccsscccsssccccccc" />
      <path
         style="fill:#000000;fill-opacity:1;fill-rule:evenodd;stroke:none"
         d="M 310.31268,170.46875 C 309.6213,175.15797 309.70977,180.21628 308.54195,184.68001 C 305.37316,186.7355 305.12754,188.78439 308.45035,190.8252 C 309.76087,194.21309 309.36102,198.41433 310.01919,202.11244 C 310.31086,207.7253 310.60117,201.58935 310.89193,199.31756 C 311.57867,196.49454 310.74469,192.94859 312.38839,190.58051 C 316.03584,188.5457 314.58735,186.49925 311.82427,184.4498 C 311.19444,179.8535 310.83686,175.11309 310.31265,170.46875 L 310.31268,170.46875 z M 265.53143,173.84375 C 265.34237,178.31713 265.95151,183.06945 265.2669,187.36966 C 262.06043,189.78776 263.06147,191.74743 266.25013,193.46875 C 267.13555,197.70833 268.02096,201.94792 268.90638,206.1875 C 269.11327,201.77005 268.4972,197.0595 269.20563,192.82068 C 272.45495,190.42475 271.42475,188.46298 268.25013,186.71875 C 267.34392,182.4271 266.43754,178.13532 265.53143,173.84375 z M 354.93768,173.84375 C 353.81782,178.1795 353.42101,182.95589 351.85211,187.018 C 348.18781,188.71255 348.80304,190.84125 351.56268,193.1875 C 351.56268,197.52083 351.56268,201.85417 351.56268,206.1875 C 352.66834,201.9084 353.02636,197.17212 354.58733,193.17145 C 358.26702,191.50362 357.62466,189.3649 354.90643,187 C 354.91683,182.6146 354.92713,178.22907 354.93763,173.84375 L 354.93768,173.84375 z M 227.06268,178.59375 C 227.25253,182.96221 228.26904,187.6474 227.98601,191.83037 C 225.0398,194.43759 226.20465,196.24748 229.43763,197.65625 C 230.67721,201.71875 231.9168,205.78125 233.15638,209.84375 C 232.97278,205.51084 231.96767,200.96413 232.29776,196.76491 C 235.33244,194.12521 234.02967,192.32701 230.78138,190.90625 C 229.70458,186.92869 228.272,182.665 227.06268,178.59375 L 227.06268,178.59375 z M 393.40643,178.59375 C 391.95803,182.6857 391.03926,187.49888 389.29429,191.1696 C 385.55185,192.49448 385.90352,194.61366 388.43768,197.15625 C 388.06268,201.38542 387.68768,205.61458 387.31268,209.84375 C 388.76717,205.75488 389.54601,201.16759 391.42327,197.3906 C 395.16018,196.07956 394.66462,193.94764 392.21893,191.4375 C 392.67099,187.22075 393.00172,182.86006 393.40643,178.59375 z M 194.15643,186.65625 C 194.7128,190.89843 196.10729,195.37371 196.17619,199.47617 C 193.46299,202.30785 194.80357,203.97075 198.12513,205.0625 C 199.6668,208.91667 201.20846,212.77083 202.75013,216.625 C 202.22151,212.42218 200.82985,208.07681 200.82151,203.95992 C 203.50642,201.13292 202.16598,199.45898 198.87513,198.34375 C 197.30225,194.44793 195.72919,190.55199 194.15643,186.65625 L 194.15643,186.65625 z M 426.31268,186.65625 C 424.51967,190.55671 423.36833,195.02184 421.18106,198.57536 C 417.39289,199.54814 417.6859,201.68997 419.87518,204.375 C 419.15643,208.45833 418.43768,212.54167 417.71893,216.625 C 419.48631,212.77181 420.59033,208.33313 422.75823,204.83345 C 426.58034,203.88313 426.22592,201.73637 424.03143,199.0625 C 424.89291,195.0558 425.53742,190.76183 426.31268,186.65625 z "
         id="Krondetalj" />
      <path
         style="fill:#000000;fill-opacity:1;fill-rule:evenodd;stroke:none;stroke-width:1.64999998px;marker:none;visibility:visible;display:inline;overflow:visible;enable-background:accumulate"
         d="M 396.25018,444.125 C 382.70892,459.1448 368.7871,474.15566 351.73963,485.2854 C 346.64507,489.54267 339.89112,492.03381 336.3598,497.90885 C 328.13079,508.01301 314.75195,517.20529 301.23464,512.46435 C 291.92327,509.24409 284.75668,501.78936 279.34403,493.8437 C 263.92677,484.98505 249.542,474.48995 236.11281,462.85247 C 230.45205,459.04939 225.57827,452.74654 219.51045,450.25501 C 213.86608,454.72027 221.57432,462.39243 224.36022,466.83511 C 237.10325,482.05108 252.86592,494.89097 270.38281,504.22898 C 277.34614,506.07459 280.4444,513.04492 285.18584,517.85041 C 293.59663,527.52674 305.18573,537.42526 318.93778,535.53125 C 327.94039,534.78825 336.14456,530.21565 341.96427,523.40363 C 346.95538,517.71323 354.78116,516.27784 360.73995,511.86046 C 375.67283,502.37896 388.13801,489.62806 400.25028,476.875 C 399.17409,465.92854 397.6838,455.02863 396.25018,444.125 L 396.25018,444.125 z "
         id="Haka" />
    </g>
    <path
       id="Orb"
       style="fill:#ffcd50;fill-opacity:1;stroke:#000000;stroke-opacity:1"
       d="M 314.77889,144.15327 C 314.78089,162.76521 299.69377,177.85434 281.08184,177.85434 C 262.4699,177.85434 247.38257,162.76521 247.38478,144.15327 C 247.38278,125.54133 262.4699,110.4522 281.08184,110.4522 C 299.69377,110.4522 314.78111,125.54133 314.77889,144.15327 L 314.77889,144.15327 L 314.77889,144.15327 z " />
    <path
       d="M 271.73058,112.18322 L 271.73058,137.92118 L 246.54157,137.96818 C 245.99574,137.96818 245.55345,138.6211 245.55345,139.42682 C 245.55345,140.23255 245.99574,140.88546 246.54157,140.88546 L 274.69491,140.83846 L 274.69491,137.92118 L 274.64791,137.92118 L 274.64791,112.18322 C 274.02899,111.98845 272.35106,112.03045 271.73062,112.18322 L 271.73058,112.18322 z "
       style="fill:#ffcd50;fill-opacity:1;stroke:#000000;stroke-width:0.35132864;stroke-linecap:round;stroke-opacity:1"
       id="rect1875" />
    <rect
       width="68.571701"
       height="2.916919"
       rx="1.8943729"
       ry="2.9388974"
       x="246.79597"
       y="153.2778"
       style="fill:#ffcd50;fill-opacity:1;stroke:#000000;stroke-width:0.35132864;stroke-linecap:round;stroke-opacity:1"
       id="use2762" />
    <use
       transform="matrix(-1,0,0,1,562.16366,7.6583574e-6)"
       id="use2784"
       x="0"
       y="0"
       width="280"
       height="332"
       xlink:href="#rect1875" />
    <rect
       width="11.049062"
       height="6.8620028"
       rx="1.7490116"
       ry="1.086221"
       x="275.98718"
       y="143.65269"
       style="fill:#225500;fill-opacity:1;stroke:#001900;stroke-width:0.2;stroke-linecap:square;stroke-miterlimit:4;stroke-dasharray:none;stroke-opacity:1"
       id="rect2788" />
    <rect
       width="5.6054544"
       height="2.9887102"
       rx="0.88731557"
       ry="0.47309798"
       x="266.07578"
       y="143.05463"
       style="fill:#003d8f;fill-opacity:1;stroke:#000020;stroke-width:0.2;stroke-linecap:square;stroke-miterlimit:4;stroke-dasharray:none;stroke-opacity:1"
       id="use2792" />
    <use
       style="stroke:#000020;stroke-width:0.2;stroke-linecap:square;stroke-miterlimit:4;stroke-dasharray:none;stroke-opacity:1"
       transform="translate(0,5.0694567)"
       id="use2796"
       x="0"
       y="0"
       width="280"
       height="332"
       xlink:href="#use2792" />
    <use
       transform="translate(25.094904,0)"
       style="stroke:#000020;stroke-width:0.2;stroke-linecap:square;stroke-miterlimit:4;stroke-dasharray:none;stroke-opacity:1"
       id="use2798"
       x="0"
       y="0"
       width="280"
       height="332"
       xlink:href="#use2792" />
    <use
       style="stroke:#000020;stroke-width:0.2;stroke-linecap:square;stroke-miterlimit:4;stroke-dasharray:none;stroke-opacity:1"
       transform="translate(25.094904,5.0694567)"
       id="use2800"
       x="0"
       y="0"
       width="280"
       height="332"
       xlink:href="#use2792" />
    <use
       style="stroke:#000020;stroke-width:0.2;stroke-linecap:square;stroke-miterlimit:4;stroke-dasharray:none;stroke-opacity:1"
       transform="matrix(0,1,-1,0,423.03315,-131.44841)"
       id="use2802"
       x="0"
       y="0"
       width="280"
       height="332"
       xlink:href="#use2792" />
    <use
       style="stroke:#000020;stroke-width:0.2;stroke-linecap:square;stroke-miterlimit:4;stroke-dasharray:none;stroke-opacity:1"
       transform="translate(5.1952775,0)"
       id="use2804"
       x="0"
       y="0"
       width="280"
       height="332"
       xlink:href="#use2802" />
    <use
       style="stroke:#000020;stroke-width:0.2;stroke-linecap:square;stroke-miterlimit:4;stroke-dasharray:none;stroke-opacity:1"
       transform="translate(0,-21.732187)"
       id="use2806"
       x="0"
       y="0"
       width="280"
       height="332"
       xlink:href="#use2802" />
    <use
       style="stroke:#000020;stroke-width:0.2;stroke-linecap:square;stroke-miterlimit:4;stroke-dasharray:none;stroke-opacity:1"
       transform="translate(5.1952775,-21.732187)"
       id="use2808"
       x="0"
       y="0"
       width="280"
       height="332"
       xlink:href="#use2802" />
    <path
       d="M 284.67433,126.19282 C 284.67533,128.86789 283.06689,131.03744 281.08183,131.03744 C 279.09677,131.03744 277.48796,128.86789 277.48933,126.19282 C 277.48833,123.51776 279.09677,121.34821 281.08183,121.34821 C 283.06689,121.34821 284.6757,123.51776 284.67433,126.19282 L 284.67433,126.19282 z "
       style="fill:#d40000;fill-opacity:1;stroke:#000000;stroke-width:0.21600001;stroke-linecap:round;stroke-miterlimit:4;stroke-dasharray:none;stroke-opacity:1"
       id="path2810" />
    <use
       style="fill:#d40000;fill-opacity:1;stroke:#000000;stroke-opacity:1"
       transform="matrix(0,-1,1,0,131.75417,428.16556)"
       id="use2812"
       x="0"
       y="0"
       width="280"
       height="332"
       xlink:href="#path2810" />
    <use
       transform="translate(48.182216,-3.629874e-6)"
       id="use2814"
       x="0"
       y="0"
       width="280"
       height="332"
       xlink:href="#use2812" />
    <path
       d="M 246.70124,143.05462 L 249.60419,143.05462 C 249.85091,143.05462 250.04953,143.16052 250.04953,143.29207 L 250.04953,145.80588 C 250.04953,145.93743 249.85091,146.04333 249.60419,146.04333 L 246.70124,146.04333 C 246.45452,146.04333 246.2559,145.93743 246.2559,145.80588 L 246.2559,143.29207 C 246.2559,143.16052 246.45452,143.05462 246.70124,143.05462 z "
       style="fill:#003d8f;fill-opacity:1;stroke:#000020;stroke-width:0.2;stroke-linecap:square;stroke-miterlimit:4;stroke-dasharray:none;stroke-opacity:1"
       id="use2839" />
    <use
       style="stroke:#000020;stroke-width:0.2;stroke-linecap:square;stroke-miterlimit:4;stroke-dasharray:none;stroke-opacity:1"
       transform="translate(0.2007883,5.0694567)"
       id="use2844"
       x="0"
       y="0"
       width="280"
       height="332"
       xlink:href="#use2839" />
    <use
       style="stroke:#000020;stroke-width:0.2;stroke-linecap:square;stroke-miterlimit:4;stroke-dasharray:none;stroke-opacity:1"
       transform="translate(66.401166,0)"
       id="use2846"
       x="0"
       y="0"
       width="280"
       height="332"
       xlink:href="#use2839" />
    <use
       style="stroke:#000020;stroke-width:0.2;stroke-linecap:square;stroke-miterlimit:4;stroke-dasharray:none;stroke-opacity:1"
       transform="translate(66.200407,5.0694567)"
       id="use2848"
       x="0"
       y="0"
       width="280"
       height="332"
       xlink:href="#use2839" />
    <g
       transform="matrix(0.5018981,0,0,0.5018981,212.21514,31.54084)"
       style="fill:#f0aa18;stroke:#000000;stroke-width:0.9962182;stroke-miterlimit:4;stroke-dasharray:none;stroke-opacity:1"
       id="Korsarm-bas">
      <path
         d="M 146.21244,136.2452 C 146.21244,159.29858 150.73369,160.53237 137.35773,160.66297 C 122.51443,160.80933 128.50302,158.85764 128.50302,136.2452 C 128.50302,121.09707 127.64009,108.80293 137.35773,108.80293 C 145.02634,108.80293 146.21244,121.09707 146.21244,136.2452 z "
         style="fill:#ffcd50;fill-opacity:1;stroke:#000000;stroke-width:0.9962182;stroke-miterlimit:4;stroke-dasharray:none;stroke-opacity:1"
         id="path4629" />
      <path
         style="fill:#ffcd50;fill-opacity:1;stroke:#000000;stroke-width:0.9962182;stroke-miterlimit:4;stroke-dasharray:none;stroke-opacity:1"
         d="M 158.94794,160.46754 C 157.19163,158.27216 151.12566,160.87893 147.67832,151.686 C 146.6538,149.1979 147.67831,119.34072 147.67831,119.34072 C 147.67831,111.29099 141.02424,107.68847 137.87228,108.94925 C 141.67761,110.12012 147.45688,115.4436 142.70212,122.85333 C 141.39241,124.89435 129.82254,131.4885 132.74972,141.87997 C 132.88466,142.28478 134.33272,139.05685 136.19388,138.62232 C 138.05505,138.18779 140.32932,140.54667 142.11668,138.07464 C 134.88898,146.92522 136.44323,150.13701 141.38488,157.54035 C 141.84379,158.22786 144.31206,156.95492 144.75114,153.88139 C 144.75114,153.88139 147.18524,165.59719 158.94794,160.46754 L 158.94794,160.46754 z "
         id="use4627" />
      <path
         style="fill:#ffcd50;fill-opacity:1;stroke:#000000;stroke-width:0.9962182;stroke-miterlimit:4;stroke-dasharray:none;stroke-opacity:1"
         d="M 115.47706,160.46754 C 117.23337,158.27216 123.29934,160.87893 126.74668,151.686 C 127.7712,149.1979 126.74669,119.34072 126.74669,119.34072 C 126.74669,111.29099 133.40076,107.68847 136.55272,108.94925 C 132.74739,110.12012 126.96812,115.4436 131.72288,122.85333 C 133.03259,124.89435 144.60246,131.4885 141.67528,141.87997 C 141.40541,142.68958 135.88303,143.0187 132.30832,138.07464 C 139.53602,146.92522 137.98177,150.13701 133.04012,157.54035 C 132.58121,158.22786 130.11294,156.95492 129.67386,153.88139 C 129.67386,153.88139 127.23976,165.59719 115.47706,160.46754 z "
         id="path3739" />
    </g>
    <g
       transform="matrix(0.5018981,0,0,0.5018981,211.21138,31.54084)"
       style="fill:#f0aa18;stroke:#000000;stroke-width:0.9962182;stroke-miterlimit:4;stroke-dasharray:none;stroke-opacity:1"
       id="Korsarm">
      <path
         d="M 147.21238,65.949 C 147.21238,42.89562 151.73363,48.63732 138.35767,48.50672 C 123.51437,48.36036 129.50296,43.33656 129.50296,65.949 C 129.50296,81.09713 128.64003,93.39127 138.35767,93.39127 C 146.02628,93.39127 147.21238,81.09713 147.21238,65.949 L 147.21238,65.949 z "
         style="fill:#ffcd50;fill-opacity:1;stroke:#000000;stroke-width:0.9962182;stroke-miterlimit:4;stroke-dasharray:none;stroke-opacity:1"
         id="path5530" />
      <path
         d="M 144.60246,40.160633 C 144.60246,44.444714 141.12953,47.917648 136.84544,47.917648 C 132.56136,47.917648 129.08843,44.444714 129.08843,40.160633 C 129.08843,35.876552 132.56136,32.403618 136.84544,32.403618 C 141.12953,32.403618 144.60246,35.876552 144.60246,40.160633 z "
         transform="matrix(1.433962,0,0,1.433962,-58.01878,-18.15999)"
         style="fill:#ffffff;stroke:#000000;stroke-width:0.69473124;stroke-miterlimit:4;stroke-dasharray:none;stroke-opacity:1"
         id="path5526" />
      <path
         style="fill:#ffcd50;fill-opacity:1;stroke:#000000;stroke-width:0.9962182;stroke-miterlimit:4;stroke-dasharray:none;stroke-opacity:1"
         d="M 159.94788,41.72666 C 158.19157,43.92204 152.1256,41.31527 148.67826,50.5082 C 147.65374,52.9963 148.67825,82.85348 148.67825,82.85348 C 148.67825,90.90321 142.02418,94.50573 138.87222,93.24495 C 142.67755,92.07408 148.45682,86.7506 143.70206,79.34087 C 142.39235,77.29985 130.82248,70.7057 133.74966,60.31423 C 133.8846,59.90942 135.33266,63.13735 137.19382,63.57188 C 139.05499,64.00641 141.32926,61.64753 143.11662,64.11956 C 135.88892,55.26898 137.44317,52.05719 142.38482,44.65385 C 142.84373,43.96634 145.312,45.23928 145.75108,48.31281 C 145.75108,48.31281 148.18518,36.59701 159.94788,41.72666 L 159.94788,41.72666 z "
         id="path5532" />
      <path
         style="fill:#ffcd50;fill-opacity:1;stroke:#000000;stroke-width:0.9962182;stroke-miterlimit:4;stroke-dasharray:none;stroke-opacity:1"
         d="M 116.477,41.72666 C 118.23331,43.92204 124.29928,41.31527 127.74662,50.5082 C 128.77114,52.9963 127.74663,82.85348 127.74663,82.85348 C 127.74663,90.90321 134.4007,94.50573 137.55266,93.24495 C 133.74733,92.07408 127.96806,86.7506 132.72282,79.34087 C 134.03253,77.29985 145.6024,70.7057 142.67522,60.31423 C 142.40535,59.50462 136.88297,59.1755 133.30826,64.11956 C 140.53596,55.26898 138.98171,52.05719 134.04006,44.65385 C 133.58115,43.96634 131.11288,45.23928 130.6738,48.31281 C 130.6738,48.31281 128.2397,36.59701 116.477,41.72666 L 116.477,41.72666 z "
         id="path5534" />
    </g>
    <use
       transform="matrix(0,-1,1,0,198.34825,362.81163)"
       id="Korsarm-2"
       x="0"
       y="0"
       width="280"
       height="332"
       xlink:href="#Korsarm" />
    <use
       transform="matrix(0,1,-1,0,363.81542,-198.34825)"
       id="Korsarm-3"
       x="0"
       y="0"
       width="280"
       height="332"
       xlink:href="#Korsarm" />
    <path
       d="M 285.56272,82.231682 C 285.56372,84.707133 283.55728,86.714424 281.08183,86.714424 C 278.60638,86.714424 276.59992,84.707133 276.60094,82.231682 C 276.59994,79.756233 278.60638,77.748941 281.08183,77.748941 C 283.55728,77.748941 285.56374,79.756233 285.56272,82.231682 L 285.56272,82.231682 z "
       style="fill:#ffffff;stroke:#000000;stroke-width:0.60000002;stroke-miterlimit:4;stroke-dasharray:none;stroke-opacity:1"
       id="Kors-center" />
    <g
       transform="matrix(0.9877196,0,0,0.9877196,514.09787,-63.567622)"
       id="g5419">
      <g
         transform="matrix(0.6644681,-0.3050987,0.3473492,0.5836441,-486.269,308.97535)"
         style="fill:#000000"
         id="Avslitet-Griphuvud-7">
        <path
           d="M 130.11974,277.95264 C 133.90776,272.42965 136.47822,264.97444 137.20855,257.39269 C 137.82841,250.95777 137.30095,245.67239 133.6616,221.85012 C 132.48573,214.15316 133.15716,202.15207 135.13553,195.50546 C 136.49693,190.93166 136.13397,174.8302 134.66947,174.8302 C 134.23686,174.8302 132.57707,176.05519 130.98105,177.55241 C 129.38504,179.04962 126.49823,181.38824 124.56593,182.74935 C 121.17074,185.14091 119.70683,188.35787 115.10633,203.5371 C 114.82695,204.45889 115.28929,204.27121 116.32558,203.04215 C 117.99484,201.06236 117.99484,201.06236 117.4628,203.04215 C 115.71329,209.55221 115.30794,215.32213 115.98554,224.06991 C 116.80158,234.60473 117.85485,239.68647 120.85992,247.58733 C 125.3882,259.49293 127.39953,273.37927 125.55176,279.97995 C 124.49695,283.74802 126.86604,282.69659 130.11974,277.95264 L 130.11974,277.95264 z "
           id="path1955-4" />
        <path
           d="M 91.249225,273.57202 C 100.10575,266.78395 105.83679,253.79912 107.96078,235.70862 C 109.57841,221.93098 111.91703,207.37844 112.89218,205.02194 C 114.62953,200.82359 118.664,187.18326 118.28517,186.78852 C 117.48031,185.94988 107.40604,191.2572 103.98422,194.32256 C 99.868993,198.00908 93.084318,211.60752 90.241039,221.86784 C 87.875413,230.40448 87.05586,239.27133 86.857387,258.47615 C 86.772977,266.64277 86.323706,274.10409 85.858991,275.05686 C 84.558816,277.7225 86.549461,277.17414 91.249225,273.57202 L 91.249225,273.57202 z "
           id="path1953-0" />
        <path
           d="M 165.40719,273.97292 C 165.40719,273.51285 164.54518,272.35633 163.49162,271.40288 C 162.43806,270.44941 160.60032,267.59629 159.40777,265.06262 C 154.75738,255.18248 154.16057,251.46947 154.05318,231.74904 C 153.96988,216.44769 153.61972,211.97215 152.17522,207.74414 C 150.35405,202.41361 148.85896,200.57371 149.98086,205.04367 C 151.5456,211.27812 144.09985,207.94001 140.72223,200.89282 C 137.08676,193.30764 135.96844,194.43783 135.0268,206.64872 C 134.41219,214.61886 137.27813,237.27786 140.21114,247.63769 C 142.51086,255.76064 147.28768,263.51827 152.84728,268.15896 C 159.41067,273.63753 165.40719,276.41331 165.40719,273.97292 z "
           id="path1951-9" />
        <path
           d="M 54.757387,253.52669 C 57.305025,251.89336 60.839606,249.66611 62.612009,248.57722 C 64.384413,247.48834 67.286145,244.5929 69.06031,242.14292 C 74.3981,234.77182 77.564262,231.32958 82.487594,227.5448 C 86.105514,224.76355 87.546808,222.80162 88.811307,218.93675 C 89.71209,216.18357 91.567327,211.70371 92.934062,208.98151 C 94.613505,205.63646 95.366546,202.61 95.257123,199.64522 C 95.168063,197.23247 94.940704,195.10389 94.751862,194.91505 C 94.438868,194.60207 73.478856,205.17135 69.563532,207.61651 C 67.376938,208.98206 62.678471,219.9538 61.930527,225.44089 C 60.498301,235.94811 58.023489,242.71234 52.842202,250.28134 C 49.964453,254.48525 47.616496,258.71704 47.624524,259.68533 C 47.635444,261.00282 47.951931,260.8231 48.882212,258.9711 C 49.565912,257.61 52.209739,255.16001 54.757387,253.52669 L 54.757387,253.52669 z "
           id="path1949-4" />
        <path
           d="M 190.14689,251.19112 C 190.14289,250.84237 188.38117,249.55311 186.23238,248.32613 C 184.08359,247.09915 180.98431,244.1459 179.34509,241.76337 C 174.83168,235.20336 170.18377,219.54286 167.85293,203.04215 C 167.54531,200.86439 166.22593,195.51896 164.92099,191.16344 C 163.61605,186.80791 162.2541,181.58972 161.89445,179.56746 C 160.98684,174.46429 158.76711,172.73027 157.93592,176.47516 C 156.79439,181.61838 154.26807,189.14157 152.49707,192.67169 C 151.01182,195.6322 150.93397,196.60532 151.98229,199.10599 C 152.66161,200.72643 153.77355,205.17042 154.45327,208.98151 C 156.15868,218.54335 158.38748,224.59223 163.3961,233.25192 C 170.49907,245.53267 179.7353,253.04163 186.73309,252.22468 C 188.61487,252.005 190.15108,251.53989 190.14689,251.19112 L 190.14689,251.19112 z "
           id="path1947-8" />
        <path
           d="M 204.01301,231.27296 C 204.01301,230.73889 202.89662,230.02173 201.53214,229.67927 C 198.14331,228.82872 190.982,220.63356 187.85332,214.02567 C 186.43616,211.03259 183.67747,202.43688 181.72291,194.92411 C 176.59338,175.20767 176.17702,173.98316 173.90175,171.92247 C 172.76861,170.8962 169.27098,167.56698 166.12925,164.52422 C 162.98751,161.48146 160.08195,158.99192 159.67245,158.99192 C 158.38813,158.99192 160.00201,171.177 161.83575,175.32515 C 164.41119,181.15108 168.44451,195.07629 169.94382,203.31864 C 172.24206,215.95306 179.74166,226.15773 189.65957,230.1458 C 194.83328,232.2262 204.01301,232.94707 204.01301,231.27296 L 204.01301,231.27296 z "
           id="path1945-8" />
        <path
           d="M 52.70528,226.02559 C 55.173509,224.14301 58.33289,220.29256 60.218399,216.86908 C 64.924894,208.32362 70.954391,203.36113 82.690532,198.37375 C 92.450302,194.22623 92.888319,193.89605 104.52878,181.91211 C 111.06207,175.18603 117.66925,167.50013 119.2114,164.83234 C 122.15421,159.74152 121.8833,158.69037 118.45108,161.88234 C 114.23831,165.80023 101.62363,171.73611 96.114687,172.39281 C 92.955978,172.76934 87.284308,174.66299 82.605124,176.90335 C 70.117922,182.88214 63.585886,191.03625 57.304708,208.48656 C 53.8815,217.99688 50.569426,224.15743 47.483712,226.75389 C 44.891776,228.93486 44.754864,229.27431 46.467131,229.27431 C 47.555469,229.27431 50.362627,227.81239 52.70528,226.02559 L 52.70528,226.02559 z "
           id="path1943-2" />
        <path
           d="M 148.43195,201.21103 C 148.55783,198.77929 150.15812,193.07379 151.98815,188.53215 C 156.40041,177.58214 158.69813,170.59337 158.05014,161.13956 C 157.59594,154.51279 156.01725,147.87602 152.60048,141.06522 C 152.43096,140.7273 152.42444,143.28289 149.00825,148.47526 C 147.40097,150.91822 142.87523,153.67051 142.21934,153.70286 C 141.80597,153.72326 141.44207,152.11876 140.70238,150.30545 C 140.24385,149.18137 139.52535,153.69109 139.20323,156.51718 C 136.29362,182.04416 136.967,188.28271 140.31556,196.1129 C 142.4194,201.03246 146.47992,206.69735 147.46568,206.08812 C 147.87126,205.83746 148.30608,203.64277 148.43195,201.21103 z "
           id="path1941-4"
           sodipodi:nodetypes="csssssssssc" />
        <path
           d="M 98.094473,198.55464 C 98.094473,197.25381 104.63551,190.66849 105.92758,190.66849 C 106.46101,190.66849 109.70538,189.05611 113.1373,187.08543 C 132.78756,175.80185 136.66067,173.31512 138.00264,160.82456 C 138.37737,157.33672 139.89357,150.89598 140.07016,149.02253 C 140.17365,147.9246 138.29436,144.29489 138.05173,143.40179 C 137.40815,141.03281 136.78716,139.36968 136.49155,137.75119 C 136.2935,136.66686 135.51549,141.062 132.46091,146.88063 C 130.37246,150.85887 127.25496,154.01472 124.19119,157.22689 C 121.4748,160.07487 122.52296,161.58084 120.91054,164.7016 C 119.14367,168.12125 114.17012,174.30873 108.3928,180.27461 C 99.470353,189.48827 96.114687,194.34935 96.114687,198.06089 C 96.114687,198.89504 96.560139,199.57752 97.10458,199.57752 C 97.649021,199.57752 98.094473,199.11722 98.094473,198.55464 L 98.094473,198.55464 z "
           id="path1939-5"
           sodipodi:nodetypes="cssssssssssssc" />
        <path
           d="M 197.6864,180.25671 C 194.8863,180.50844 191.75663,178.84173 190.08517,177.24266 C 185.77509,173.11923 183.93028,169.74758 179.82846,158.49697 C 174.73052,144.51414 168.92809,136.19815 167.64493,134.00735 C 166.40213,131.88547 165.92309,130.42398 164.57603,125.81137 C 163.17412,121.01097 145.14586,115.57013 144.99292,115.72308 C 144.00113,116.71486 148.35802,131.86185 151.3005,137.65184 C 153.25334,141.49449 155.86205,146.66003 157.09762,149.13082 C 159.39209,153.71908 166.31817,162.30242 169.80537,164.87927 C 170.87184,165.66733 174.46244,169.00822 177.78448,172.30347 C 184.78262,179.24517 194.07348,182.1337 197.6864,180.25671 z "
           id="path1937-5"
           sodipodi:nodetypes="csssssssssc" />
        <path
           d="M 210.0356,166.27924 C 206.12684,166.68266 199.73919,163.61477 197.06271,160.30392 C 196.72129,159.88158 194.73912,158.34995 189.33935,150.12247 C 184.92251,143.39264 181.21321,138.5693 179.721,136.97769 C 178.78251,135.97669 176.3591,133.73692 173.03794,131.83727 C 166.47514,128.08343 155.74207,127.5051 156.56072,127.95701 C 160.83452,131.04694 163.46298,132.70255 167.67358,135.62892 C 169.06203,137.15582 171.86421,139.98494 173.46593,142.11868 C 175.06763,144.25243 177.71786,148.67513 179.3553,151.94689 C 182.44447,158.11939 188.84595,163.57269 195.0264,165.29683 C 199.03804,166.41596 207.81557,167.48962 210.0356,166.27924 L 210.0356,166.27924 z "
           id="path1933-7"
           sodipodi:nodetypes="cssssccsssc" />
        <path
           d="M 216.43484,148.74051 C 216.43484,148.19607 210.04824,145.93973 209.35962,145.93973 C 207.56085,145.93973 200.62338,142.13929 197.87559,139.64864 C 196.5874,138.48099 192.25933,133.47011 188.25766,128.51337 C 179.73414,117.95553 171.55234,111.39938 164.67326,109.61498 C 161.9799,108.91632 159.67863,108.45138 159.55933,108.58174 C 159.44004,108.71209 161.72095,113.75436 164.62804,119.78679 C 169.04924,128.96112 170.79856,131.51083 175.32465,135.3776 C 178.30072,137.92012 180.99161,140.00037 181.30444,140.00037 C 181.61727,140.00037 184.66438,141.36023 188.07581,143.02228 C 191.48724,144.68434 195.83749,146.4214 197.74304,146.88242 C 202.66485,148.07319 216.43484,149.91323 216.43484,148.74051 z "
           id="path1929-1"
           sodipodi:nodetypes="cssssssssssc" />
        <path
           d="M 111.54014,86.862598 C 111.11372,86.172643 111.03216,85.340806 111.3589,85.014062 C 112.24482,84.128148 113.21076,85.431104 112.73227,86.866597 C 112.39697,87.872497 112.1638,87.871715 111.54014,86.862597 L 111.54014,86.862598 z "
           style="fill:#f0aa18"
           id="Eye-2" />
        <path
           d="M 206.63244,122.42887 C 201.139,121.88326 194.04332,119.68459 187.84942,116.44646 C 186.33431,115.65437 181.35824,113.07857 177.19959,108.67543 C 172.38309,103.57577 165.42388,102.10033 164.09236,102.10033 C 160.99204,102.10033 162.53563,103.40714 167.58966,107.21659 C 170.09165,109.10247 170.96182,112.12861 173.81882,116.20969 C 176.5742,120.14562 179.15533,121.22918 182.07583,122.1565 C 188.91573,124.3283 197.14667,127.23291 206.63244,122.42887 L 206.63244,122.42887 z "
           id="path1919-6"
           sodipodi:nodetypes="cssssssc" />
      </g>
      <path
         style="fill:#000000;fill-opacity:1;fill-rule:evenodd;stroke:none"
         d="M -338.31968,294.80991 C -344.85094,294.91321 -344.97831,297.81955 -348.31817,300.36185 C -350.86179,302.29804 -351.60884,301.78868 -354.73944,306.04066 C -361.02868,305.75914 -375.74859,306.1977 -381.125,309.46875 C -386.86629,312.96184 -392.98969,315.93 -392.09375,323.3125 C -399.92645,325.51356 -410.54735,333.45556 -414.4375,340.71875 C -417.53332,348.44712 -415.25519,352.66293 -407.125,357.9375 C -408.57317,345.93501 -391.90741,341.88766 -380.875,344.6875 C -396.38698,348.09913 -403.10413,368.35976 -418.40625,369.625 C -401.70861,371.95933 -391.55985,356.15824 -380.45632,351.91943 C -383.72665,355.05746 -382.53157,354.18234 -388.96875,360 C -380.29339,365.13106 -372.54859,353.48283 -360.48983,351.71347 C -358.94357,351.54264 -358.12878,349.54703 -357.3125,348.4454 C -356.94976,353.0288 -357.64434,357.61528 -359.96462,361.29142 C -354.2211,360.25275 -348.73748,355.27677 -348.125,346.5625 C -345.14517,350.48113 -342.15353,351.78986 -338.3125,354.71875 C -334.70238,349.81917 -335.88348,345.31852 -337.8125,341.375 C -335.60467,341.2936 -335.90188,342.54804 -332.96513,342.44326 C -329.70006,344.28523 -323.36306,346.46361 -319.72492,344.6578 C -323.37155,342.62288 -330.83552,336.31626 -330.03125,335.00197 C -323.72212,334.42497 -315.84161,332.87278 -314.75824,328.74342 C -322.07981,330.14677 -329.25275,324.22427 -333.0625,320.25 C -332.51582,319.17506 -328.56899,318.21891 -324.4375,313.1875 C -319.38875,307.03903 -319.62189,304.36682 -319.15625,297.59375 C -327.22491,306.26467 -329.40343,300.6688 -341.46537,308.07493 C -338.49922,302.59164 -341.65624,302.11218 -338.31968,294.80991 L -338.31968,294.80991 z "
         id="path5109-2-7"
         sodipodi:nodetypes="cscsccccccccccccccccccsccc" />
      <path
         style="fill:#feed01;fill-opacity:1;fill-rule:evenodd;stroke:none"
         id="path3654-3-9"
         d="M -370.4493,325.41619 C -370.4185,325.40369 -370.3877,325.39109 -370.4493,325.41619 z " />
      <path
         style="fill:#d40000;fill-opacity:1;fill-rule:evenodd;stroke:none"
         id="path3646-2-5"
         d="M -363.9003,341.1602 C -373.33755,335.98973 -375.34418,326.79826 -381.1636,327.46865 C -386.92102,327.82336 -388.59005,327.55835 -390.87145,325.19004 C -402.68534,328.8181 -422.84298,344.74737 -408.71666,354.44981 C -409.22569,340.47045 -380.19036,338.94676 -373.55247,344.74129 C -368.50719,341.54817 -369.75299,341.83762 -363.9003,341.1602 L -363.9003,341.1602 z M -385.25443,358.69773 C -380.17643,361.87014 -373.71166,352.38033 -362.72501,350.50616 C -358.76076,350.58756 -358.86302,340.87 -367.26513,344.12812 C -370.76254,344.88355 -378.77466,352.6523 -385.25443,358.69773 z "
         sodipodi:nodetypes="cccccccccc" />
      <path
         style="fill:#ffcd50;fill-opacity:1;fill-rule:evenodd;stroke:none;stroke-width:1px;marker:none;visibility:visible;display:inline;overflow:visible;enable-background:accumulate"
         id="path2430-2-4"
         d="M -370.90846,323.85404 C -370.79991,330.02543 -362.98312,326.21783 -366.73135,322.64025 C -365.09028,322.42663 -363.95299,322.07005 -362.39823,322.58725 C -361.75598,324.7402 -363.03904,327.69573 -364.69084,328.54506 C -366.80145,330.15907 -373.99698,327.86412 -374.73944,326.48451 C -373.62038,325.18986 -373.01272,324.65163 -370.90846,323.85402 L -370.90846,323.85404 z "
         sodipodi:nodetypes="cccccc" />
      <path
         style="fill:#000000;fill-opacity:1;fill-rule:evenodd;stroke:none;stroke-width:1px;marker:none;visibility:visible;display:inline;overflow:visible;enable-background:accumulate"
         d="M -362.34732,374.98518 C -359.99314,371.09244 -357.44477,366.24003 -356.983,362.2115 C -349.42171,358.5867 -349.26621,352.03382 -347.97687,349.79933 C -345.40276,362.21061 -356.22758,373.60159 -362.34732,374.98518 z "
         id="path5048-6-4"
         sodipodi:nodetypes="cccc" />
    </g>
  </g>
  <path
     style="fill:none;stroke:#000000;stroke-width:3;stroke-miterlimit:4;stroke-dasharray:none;stroke-opacity:1"
     d="M 1.5079304,1.5 L 1.5079304,314.50722 C 1.5079204,314.50723 -0.50415958,364.24052 59.5776,381.2514 C 59.64404,381.27023 59.69762,381.29485 59.76403,381.3136 C 74.74951,385.54525 88.34625,388.13207 100.58989,390.08427 C 112.84614,392.0385 123.74097,393.35534 133.33758,395.09164 C 145.31557,397.25882 155.26934,400.06286 163.25791,405.5107 C 164.85681,406.60065 166.382,407.76936 167.82519,409.08739 C 167.83064,409.09239 167.81973,409.1135 167.82519,409.11849 C 170.7089,411.75385 173.29149,414.86528 175.56159,418.60451 C 176.89728,416.7174 178.25682,415.00114 179.66282,413.41052 C 181.06882,411.81992 182.52551,410.35195 184.01261,409.02519 C 204.82789,390.45096 234.12366,396.13504 286.69868,381.2514 C 286.73187,381.24201 286.75872,381.22971 286.79189,381.2203 C 346.77286,364.18369 344.73729,314.50722 344.73729,314.50722 L 344.73729,1.5 L 175.93444,1.5 L 175.18876,1.5 L 1.5079304,1.5 z "
     id="path3789" />
</svg>
