<?xml version="1.0" encoding="UTF-8" standalone="no"?>
<!--
************* Copyright (c) 2017 Pareto Softare, LLC DBA Simplemaps.com *******************		
************* Free for Commercial Use, full terms at  http://simplemaps.com/resources/svg-license ************
************* Attribution is appreciated! http://simplemaps.com ***************************
-->

<svg
   xmlns:dc="http://purl.org/dc/elements/1.1/"
   xmlns:cc="http://creativecommons.org/ns#"
   xmlns:rdf="http://www.w3.org/1999/02/22-rdf-syntax-ns#"
   xmlns:svg="http://www.w3.org/2000/svg"
   xmlns="http://www.w3.org/2000/svg"
   xmlns:sodipodi="http://sodipodi.sourceforge.net/DTD/sodipodi-0.dtd"
   xmlns:inkscape="http://www.inkscape.org/namespaces/inkscape"
   baseprofile="tiny"
   fill="#7c7c7c"
   height="2264"
   stroke="#ffffff"
   stroke-linecap="round"
   stroke-linejoin="round"
   stroke-width="2"
   version="1.2"
   viewbox="0 0 1000 2264"
   width="1000"
   id="svg3771"
   sodipodi:docname="sweden4.svg"
   inkscape:version="0.92.4 (5da689c313, 2019-01-14)">
  <metadata
     id="metadata3777">
    <rdf:RDF>
      <cc:Work
         rdf:about="">
        <dc:format>image/svg+xml</dc:format>
        <dc:type
           rdf:resource="http://purl.org/dc/dcmitype/StillImage" />
        <dc:title></dc:title>
      </cc:Work>
    </rdf:RDF>
  </metadata>
  <defs
     id="defs3775" />
  <sodipodi:namedview
     pagecolor="#ffffff"
     bordercolor="#666666"
     borderopacity="1"
     objecttolerance="10"
     gridtolerance="10"
     guidetolerance="10"
     inkscape:pageopacity="0"
     inkscape:pageshadow="2"
     inkscape:window-width="1920"
     inkscape:window-height="1017"
     id="namedview3773"
     showgrid="false"
     inkscape:zoom="0.3754417"
     inkscape:cx="-321.02661"
     inkscape:cy="1056.3676"
     inkscape:window-x="-8"
     inkscape:window-y="-8"
     inkscape:window-maximized="1"
     inkscape:current-layer="svg3771" />
  <path
     d="M131.4 2189.5l-0.8 0.4-2.4-3.2 0.2-0.9 1-0.2 1.3 0.4 1.3 1.1 0.2 1.1-0.8 1.3z"
     id="SWE99"
     name="" />
  <path
     d="M481.6 1483.2l-1.2 0.6-0.6 0-0.5-0.3-1.2 0.5-0.3-1.6 0.1-0.8 0.3-0.6 0.5-0.4 1.2 0.1 0.8 1.3 1.3 0.2 0.1 0.5-0.5 0.5z m-7.6-36.7l-0.8 0.3-1.6-0.4-0.8-0.7 0.1-0.8 0.4-1.1 0.7-1.1 0.6-0.4 0.5 0.1 0.9 0.7 0.4 0.6-0.1 0.9-0.5 0.6-0.1 0.5 0.3 0.8z m5.4-18.4l-0.4 0.1-0.5-0.8-0.5-1.5 0.2-1 0.4-0.9 0.9-0.3 0.8 0.5-0.3 0.7-0.3 2.1-0.3 1.1z m8.9-64.7l1.2 0.7 0.5 1.3-0.9 0.8-4.2-0.4-0.4-0.9-0.4 0.2-0.4 1.2-0.5 0-0.4-1-0.3-1.2 0.1-1.2 1.1-0.5 3.6 0.9 1 0.1z m-11.7 0.4l-0.9 0-0.6-0.6-0.2-0.9 0.4-1.1 0.1-0.9 0.3-0.4 1.8 0.5 0.3 0.6 0 0.8-0.3 0.5 0.3 0.7-1.2 0.8z m20.6-27.4l-0.2 0.4-0.7 0.1-0.4 0.9-0.5 0.3-0.9-0.8 0.3-1.5 1.6-0.4 0.8 1z m-5.1-35.5l-0.6 0.3-0.4-1.1 0.3-1.3 0.6 0.2 0.3 0.5-0.2 1.4z m3-0.5l-1 0.2-0.7-0.4-0.7-0.8-0.3-1 0.1-0.3 1.1 0.7 1.7 0.2 0.3 0.5-0.5 0.9z m-11.5 208.5l-4.6 21.2-2.6 6.1-1.3 1-1.4 1.7-1.6 3.7-0.5 3 0.7 11.5-5.1 1.8-1.5 1.5-1.4 0.5-6.3-0.8-1.3-0.7-2.9-0.4-1.2 0.2-1.1 0.4-1.3 1.5-0.4 0.8-0.1 0.9 0.1 1.1-0.1 1.4-0.9 1.5-8 5.3-2.1 0.6-1.8 0.1-3.1-1.5-0.7-1.7-0.8-1-1.5-1.5-1.3-1.6-1.3-2.5-2-4.8-1.5-2.7-4-5.8-2.6-2.5-1.8-1.3-1.1-0.6-1.3-0.3-1.7-1.7-2.4-2.9-7.1-12.8-1-1-0.9-0.4-0.9-0.8-1.2-1.8-3.8-8-0.1-2.1 0.3-4.7 4.3-3.7 6.1-8.9 0.8-2.7 1.3-1.9 1.5-1.5 0.4-0.7 0.7-2.7 0.2-2-0.2-2.2-1.4-2.9-2.1-3-4.1-4.5-3.2-4.3-1-3.4-2.9-6.7-1.9-3.7-2.2-3.3-2.7-1.2-15.2-3.6-8.9-5.2-2.6-2.8-4.8-7.2-0.1-0.6 0.1-1.2-0.1-2.2-0.4-4.7-1.5-5.3-3-4.6-14-15.7-15.7-23.6-0.8-2.1-1-1.2-2.6-4.4-3 4.4-1.2 1.3-1 1.7-1.1 0.8-29.4 0-0.7-0.8-0.3-1.5-1.5-2.6-1-6.3-13.9-4.5 3-6.4 1.8-14.5 1.8-8.3 2.4-5.9 6.3-9.1 2.3-1.7 1.4-0.2 0.5 1.5 5.4 10.2 0.9 1 1.1 0.8 0.5-0.7 0.4-2.1-1-4.2 2-1 2.9 2.5 2.7-0.4 1.7-3.3 3.5-0.6 3.9 0.7 2.1 2.3 2 0.1 1-2.1-0.1-3.1-0.3-2.3-0.1-1.4 0.4-1.2 1.1-1.2 0.4-2.7 0.1-2.8-0.3-2.8-1.2-6.4 0.6-0.8 21.4-18 2.2-3.8 0.7-3.2-0.8-3.7-1.1-2.9-1.7-2.5-2.1-3.9-1.6-6.8 13-10.9 3.8-1.5 3.5 0.5 44 15.4 21 1.6 39.5 11.4 15 0.4 3.4 1.3 18.4 3.6-1.3 2.8-0.5 2.2-0.1 3.2 0 2-0.4 1.3-1.5 1.3 1.6 1-0.7 2.2-2.5 3.5 0.8 0.8 1.2 1.5 0.5 1.5-0.7 0.6-3.6 0.6-0.8 0.5-0.4 1.7 0.1 1.8-0.2 1.4-1.6 0.6-0.7 0.5-0.5 1.2-0.3 1.8 0 2 0.3 2 1 2.8 0.2 1.3-0.2 1-1.1 0.9-0.4 1.7 0 1.3 0.7 0.5 0.2 0.8-0.5 1.4-0.7 1.5 0 0.9 0.2 0.9 1 0.6 3.9-1.1-0.4 1.5-0.6 1-0.7 0.6-0.9 0.2 0 1.2 1.3 0.7 0.2 1.8-0.3 2.4-0.1 2.6 0.4 2.9 0.6 0.9 3.7-1 1.3-0.8 1.4-0.2 1.4 1.5 0.9 1.8 0.5 1.9-0.1 1.7-0.6 1.8-0.4 2.1-0.3 2.7-0.4 2.4-1.2 1-1.5-0.2-1.1-0.5-1-1-1-1.7-2.8-6.8-1.6-2.6-2.4-1.4 0.2 2 0.4 1.6 1 2.9-2.9-0.8-1-1.3 0.3-2.4-2.8-2.6-3.2-0.9-6.5 0.3 0.9 1.8 1.2 0.6 2.6-0.2 5.2 3.3-0.7 2.7-2.4 1.7-2.7 0.9-2 0.1 0 1.1 0.6 0.2 1.5 1-2.2 1-3.4-1.5-1.7 1.5 9.7 2.2 1.7 2.1-1.7 1-1.3-0.3-2.7-1.7-1.6-0.4-5.1 0.4 0 1 2.7-0.1 1.2 0.6 0.8 1.7-3.3 1.6-3.5 0.5 2 1.7 7.9 1.6 0 1.1-7.3-0.3-0.8 0.9 0.7 0.8 1.7 0.6 1.4 1.4 1.9 0.5 0.8 0.4 0 1.2-3.1 0 0 1 2.9 1.5 0.7 0.8 0.3 1.9-0.4 1-0.7 0.9-0.8 1.6 0.5 1.3 0.3 1.3 0.6 1.1 0.7 0.7 1 0 0.9-1.8 0.7-0.5 0.5 0.5 0.1 1.1-0.3 1.2-0.8 0.5-0.9 0.1-0.8 0.4-0.7 0.7-0.7 1-0.5-1.2-0.9-1.5-0.8-0.5-0.7 2.9-1.4 1.4-0.4 1.6 0.4 0.9 2.2 3.9 2.2 2.1 2.5 1.2 0.1 1.7 5.6 3.7-2.2 0.5-2.5-0.4-4.7-2.4 1.1 3.1 2.1 1.5 2.2 0.7 1.9 1.2-3.2-0.2-1.4-0.5-3.9-3.9-1.3-0.5-1.6-0.2 0 1.1 1.8 0.9 2.3 2.2 2.2 2.8 1.5 2.6 0.9 3.8-1.1 1.4-2 1-1.5 2.5 2.7 2.1-0.4 3.9-0.6 1.3-1.1 1.3 1.5 2.1 0.3 2-0.9 1.3-1.9 0 0.8 0.5 2.1 0 0.7 0.5 0.3 0.9 0.2 1.1-0.2 0.8-0.6 0.4-0.6 0.7-0.6 1.7-0.4 2.1-0.2 2 0.3 0.6 0.6 0.8 0.7 0.7-1.6 1.7-0.5 0.3 3.9-0.6 1.9 0.3 0.9 1.5-4.5 1.2-1.6 1.9-0.6 4.3-0.1 1.9 0 0.7 1.6 1.7 1.4 0.2 0.6 0.3-0.2 1.9 0.2 1.1 0.8 2.4 1.3-0.8 0.6 0.3 0.4 0.7 2.7 8.8-1.3 0.7-0.5 0.6-0.2 0.9 0.3 1.8 0.5 0 0.6-0.3 0.6 0.7 0.2 2-0.2 1.6 0 1.3 1.1 1.3 1.4 0.5 1.2-0.1 0.3 0.5-0.9 2.3-0.9 1.1-2.4 1.4-2.1 2.5-2.8 2.1-1.8 0.7-0.4 0.7 0.1 0.7 0.5 0.4 0.9-0.2 1.7-0.8 0.7-0.2 1.6 0.5 1.5 2.3 2.4 1 4.1 3.7-3.1 2.1 0 1 1.2 0.9 1.6 0.3 1.2-0.4z"
     id="SWE178"
     name="Gävleborg" />
  <path
     d="M337.6 1938.4l1.5 2.3 0.9 0.8 2.5 1.9 2.4 2.3 0.9 0.6 1.4 0.1 1 0.6 1.5 0.8 0.8 0.6 0.6 0.7 0.5 1.4 1 1.3 1.7 0.6 0.2 0.5-0.3 0.9-3.5 5.2-0.3 1.1 0.4 1.1 0.7 0.7 1.8 0.7 0.6 0.6 0.3 0.9 0.1 1.4-0.2 1.4-0.6 1.2-0.4 0.5-0.6 1.1-0.4 1.6-0.4 2.4-0.7 1.4-0.6 0.6-0.7 0-0.5-0.5-1-1.6-0.5-0.6-0.6-0.4-0.6-0.1-0.7 0.2-0.8 0.7-0.7 1.4-0.3 1.9 0.4 3.8 0 1.2-0.8 2.8-0.1 1.4 0.5 4.1-0.4 2.1-0.6 0.9-1 1.1-0.3 0.7-0.2 1.3 0.2 1.7 0.5 1.8 3.1 4.9 0.4 4.2-10.2-3.4-3.4-0.4-10.4 0.6-0.9-0.4-4.3-0.7-0.4 0.4 1 3.4 0.3 1.4-0.1 1.1-0.5 0.2-3-0.8-1.8 0.5-2.2 1.4-4 4-1.6 1-1.3 0.2-2.5-0.3-1.6-1-1.2-1.5-0.4-1.5-0.4-1.6-0.8-1.2-6.3-3.7-3 0-3.9 1.1-12.9 6-8.7 1.9-2.1 1-1.7 1.9-0.6 2.6-0.5 7.4-0.8 3.8-0.2 1.5 0.2 1.4 0.6 1.2 0.7 0.8 1.2 1 0.1 1.5 0.4 2.2 0 1.1-0.2 1.5-1.7 3.9-2.7 4.7-1.1 0.6-2.3-0.3-2.3-1.3-1.2-1.1-0.8-1.3-3-9-1.3-2.7-1.3-1.7-1.3-1.1-2.1-1.2-2-1.7-1.7-1-1-0.1-1.3 0.1-1.8 0.9-2 0-2.5 0.7-6 4.8-0.7 0.3-0.9-0.3-3.1-2.9-2.2-1.5-1.4 0.4-0.9 0.4-4.3 6.5-4-2.5-2.5-2.8-0.4-1.2-0.1-1.4 0.1-1.7-0.7-2.1-1.3-1.3-1.5-1.2-2.9-1.2-0.9-1.1-1.3-0.8-2.5-0.5-2.1-0.9-1.1-0.3-1.3-0.1-9.4 2.5-1.4 0-0.6 0.3-0.4 0.4-0.4 1.5-0.7 1.1-1.5 1-0.7 0.7-1.2 2.2-0.5 0.7-0.7 0.7-0.9 0.4-1-0.4-1.3-3.1-1.5-2.9-0.6-1.7-0.3-1.9 0.1-2 0.4-2 0.3-1 1.3-1.5 1.4-1.6 1.3-1.8 4.1-8.1 1.9-2.6 1.5-1.3 1.1-0.2 0.6-0.3 0.5-0.8 1.3-3.9 1.3-1.8 1.4-1 2.9-1.5 3.1-2.8 4.6-5.9 3.2-2.7 0.9-1 1-1.7 4.1-8.6 3.1-5.4 2.5-2.8 0.9-1.4 0.6-2 0.1-5.3 0.2-2 0.9-2.2 1.5-2.7 0.3-1.6-0.2-2.8-0.2-1.7 0-1.6 0.7-3.4 0.6-1.5 0.6-1.2 0.8-1.2 0.5-1.3 0.1-1.7-0.1-2.2-1.3-6.3 4.1 0.1 1.8 0.5 7.8-1 1.7 0.7 1.9 1.7 1.8 1.2 1.2 0.2 0.7-0.3 0.4-0.8 0.6-3.2 0.3-0.7 0.9-0.9 3.7-1.7 0.8-0.9 4.9-2.3 2.3-1.6 1.6-1.7 1-1.8 0.3-1.7-0.1-1.7-0.8-3.7-0.1-1.5 14.5-31.9 4.3 10.1 2.2 2.8 6.2 3.2 17.9 2.4 3.1-0.3 1.6-0.7 1.2-1.3 0.4-1.4 0.4-2.5 0.5-0.7 0.7-0.4 4.1-1.3 0.5 0.2 0.6 0.7 0.2 0.9 1.5 3 0.6 1.9 0.8 3.4 0.6 3.3 0.2 0.8 0.6 1.1 2 2.8 0.5 1 0.1 1-0.2 0.7-0.9 0.9-0.8 0.4-1.7 0.5-0.7 0.6-0.4 1-0.1 1.6-0.3 1.1-0.7 1.6 0 0.8 0.5 1.3 0.1 0.8-0.2 0.8-0.4 0.9 0 1.3 0.5 1.7 2.8 4.5 0.9 2 0.4 1.7 0.2 1.8 0.4 1.9 0.9 2.9 2 5 1.6 3.2 1.6 1.8 1.7 0.6 18.6 1.6z"
     id="SWE179"
     name="Jönköping" />
  <path
     d="M425.8 2022.7l0.8 1 1.2 0.2 0.7 0.5-0.7 0.6-1.7-0.7-0.7-0.8-1.4 0.3-0.5-0.4 0.2-0.8-0.2-1.1 0.7 0.1 1.6 1.1z m-3.7-9.2l0.4 0.7 0.2 1-0.2 0.7-2.3 1.5-0.6-0.6-0.3-1.4 0.8-1.7 0.5-0.1 0.8 0.2 0.7-0.3z m17.9-9.9l-0.2 0.2-0.9-0.7 0.5-0.8 0.6 0.7 0 0.6z m20.7-13.3l0.7 0.2 0.6-0.4 0.5-1.2 0.5 0 0 0.6 0.5 1.2 0.7 1.3 0.4 1.6-2.1 0.3-1.6 1.7-2.6 4.8 1.7 4 0.2 2.1-1.2 3.6-0.1 1.8-1.6 0.9-0.4 1.3-0.3 2.1-0.3 1.3-3.1 6.1-0.5 2-0.5 3.7-1.3 1.6-1.7 0.7-1.7 1.2 0.5 1.2 0.6 0.8 0.7 0.5 0.9 0.3-1.5 1.5-1.1 1.5-2.2 3.8 0.6 1.7 0.4 2.9-0.1 2.7-1.1 1.2-0.7 1.5-1.3 7.3-0.8 2.5-0.2 0-3.5 2.1-0.5 0.7-0.5 1.2-0.3 1.3-0.2 1.3-0.1 1.4-0.3 2.8-4.4 14.1-0.7 2.7-0.2 3.1-0.3 1.3-0.6 1.3-0.8 1.1-1.6 1-0.4 1.2-0.4 3-0.1 0.8 0.5 0.4 0.1 0.7-0.2 0.6-0.7 1.5-0.2 0.7-0.1 2.3-0.3 1.5-0.4 1.3-1.1 2.6-1 2.8-0.8 2.8-0.4 2.6-0.1 1.1 0.1 3.1-0.3 1.4-1 1.9-0.3 1.3-0.6 2.2-3.8 9.1-1.4 1.7-1.7 1.1-1.6 0.1-1.2-1.5-0.2-1.2 0.2-3.2 0-1.3-1-3.7 0.6-3 0.1-3.3-0.2-5.8 0.6-2.1-0.4-2.5-0.9-2.6-0.4-2.6 0.6-11.8 0.2-1.3 1.3-4.3 1.8-3.1 0.2-1.1 0.5-2.9 12.7-32.3 1.3-1.4 1.6-0.6 2.3-0.1 2.1-0.6 1.1-1.7 1.3-5.3 3.4-8.6 3.9-7.6 3.2-8.2 1.4-10.3 0.3-1.4 0.7-0.7 1.6-0.8 1-1.3 0.4-1.2 0.2-7.9 0.3-2.4 1.7-1.9 2.3-3.7 1.3-1.2 1.4-0.7 0.8 0 0.6 2.1z m-26.7-22.2l-0.3 0-1.9-1.2-0.7-2 1.4 0.9 0.9 1 0.6 1.3z m0.6-14.3l-1.9 3.6-0.7 0.3-0.8-0.6-0.4-0.7-0.4-0.2-0.4 0.6-0.5-0.1-0.6 0.3 0.1-1.1 0.5-1.4 0.7-0.2 0.3-0.6 1.7 0.3 0.3-2.9 0.2-0.2 1.8 0.6 0.3 1-0.2 1.3z m-1.4-25.1l-0.3 0.1-1.3-1.1-0.3-0.5-1.7-1.3-0.4-0.7 0.4-0.6 0.7-0.4 2.8 0.4 0.8 0.7 0.3 0.9-0.3 0.8-0.5 0.5-0.2 1.2z m1.5-10.4l1.4 2.2 1.2 0.2-0.1 1 0.2 0.3 0.1 1 0.6 0.8 0.8 0.6 0.1 0.7-0.6 0.2-0.8-1.2-0.4-0.3-1.2 0.8-0.7-0.5 0.1-0.9-0.8-1.5-0.4-0.7-1.1-0.9-0.6 0.3 0.1-0.8 0.7-0.8 0.1-0.4 1.3-0.1z m-3.2-19.3l0.8 2.7 0.7 1.2 0.8-0.7 0.8-1 0.6 0.3 0.3 1.4 0.1 2.2 0.5 0.9 2 2.4 0.6 1.2-1.3-0.1-2.8-1.9 0.6 2.2 2.2 2.1 0.3 1.5-0.8 1.6-1.3 0-1.3-0.9-1-1.1-1.5-3.6-0.6-0.4-0.2 2.9-0.7 1-1.5 0.1-3-0.5 0.2-1.3 0-1.2-0.3-1.2-0.5-1.2 0.9-0.1 0.8 0.2 0.7 0.4 0.7 0.6-9.7-11.1-0.8 0.1-0.5 0.8-0.3 1.3 0.2 0.9 0.5 1 2.1 2.9 4.4 2-0.4 0.5-1.1 1.6 0.4 1.4 0.1 1.3-0.3 1.2-0.8 0.8-1.4-1.5-1.4-1.1-3.3-1.2 1 1.8-0.6 1.1-0.5-0.5-1.5-0.6 0 1.1 16.3 18.4 2.3 2-0.5 1-1.3-0.5-3.6-2.6-1-1.2-6-9.2-9.3-7.9 0.6 2.5 0.9 1.6 2.6 2.7 4.3 3 3.2 4.3 1.1 2.3 0.5 0.8 1 0.4 0.8 0.5 2.6 2.9 1 1.3-1 1.1 1.6 0 1.3 0.5 1.1 1.3 0.7 2-1.6 0 0 0.9 1 0 0 1.1-5.1-0.6-2.3-0.9-2.4-1.5 0.5 1.3 1.5 1.6 0.6 1 0.7 2.2-0.2 1.2-1 0.2-1.6-0.8 0.6 1.5 0.9 0.4 0.9 0.1 0.7 0.9 0.5 1.8-0.4 0.6-0.7 0.3-0.7 0.8-0.7 0.9-2.1 2.1-0.6 0.4-0.4-0.6-0.1-1.3 0-2.9-0.6 0.6-0.7 0.3-0.6-0.3 0 1 0.9 1.1-1.1 1.7-0.5 0.4 0 0.9 1.6 1 0 1-2.1 0 0 0.8 5.9 0.2 2.8 1.2 2.1 5.8 1.7 3.6 0.7 2.5-2.2-0.6 0.9 2.3-0.4 0.6-1.1 0.1-1 0.8-0.4 1.7 0.4 1.5 1.1 1 1.4 0.5-1.2 0.9-1.4 0.4-0.9 1 0.5 2.6-4.5-0.9-1.9 0.6-1 3.2 2.7 1.9-0.7 1.3-0.9 0.6-0.1 0.6 1.1 1.3-5.8 3.5-1.2 2.6 1.9 4.6-2.2 2.1-0.6 3.3 0.6 3.7 1.2 3.2 2.1 3.8 0.9 1 0.7 0.4 1-0.1 0.7 1.1 1.3 3.3-1.2 0.8 0.5 1.6 1 1.8 0.7 1.5-1 0.1-2.7-1-0.1-0.4 0.1-1.2-0.5-0.3-0.5 0.1-0.8 1.2-0.5 2-0.3 0.3-0.5-0.6-1.3-0.3-1.8-0.8-0.9 0 1.1 1.8 0.7 0.7 0.7 0.3 0 1.1-1.5 0-1 1.3-0.4 2.3 0.4 2.9 0.7 1.7 0.9 1.1 0.5 1-0.4 1.5-2 3.8 0 0.9 0.3 3.7 0 1.5-0.3 1.4-2.1 6.7 0 1.3 0.6 1.5 0.9 0.7 0.9-0.6 0.9-0.9 0.8-0.6 0.7 0.5 0.2 1.1-0.2 1.3-0.4 0.8-0.9 0.4-2.1-1-1.1-0.2-1.2 0.3-1.5 1.3-1.2 0.2-0.3 0.8 0.5 1.6 1.1 2.9 0.2 4.4-0.1 2.5-0.6 1.9-1 1-1.3 0.4-1.2-0.1-1.8-1.5-1 0.2-0.9 0.7-1.6 0.8-0.7 1.1-1.7 3.9-0.2 0.8 0 2.1-0.4 2.9-0.2 3.2-0.4 1.4-2.2 0.2-0.4 1.3-0.5 2.7-3.7 7.2-1.7 4.9-2.2 11.4-0.4 0-1.4 0.5-0.8 0.8-1.5 0.2-2.4-0.2-9.1-3.3-4.5-3.3-5.7-7.3-4.2-4-5.4-6.1-1.4-1-1.3-0.1-0.9 0.1-1 1.2-0.5 1.4-0.7 0.3-0.6 0.1-4-1-1.6-0.9-1.4-0.2-1.7 0.3-0.5 0.3-2.1 2.2-0.6-1.4 0-1.1 1.1-4.3 0.5-1.3 0.7-0.9 0.9-0.5 0.6-1 0.3-1.5 0-2.4 0.8-12.4-0.2-2.8-0.3-1.8-0.9-3.4-0.7-2.9 0.2-1.5 0.5-0.9 1.9-1 0.7-0.5 1-1.1 0.8-0.5 1.1-0.2 3.6-0.1 1-0.4 1-0.8 0.6-1 0.3-1.3-0.1-1.8-0.4-2-0.6-2.1-1.2-3.5-0.1-1.5 0.5-1.1 0.9-1 1-0.5 1.1-0.3 1.4 0.2 4.7 2.8 0.7 0.1 0.7-0.1 1.3-0.7 6.9-0.1 2.2-0.6 1.8-2 0.8-2.2 0-2.1-0.5-1.9-1.3-3.1-0.7-2.4-0.5-1.3-4.2-6.1-0.8-1.4-0.7-1-3.2-3.5-0.6-0.9-0.6-2.3-0.8-0.7-4.2-1.9-1.1-1.1-0.5-1.8 0.1-2-0.2-1.2-0.6-0.9-1.9-1.7-0.4-4.2-3.1-4.9-0.5-1.8-0.2-1.7 0.2-1.3 0.3-0.7 1-1.1 0.6-0.9 0.4-2.1-0.5-4.1 0.1-1.4 0.8-2.8 0-1.2-0.4-3.8 0.3-1.9 0.7-1.4 0.8-0.7 0.7-0.2 0.6 0.1 0.6 0.4 0.5 0.6 1 1.6 0.5 0.5 0.7 0 0.6-0.6 0.7-1.4 0.4-2.4 0.4-1.6 0.6-1.1 0.4-0.5 0.6-1.2 0.2-1.4-0.1-1.4-0.3-0.9-0.6-0.6-1.8-0.7-0.7-0.7-0.4-1.1 0.3-1.1 3.5-5.2 0.3-0.9-0.2-0.5-1.7-0.6-1-1.3-0.5-1.4-0.6-0.7-0.8-0.6-1.5-0.8-1-0.6-1.4-0.1-0.9-0.6-2.4-2.3-2.5-1.9-0.9-0.8-1.5-2.3 0.9-3.2 0.1-0.9 0.3-1.4 0.6-0.8 1.6-1 3.3-1.2 1.4-0.8 0.9-1.2 0.6-1.9 0.9-1.4 1.5-1.7 2.3-3.5 1.4-1 1.3-0.6 2.7-0.6 1.7-0.1 2.9 0.5 1.4 0.7 3.4 2.3 5.4 1.3 2.2 1.3 1.9 0.1 1.5-0.6 2-1.6 3-4.1 0.9-1.9 0.2-1.9-0.2-2.2-0.6-2.5-0.2-1.6 0.2-1.2 0.4-0.9 1.1-1.6 0.5-1.1 0.3-1.2-0.4-1.8-2.8-4.2-0.6-1.2-0.1-1.3 0.2-1.1 0.4-1.1 0.1-0.9-0.3-0.7-0.5-0.6-0.3-0.8 0.3-0.9 1.2-0.2 4.4 1 2.5-0.2 2.3 0.5 0.9-0.3 0.4-1.1 0.4-1.3 1-1.8 1.5-1 4.6-1.8 1.8-0.4 4.9 0.6 2.6-0.8 1.5-0.1 1.5 0.2 1.7 1 1.1 1 0.9 1.1 0.9 0.7 0.9 0.2 2.8-0.5 1.2 0.1 1 0.7 0.8 1.1 0.5 1.3 1.1 6.6 0.5 2 1.1 2.3 0.6 1 0.4 0.3 1.2 0.5 1.9 0z"
     id="SWE180"
     name="Kalmar" />
  <path
     d="M265 1357.6l13.9 4.5 1 6.3 1.5 2.6 0.3 1.5 0.7 0.8 29.4 0 1.1-0.8 1-1.7 1.2-1.3 3-4.4 2.6 4.4 1 1.2 0.8 2.1 15.7 23.6 14 15.7 3 4.6 1.5 5.3 0.4 4.7 0.1 2.2-0.1 1.2 0.1 0.6 4.8 7.2 2.6 2.8 8.9 5.2 15.2 3.6 2.7 1.2 2.2 3.3 1.9 3.7 2.9 6.7 1 3.4 3.2 4.3 4.1 4.5 2.1 3 1.4 2.9 0.2 2.2-0.2 2-0.7 2.7-0.4 0.7-1.5 1.5-1.3 1.9-0.8 2.7-6.1 8.9-4.3 3.7-0.3 4.7 0.1 2.1 3.8 8 1.2 1.8 0.9 0.8 0.9 0.4 1 1 7.1 12.8 2.4 2.9 1.7 1.7 1.3 0.3 1.1 0.6 1.8 1.3 2.6 2.5 4 5.8 1.5 2.7 2 4.8 1.3 2.5 1.3 1.6 1.5 1.5 0.8 1 0.7 1.7 0.2 2.2-1.6 0.9-10.9 3-2.7 3.2-3.4 6.7-1.8 1.7-2 1.3-4.5 1.6-3.3 0.4-7.2-0.8-1.5-0.6-2.1-1.5-0.7-1.2-0.3-1.1 0-1.2-0.3-1.1-0.5-3.3-1.6-2.1-1.2-0.6-2.7-0.8-1.3-0.7-0.7-0.8-1.6 0.6-1.5-1-2.9-0.7-1.9 0-1.8 0.4-4.3 1.8-0.7 0-1.9-0.6-1.4 0.1-1.5 1.1-3.5 3.6-0.1 1.2 0.3 0.8 0.2 0.9-1.2 3.7-0.9 2-1.4 1.9-0.3 1.2 0.3 1.1 0.9 1.1 0.2 1.1-0.1 1.4 0.2 5.8-1.2 2.5-1.9 2.2-1.5 0.7-1.4-0.2-1.8-1.2-2.1-1-2.7 0-1.7 1.2-0.9 1.9-0.4 2.6-0.6 1.7-1.9 2.1-0.8 1.3-0.7 1.6-0.7 2.3-14.1-18.1-0.8-0.8-1.5-1.1-16.6-7.4-6.9-1.7-3.4-2-1.5-1.4-0.4-0.7-0.2-0.8-0.1-1.3-0.3-0.5-1.1-0.1-1.6 0.7-3.3 2.6-1 3-0.3 2.9 1.5 5.6-2.2 0.6-1.9 0.1-20.1-2.8-14.7-10.7-1.5-4.6-2-3.2-0.4-1.7-2.1-5.5-1.5-3.4-1.1-1.5-1.2-0.7-6.4-0.6-3.9-1.8-0.8 0-0.6 0.2-0.1 0.8 0.4 1.3 0.8 1.4 2.3 2.7 0 0.6-0.4 0.7-1.3 0.8-1.5 0.8-1.7-0.9-8.1-8.8-13.4-22.2-2.1-1.9-8.5-4.2-1.7-1.5-1-1.3-3.1-5-0.1-0.3-1.2-3.7-2.6-5.8-10.4-18.7-1.2-1.2-1.1-0.7-1.2-0.6-0.8-1-0.7-1.3-2.2-7.5-1.9-3.7-3.2-4.7-25.9-28.6-0.9-2.1-2.2-6.2-0.3-0.5 0.2-0.6 1.5-10.6 0.5-2.1 0.5-1.4 5.5-8.4 1.6-3.5 1.1-4.4 2.5-14.8-0.1-1.9-0.7-1.5-19.9-27.9-2.3-2.2-2.5-0.9-5.1-0.4-2.9-0.6-2.1-1.4-6-8.1-3.5-2.9-8.7-9.6-1.1-2.1 5.9-40.8 5.9-41.1-0.2-6.1 2-0.4 34.4 10.9 13.5 12.3 5.5 8 10.5 6.1 7.4-0.6 7.3 6.9-1.7 3.9-2.4 11.9 6.2 11.2 2.8 6.8 3.6 6.5 2.1 4.9 1.8 5.8 4.6 4.4 52.1 9.3 6.5 2.8 7.5-1.5z"
     id="SWE181"
     name="Dalarna" />
  <path
     d="M345.7 2008.7l1.9 1.7 0.6 0.9 0.2 1.2-0.1 2 0.5 1.8 1.1 1.1 4.2 1.9 0.8 0.7 0.6 2.3 0.6 0.9 3.2 3.5 0.7 1 0.8 1.4 4.2 6.1 0.5 1.3 0.7 2.4 1.3 3.1 0.5 1.9 0 2.1-0.8 2.2-1.8 2-2.2 0.6-6.9 0.1-1.3 0.7-0.7 0.1-0.7-0.1-4.7-2.8-1.4-0.2-1.1 0.3-1 0.5-0.9 1-0.5 1.1 0.1 1.5 1.2 3.5 0.6 2.1 0.4 2 0.1 1.8-0.3 1.3-0.6 1-1 0.8-1 0.4-3.6 0.1-1.1 0.2-0.8 0.5-1 1.1-0.7 0.5-1.9 1-0.5 0.9-0.2 1.5 0.7 2.9 0.9 3.4 0.3 1.8 0.2 2.8-0.8 12.4 0 2.4-0.3 1.5-0.6 1-0.9 0.5-0.7 0.9-0.5 1.3-1.1 4.3 0 1.1 0.6 1.4-1.5 1.8-0.9 0.3-1 0-2.2-0.6-1.6 0-1.5 0.5-0.8 0.8-0.7 1.7-0.9 0.9-0.8 0-1.3-0.2-1.7-0.7-2.3-1.4-1-0.4-1.3 0-3.6 1.1-3.3 0.2-0.8 0.2-0.5 0.6-0.5 1.8-0.5 1.1-2.6 3.7-2.5 2.3-1.6 0.5-1.8-0.1-10.9-3.1-2-1.1-2.6-2.4-2.9-3.1-2.3-2-4.2-1.8-13.7-4-3.9-1.8-2.2-0.5-8.8 0.1-1.2-0.4-1.7-1.7-1.1-0.5-1.1 0.1-1.3 1-1 1.2-0.6 1-0.3 0.8-0.4 1.7-0.4 1-1.3 0.8-2.3 1-31.5 7.6-5.7 0-2.2-3.3-1.2-3.6-0.3-2.4 0-1.1 0.2-0.7 0.1-1.3 0-1.9-0.5-4.2-0.8-2.7-1.5-3.3-5-9.3-1.4-2-1.8-1.8-0.2-0.5 0.5-1.2 0.1-0.8 0-1.2-0.1-2.1 0.4-6.8-0.1-3.9 0.2-2 0.5-1.7 1-2.1 0.4-0.7 0.4-0.4 1.3-0.2 2.6-1.2 1.2-0.2 5 0 1.1-0.3 2.9-1.7 6.3-1.8 1.5-0.8 1.2-1.1 1.5-1.9 1.2-2.6 0.4-1.6-0.4-2.6 4.3-6.5 0.9-0.4 1.4-0.4 2.2 1.5 3.1 2.9 0.9 0.3 0.7-0.3 6-4.8 2.5-0.7 2 0 1.8-0.9 1.3-0.1 1 0.1 1.7 1 2 1.7 2.1 1.2 1.3 1.1 1.3 1.7 1.3 2.7 3 9 0.8 1.3 1.2 1.1 2.3 1.3 2.3 0.3 1.1-0.6 2.7-4.7 1.7-3.9 0.2-1.5 0-1.1-0.4-2.2-0.1-1.5-1.2-1-0.7-0.8-0.6-1.2-0.2-1.4 0.2-1.5 0.8-3.8 0.5-7.4 0.6-2.6 1.7-1.9 2.1-1 8.7-1.9 12.9-6 3.9-1.1 3 0 6.3 3.7 0.8 1.2 0.4 1.6 0.4 1.5 1.2 1.5 1.6 1 2.5 0.3 1.3-0.2 1.6-1 4-4 2.2-1.4 1.8-0.5 3 0.8 0.5-0.2 0.1-1.1-0.3-1.4-1-3.4 0.4-0.4 4.3 0.7 0.9 0.4 10.4-0.6 3.4 0.4 10.2 3.4z"
     id="SWE182"
     name="Kronoberg" />
  <path
     d="M338.5 1621.7l0.6 1.8 1.4 2.2 0.1 1.4-0.2 1.3-0.7 1.3 0.3 0.8 1 0.5 1.5 0.5 2.4 1.7 1.2 2.4 1.4 4.5 0.3 2.9-0.4 3.1-1.4 6.7-0.1 3.7 0.4 2 0.6 0.9 1 0.3 3.1-0.1 1.5 0.4 1.2 1.9 0.5 2.6 0.2 4.2 0.3 2 0.7 1.2 1 0.3 1.9-0.3 0.8 0.2 0.9 1 0.1 1.4-0.3 1.3-1.5 3 0 1.5 0.4 0.7 1.7 2.5 0.4 2.1 0.1 2.3-0.8 1.6-1.5 1.1-5.8 1.9-0.5 0.9-0.5 1.7-0.1 1.8 0.2 1.4 0.6 1.1 0.8 1.2 0.4 1.2-2 5.8-0.2 1.5 0.4 0.6 3.1 1.6 1.9 1.8 1.7 3.1 1 1.4 1.1 0.6 3.1-0.3 1 0.2 0.1 0.8-0.3 0.7-1.7 3-0.5 1.4 0.2 1.2 0.6 2.3 1.8 5.1 0.2 1.3-0.3 1-1.2 1.1-1.5 0.8-2.1 0.7-1.3 0.6-0.9 0.9-0.9 1.7-2.5 2.7-1 1.4-0.7 1.3-0.4 1.4 0.7 1.7 0.9 1.5 4.8 4.5-3.4 1.3-2 0.4-2.1 0.9-1.6 1.4-0.7 1.2-0.1 1.2 0.2 1 0.2 1.7-0.4 2.2-2 3.2-2 1.6-8.4 4.2-2.1 0.6-2.1 0-2.7-1.1-2-0.1-2.4 0.6-8.2 5.5-2.2 2.5-5.9 8.9-2.6 3.2-1.3 1.2-8.9 2.6-2.5 1.7-3.7 3.5-4.9-3.8-1.6-2.3-1-3.7-1.3-3.1-1.5-1.1-1.5-0.4-0.8 0.5-0.5 0.6-0.4 1.5-0.6 0.7-1.2 1-1.5 0.9-0.6 0-0.4-0.6-0.4-1.3-0.8-0.4-3-0.5-1.8-0.9-0.7-1.5-0.1-2.9-0.4-2.2-1.1-2.5-4.2-7-0.8-2.2-0.1-1.7 0.1-1.9-0.1-1.4-0.5-1.6-1.6-3.3-1.4-3.7-1.2-3.9-0.6-1.5-1.2-3.9 1.1-5.9 0.4-5.9-0.4-3.1-1-4.5-0.2-2-0.1-6.7 0.3-4.9 1.2-8.9 1.5-6 1.7-5.4 2.7-6.2 0.7-2.5 0.5-1 2.5-2.9 0.8-1.4 0.4-1.6-0.3-2.3-0.2-0.4-1.4-1.4-0.9-1.2-0.5-1.5 0-1.9 0.5-2.4 0.7-1.2 0.8-0.4 0.6 0.2 0.9 0.6 0.4-0.9 0.1-2.2-0.6-6.4-0.6-3-1-3.4-0.6-2.7-0.7-5.9-0.2-3.8 0.3-9.9-0.7-13.4-0.7-2.8-1.3-1.6-2.4-1.7-0.9-0.9-0.4-0.9 0.2-1.1 1.2-1.2 6.4-4.1-0.3-5.3 20.1 2.8 1.9-0.1 2.2-0.6-1.5-5.6 0.3-2.9 1-3 3.3-2.6 1.6-0.7 1.1 0.1 0.3 0.5 0.1 1.3 0.2 0.8 0.4 0.7 1.5 1.4 3.4 2 6.9 1.7 16.6 7.4 1.5 1.1 0.8 0.8 14.1 18.1z"
     id="SWE183"
     name="Orebro" />
  <path
     d="M441.4 1883.3l0.1 0.3 1-0.6 0.5 0.4-0.4 0.8-1.2 0.3-1.6-0.7-1.1-1.4 0.5-1.2 1-0.6 0.8-0.2 0.3 0.1 0.4 1.1-0.1 0.7-0.7 0.5 0.5 0.5z m8.1-14.7l0.6-0.3 0.4 0.4 0.4 0.8 0.3 1.4-0.9 1-1.5-0.9-0.4 0.1-0.2-0.9 0.1-1.1 0.7-0.8 0.5 0.3z m6.1-6.9l-0.5 0 0.5-1.4 0.4-0.1 0.5-0.7 1.3-0.4 0.4 0.5-0.3 0.6-1.6 0.8-0.7 0.7z m-7.1 0l-0.4-0.6 1.1-2.1 0.7 0.5 0 1.2-0.8 0.8-0.6 0.2z m-3.3-3.2l-0.9 0.1-0.7-0.5-0.8-2.2-0.3-2 1-0.9 1.6 0.9 0.8 0.7 0.3 0.9-0.2 1.8-0.8 1.2z m-0.6-18.4l0.3 0.4-0.2 0.8-0.8 1.2-0.8 0.5-0.9-0.2 1.4 1.4-0.1 0.4-0.9 0-0.5 0.8 0.3 1.1 1.1 1.5 1.9 1.8 1.6-0.1 1.4-0.7 0.2 0.5-0.6 1.2-0.8 0.9-1 0.5-1.2 0-1.5-0.4-1.4-1.1-0.9-1.7-0.4-1.3-0.7-1.5 0.1-0.9-0.4-0.9-0.9-1.3 0.4-1.3 1.4-0.7 0.6-0.2 1-0.6 0.8 0.1 1-0.5 0.5 0.3z m7.8-2.8l-0.1 1-0.4-0.1-0.5-2 1.2-0.9 0.5-0.1 0.5 0.6-0.7 1.1-0.5 0.4z m1.4-9.3l-0.7 0.3-0.9-0.5-0.6-0.7 0.1-1.2 0.8-0.6 1.3 0.7 0.8 0.3 0.3 0.7-0.4 0.5-0.7 0.5z m-2.5-3.3l-0.2 0.7-0.6-0.1-0.3-0.6-0.6-0.1-1.4-0.6-1.1-1.3-0.1-0.9 0.6-0.3 0.7 0 1.1 0.9 0.7 1 0.6 0.4 0.6 0.9z m-12.6-18.5l-41.4-5 0 1.1 1 0.4 0.8 1 0.3 1.3-0.5 1.2-1.1 0.3-3.2-0.7-1.4 0.4 0 0.9 0.9-0.5 0.9-0.3 0.8 0.4 0.5 1.5 1.5-1.1 3.4 1.8 1.6-1.2 1.1-1.7 1-0.5 0.9 0.5 1.6 2.1 0.3 0.1 0 2.5 0.4 1.2 0.8 0.5 1-0.1 0.6-0.6 0.6-1.8 0.4-2.3 0.5-2.1 0.9-1.3 1 0.4 3.8 2.1 1.1 1 8.9-0.4 1.6 0.7 1.4 1.7 1 0.7 3.1 0.5 1.4 1.3-0.6-3 2.7 0.9 1 0.1-0.8 2.7 0.5 2.3 1.4 1.5 2 0.4-1.1 1.1 0 0.8 2.1 0 0 1.1-0.8 1.3 1 0.8 2.9 0.8 4.2 4-1.9 1.1-3.8 0-1.6 0.9 0.7 2-1.7 1.6-2.6 1-1.9 0.4-0.4 0.3-0.9 1.3-0.4 0.4-0.6-0.1-1-0.8-0.5-0.2-9.3-1.8-4.4-2.8-7.4-2.6-2.2 1.3 2.7 0.3 16 8.7 2.4 0.3 1 0.7 0.7 1.9 0 1.3-0.2 1.2-0.2 1.2 0.4 1.3 0.7-0.1 1.2-0.6 1-0.7 0.1-0.6 0.9 0.8 0.4 0.8 0.3 3.3-10.8-2 1.2 1.5 2.8 2.2 1.1 1.3-0.3 1.5 0.2 1 0.9 0.4 0.9-0.1 0.4-0.6-0.1-0.9-0.4-1.3 4.4-0.9 1.5 0.2-0.7 2.6-0.4 0.2-1.3-0.2-0.5 0-0.2 2.3-0.3 0.7-0.8 0.5-2.8 0.5 0 0.9 1.7 0.5 5.6 3.4-1 1 1 0.9 0.8 1.6 0.6 1.9 0.2 2-0.2 1.9-0.3 0.4-0.7-0.4-0.9-0.3-0.6 0.4 0.2 0.9 0.7 0.9 0.7 0.6-2.5 4.5-4.2-2.7-4.5-5.1-3.3-2.6 1.1 2.5 3 3 1.1 2.5-2 0 1.6 2.8 2.6 3.4 1.5 2.8-1.6 0.7 0.2 1.8-0.4 1.1-0.8 0.4-1.1-0.3 1.6 1.3 1.3 0.5 1.2 0.9 1 2.1-0.6 1.2-0.6 0.3-0.7-0.4-0.6-1.1-2.2 1.5-0.4 0.8 1 1.6-1.6-1.1-1.6-4.3-1-0.4-1 1.5 0.5 1.9 1.7 3.5 0.9-0.2 1.1 0.3-1.9 0-1.2-0.5-0.4-0.3-0.6-1-1.1-2.3-0.5-2-1.1-6.6-0.5-1.3-0.8-1.1-1-0.7-1.2-0.1-2.8 0.5-0.9-0.2-0.9-0.7-0.9-1.1-1.1-1-1.7-1-1.5-0.2-1.5 0.1-2.6 0.8-4.9-0.6-1.8 0.4-4.6 1.8-1.5 1-1 1.8-0.4 1.3-0.4 1.1-0.9 0.3-2.3-0.5-2.5 0.2-4.4-1-1.2 0.2-0.3 0.9 0.3 0.8 0.5 0.6 0.3 0.7-0.1 0.9-0.4 1.1-0.2 1.1 0.1 1.3 0.6 1.2 2.8 4.2 0.4 1.8-0.3 1.2-0.5 1.1-1.1 1.6-0.4 0.9-0.2 1.2 0.2 1.6 0.6 2.5 0.2 2.2-0.2 1.9-0.9 1.9-3 4.1-2 1.6-1.5 0.6-1.9-0.1-2.2-1.3-5.4-1.3-3.4-2.3-1.4-0.7-2.9-0.5-1.7 0.1-2.7 0.6-1.3 0.6-1.4 1-2.3 3.5-1.5 1.7-0.9 1.4-0.6 1.9-0.9 1.2-1.4 0.8-3.3 1.2-1.6 1-0.6 0.8-0.3 1.4-0.1 0.9-0.9 3.2-18.6-1.6-1.7-0.6-1.6-1.8-1.6-3.2-2-5-0.9-2.9-0.4-1.9-0.2-1.8-0.4-1.7-0.9-2-2.8-4.5-0.5-1.7 0-1.3 0.4-0.9 0.2-0.8-0.1-0.8-0.5-1.3 0-0.8 0.7-1.6 0.3-1.1 0.1-1.6 0.4-1 0.7-0.6 1.7-0.5 0.8-0.4 0.9-0.9 0.2-0.7-0.1-1-0.5-1-2-2.8-0.6-1.1-0.2-0.8-0.6-3.3-0.8-3.4-0.6-1.9-1.5-3-0.2-0.9-0.6-0.7-0.5-0.2-4.1 1.3-0.7 0.4-0.5 0.7-0.4 2.5-0.4 1.4-1.2 1.3-1.6 0.7-3.1 0.3-17.9-2.4-6.2-3.2-2.2-2.8-4.3-10.1 28.9-60.8 3.7-3.5 2.5-1.7 8.9-2.6 1.3-1.2 2.6-3.2 5.9-8.9 2.2-2.5 8.2-5.5 2.4-0.6 2 0.1 2.7 1.1 2.1 0 2.1-0.6 8.4-4.2 2-1.6 2-3.2 0.4-2.2-0.2-1.7-0.2-1 0.1-1.2 0.7-1.2 1.6-1.4 2.1-0.9 2-0.4 3.4-1.3 4 2.2 0.9-0.2 0.9-0.7 1-2.8 0.4-0.8 0.7-0.6 1.5-0.9 1.4 0 1 0.4 2.7 2.7 12.2 9.4 4.5 5.1 12.2 9.7 1.1 1.6 0.8 2.2 1.1 1.9 3.8 4.8 0.4 1 0.4 2.6 0.6 1.6 1.3 1.9 1.2 1.1 1 0.4 13.3 0.5 4.4 1.3 3.6 2.2 2.2 2.5 1.3 1.9z"
     id="SWE184"
     name="Östergötland" />
  <path
     d="M491.8 1795.4l-1.7 1.1-0.2-0.8 0.1-1.2 0.2-1.2 0.5-0.3 0.9 1 0.2 1.4z m0.8-6.7l0.1 1.7-1.3 0.5-0.7-0.1-0.9 2.9-0.6 0.6-0.6-0.5-0.5-0.8-0.3-1.1 0.3-0.1 0.8 0.3 0.1-0.7-0.1-0.7-0.4-0.5-1-0.1-0.1-0.9 0.4-0.8 0.8-0.4 0.9 0.2 0.6 0.6 0.3-0.9 0.9-0.2 1.3 1z m15.4-6.2l-0.8 0.3-2.6-1.6-1-1.5-2.8-2.4-0.2-1.1 4.9 3.4 2.3 2 0.2 0.9z m-55.4-108.3l7.9 1.6 5.9-0.8 1.6 0.3 2.3 1.1 3 2.2 0.4 0.4 0.3 1.5 1.4 2.4 2.3 2.3 4.7 2.5 2.6 2.1 1.7 1.8 2 4.5 0.9 1.3 0 1.2-0.5 1.7-1.3 0.8-2.8 0.3-1.3 0.2-1 0.5-0.8 1.1-0.9 1.8-0.4 3.4 0.2 4-0.5 3.1-3 3.1-0.6 0.9-0.2 1 0 1.4 0.4 2 0.1 1.6 0.5 2.1 0.8 2.4 2.2 5.1 1.3 11.6 0.5 1.9 0.4 1.3 1.6 3.2 0.8 0.5 1.3 0.3 5-0.1 3.4 0.5 2.5 1.4 2.1 2.3-0.7 1.2 0.6 0.9 0.7 0.6 0.6 0.4 0.7 0.1 0 1-0.7 1.3 0.9 0.5 1 0.9-0.7 2.3-1.4 1.2-1.6-0.2-1.6-0.7-1.5-0.3 0.7 1.9 1 1.3 2.4 1.9 0 0.9-1.6 0 1.1 1.1-2.2-0.1-5.7-4.6-2.4-1.4 0 1 1.3 1 0.3 1.7-0.7 4.4-0.6 2.4-0.1 1.1 1 0.7 1.8 1.7-2.1 1.2-9.2-2.2 2.5 4 0.4 2.1-1.4 2-4-0.2-2.2 0.5 0 2.6-8.6-0.2-2.3-0.8-0.8-0.9-1.5-2.5-1.1-0.5-0.8 0.3-2.2 1.3-1.4 0.4 1 0.6 2.4 0.3 0.8 1 0 1.3-0.5 1.2-0.6 1-0.5 0.5 1.5 1.1 3.2-0.4 1.6 0.4 0 0.9-1.8 1.9-1.1 2-1.1 1.3-1.8-0.1-4.4-3-2.7-0.5-1.6 2.4 3.6 0.2 1.3 1.1 1.3 2.7-1.8 0-6.7 2.3-10.7-1.3-1.3-1.9-2.2-2.5-3.6-2.2-4.4-1.3-13.3-0.5-1-0.4-1.2-1.1-1.3-1.9-0.6-1.6-0.4-2.6-0.4-1-3.8-4.8-1.1-1.9-0.8-2.2-1.1-1.6-12.2-9.7-4.5-5.1-12.2-9.4-2.7-2.7-1-0.4-1.4 0-1.5 0.9-0.7 0.6-0.4 0.8-1 2.8-0.9 0.7-0.9 0.2-4-2.2-4.8-4.5-0.9-1.5-0.7-1.7 0.4-1.4 0.7-1.3 1-1.4 2.5-2.7 0.9-1.7 0.9-0.9 1.3-0.6 2.1-0.7 1.5-0.8 1.2-1.1 0.3-1-0.2-1.3-1.8-5.1-0.6-2.3-0.2-1.2 0.5-1.4 6-2.4 1.8-1.4 1.4-1.6 0.4-1.4 0-1.4 0-1.3 0.1-1.2 0.6-1.4 4.5-8.2 0.7-1 1.6-1.3 3.1-1.3 1.8-0.2 1.5 0.1 4.8 1.4 1.7 0.1 2.3-0.4 5.4-2.1 1.6-1.2 0.9-0.9 0.4-0.7 0.1-0.7-0.3-0.9-1.7-1.1-0.6-0.7-0.6-1.2-0.3-1.2-0.1-1.4 0.5-1.1 0.8-0.6 42.5-8.3 1.2 0.2 2.1-0.1 1.1-0.4 4.4-3.1z"
     id="SWE185"
     name="Södermanland" />
  <path
     d="M452.6 1674.2l-4.4 3.1-1.1 0.4-2.1 0.1-1.2-0.2-42.5 8.3-0.8 0.6-0.5 1.1 0.1 1.4 0.3 1.2 0.6 1.2 0.6 0.7 1.7 1.1 0.3 0.9-0.1 0.7-0.4 0.7-0.9 0.9-1.6 1.2-5.4 2.1-2.3 0.4-1.7-0.1-4.8-1.4-1.5-0.1-1.8 0.2-3.1 1.3-1.6 1.3-0.7 1-4.5 8.2-0.6 1.4-0.1 1.2 0 1.3 0 1.4-0.4 1.4-1.4 1.6-1.8 1.4-6 2.4 1.7-3 0.3-0.7-0.1-0.8-1-0.2-3.1 0.3-1.1-0.6-1-1.4-1.7-3.1-1.9-1.8-3.1-1.6-0.4-0.6 0.2-1.5 2-5.8-0.4-1.2-0.8-1.2-0.6-1.1-0.2-1.4 0.1-1.8 0.5-1.7 0.5-0.9 5.8-1.9 1.5-1.1 0.8-1.6-0.1-2.3-0.4-2.1-1.7-2.5-0.4-0.7 0-1.5 1.5-3 0.3-1.3-0.1-1.4-0.9-1-0.8-0.2-1.9 0.3-1-0.3-0.7-1.2-0.3-2-0.2-4.2-0.5-2.6-1.2-1.9-1.5-0.4-3.1 0.1-1-0.3-0.6-0.9-0.4-2 0.1-3.7 1.4-6.7 0.4-3.1-0.3-2.9-1.4-4.5-1.2-2.4-2.4-1.7-1.5-0.5-1-0.5-0.3-0.8 0.7-1.3 0.2-1.3-0.1-1.4-1.4-2.2-0.6-1.8 0.7-2.3 0.7-1.6 0.8-1.3 1.9-2.1 0.6-1.7 0.4-2.6 0.9-1.9 1.7-1.2 2.7 0 2.1 1 1.8 1.2 1.4 0.2 1.5-0.7 1.9-2.2 1.2-2.5-0.2-5.8 0.1-1.4-0.2-1.1-0.9-1.1-0.3-1.1 0.3-1.2 1.4-1.9 0.9-2 1.2-3.7-0.2-0.9-0.3-0.8 0.1-1.2 3.5-3.6 1.5-1.1 1.4-0.1 1.9 0.6 0.7 0 4.3-1.8 1.8-0.4 1.9 0 2.9 0.7 1.5 1 1.6-0.6 0.7 0.8 1.3 0.7 2.7 0.8 1.2 0.6 1.6 2.1 0.5 3.3 0.3 1.1 0 1.2 0.3 1.1 0.7 1.2 2.1 1.5 1.5 0.6 7.2 0.8 3.3-0.4 4.5-1.6 2-1.3 1.8-1.7 3.4-6.7 2.7-3.2 10.9-3 1.6-0.9-0.2-2.2 3.1 1.5 1.8-0.1 2.1-0.6 8-5.3 0.9-1.5 0.1-1.4-0.1-1.1 0.1-0.9 0.4-0.8 1.3-1.5 1.1-0.4 1.2-0.2 2.9 0.4 1.3 0.7 6.3 0.8 1.4-0.5 1.5-1.5 5.1-1.8 10.8 8.9 1.4 1.6 0.4 2.4-0.6 3.5-5.9 18.8-1.4 2.8-1.3 1.3-1.1 0.3-1.9-0.3-0.9 0.3-0.7 1-2.4 4.8-0.8 1.4-0.3 1.5 0.5 1.3 0.9 0.8 1.2 0.6 0.7 0.9 0.2 1.6-0.1 2.7-0.4 3.6-0.7 2.6-1.1 1.9-3.9 2.7-3.1 2.9-1.4 1-1.4 0.3-1-0.4-0.8-0.9-1-2.1-0.5-0.5-4.2-0.8-5.2-2-1.2-0.2-0.6 0.1-0.2 0.8 0 1.4 0.2 3.5-0.5 1.9-1 1.6-3.6 2.4-0.3 1.3 0.7 2 7.8 17.4 1.3 4.2 2.3 11.6 1.4 4.6z"
     id="SWE186"
     name="Västmanland" />
  <path
     d="M161.9 2016.3l-1.3 1.5-0.3 1-0.4 2-0.1 2 0.3 1.9 0.6 1.7 1.5 2.9 1.3 3.1 1 0.4 0.9-0.4 0.7-0.7 0.5-0.7 1.2-2.2 0.7-0.7 1.5-1 0.7-1.1 0.4-1.5 0.4-0.4 0.6-0.3 1.4 0 9.4-2.5 1.3 0.1 1.1 0.3 2.1 0.9 2.5 0.5 1.3 0.8 0.9 1.1 2.9 1.2 1.5 1.2 1.3 1.3 0.7 2.1-0.1 1.7 0.1 1.4 0.4 1.2 2.5 2.8 4 2.5 0.4 2.6-0.4 1.6-1.2 2.6-1.5 1.9-1.2 1.1-1.5 0.8-6.3 1.8-2.9 1.7-1.1 0.3-5 0-1.2 0.2-2.6 1.2-1.3 0.2-0.4 0.4-0.4 0.7-1 2.1-0.5 1.7-0.2 2 0.1 3.9-0.4 6.8 0.1 2.1 0 1.2-0.1 0.8-0.5 1.2 0.2 0.5 1.8 1.8 1.4 2 5 9.3 1.5 3.3 0.8 2.7 0.5 4.2 0 1.9-0.1 1.3-0.2 0.7 0 1.1 0.3 2.4 1.2 3.6 2.2 3.3-3.7-0.6-2.4 0.4-2.2 0.8-5.4 3.4-1.8 1.5-1.6 1.7-1.4 1.9-1.9 1.9-1.7 0.7-1.2-0.1-0.9-0.7-0.9-1-1-0.8-10.5-1.9-2.4-0.9-0.4-0.5-0.3-0.8 0-1.2 1-3.4 0-0.9-0.3-1-0.7-1.2-3.4-2.4-1.5-1.8 0.7-1.5 1-2.9 0.4-2.9-0.3-2.7-2.3-6.3-1.4-6-1-1.7-2.3-0.6-1.8 0.1-3 1.2-1.2 0.1-1.2-0.1-1.1-0.4-3.9-4.5-0.7-1.7-0.5-3-1.1-1.5-1.4-1.3-1.2-2.2-1.6-5.2 0.5-3-0.2-1.6-4.9-3.5-0.3-0.4-0.2-1.4-0.5-0.3-1.2-0.4-0.4-0.3-1.4-2.7-0.8-0.8-2.4-0.5-2-1.3-2.8-0.9-1.4-1.7-0.8-2.4-0.2-3 0.1-0.7 0.8-1.6 0-0.8-0.4-1.4-0.2-1.5-0.4-1.1-0.6-0.9-2.4-1.2-2.3-1.9-1.8-2.5-0.1-2.5-0.6-0.3-1.5-1.6 1.5-2.1-0.3-1.9-2.2-3.7-0.3-1.1-0.2-2.8-0.1-1.2-0.4-0.1-2.3 0.2-0.9-0.6 2.4-2.2 0.8-1.2-0.8-0.5-1.8-0.1-1.4-0.4-1.4-0.8-1.4-1.6 2.1 0 1-0.2 1-0.6-1-0.7-1.2-0.3-2.4-0.1 0-0.9 0.8-0.8 1.1-1.8 1.7-0.6 0.3-0.8 0-0.9-0.3-0.8 0.1-1.7-0.5-1.3-0.9-1-0.8-0.8-0.7-1.7-0.6-0.3-0.6 0.2-1.2 0.7-0.5 0-1.3-1.6 1-1.7 2-2 1.4-2.3-3.6 0 1.7-1.1 0.7-1.3-0.2-1.6-2.3-5.1-0.4-0.5-0.8 0.1-1 1.5-0.6 0.3-1.2 2.1-1 9.6-1.1 2.7-0.5-2.5-1.7 0.5-1.2 0 0.9-3.8-1.7 0.1-0.8-0.4-0.7-0.6 0.9-1.3-0.1-1.8-0.5-2.3-0.3-2.3 0.3-2.3 0.7-1.5 1-1.1 1.2-0.8-1.3-1.2-1.4-0.7 0.5-0.2 1.1-0.9-1.6-1.5-0.5-0.3 1.1-2.2-0.4-6.1 3.3-0.5 8.6 1.9 5.7-1.1 11.8-5 2.3 4.6 0.2 1.8 0 2.6-0.2 2.3-0.1 4.1 0.1 1.1 0.4 1.1 1.7 2.5 2.4 2.5 1.1 1.5 0.7 1.3 0.1 1-0.1 1.3-0.3 1.4-1.1 2.6-0.3 1 0.1 1.9 0.6 2.3 2.4 6.7 1 1.5 0.8 0.5 2 0.1 1.1-0.3 1.2-0.7 0.9-1.1 0.7-1.2 0.5-1.2 0.6-0.8 3.3-3.1 0.9-0.1 2.8 0.6 2.3 0.1 1.1 0.4 1.1 1.1 3.4 4.6 1.7 0.9 1.1 0 2-0.8 0.7 0 0.5 0.4 0.6 0.9 0.8 0.7 1.4 0.5 6.1 0.9 0.7 0.6 0 0.8-0.4 1.8-1.4 3.1-0.1 1.4 0.6 2 1.2 1.2 2.1 0.7 2.9 0.2 0.6 0.5 0.7 1.2 0.8 1.1 0.7 0.7 4.6 1.6z"
     id="SWE187"
     name="Halland" />
  <path
     d="M262.7 1598.5l0.3 5.3-6.4 4.1-1.2 1.2-0.2 1.1 0.4 0.9 0.9 0.9 2.4 1.7 1.3 1.6 0.7 2.8 0.7 13.4-0.3 9.9 0.2 3.8 0.7 5.9 0.6 2.7 1 3.4 0.6 3 0.6 6.4-0.1 2.2-0.4 0.9-0.9-0.6-0.6-0.2-0.8 0.4-0.7 1.2-0.5 2.4 0 1.9 0.5 1.5 0.9 1.2 1.4 1.4 0.2 0.4 0.3 2.3-0.4 1.6-0.8 1.4-2.5 2.9-0.5 1-0.7 2.5-2.7 6.2-1.7 5.4-1.5 6-1.2 8.9-0.3 4.9 0.1 6.7 0.2 2 1 4.5 0.4 3.1-0.4 5.9-1.1 5.9-4.6-3.3-1-0.6-0.9-0.2-46.2-1.5-2 0.5-2.5 1.7-3 3.2-1.8 2.6-2.6 4.7-1.6 3.6-1.1 3.2-1 3.9-1.7 5.6-0.5 2 0.4 2.3 1 2.4 3.5 6 0.1 1.4-0.8 0.8-2.3 1.1-2.2 0.7-6.6 0-27.2-10.7-5.2-25.3-5.5-9.3-0.7-1.4-0.3-2.1-0.7-6.8-0.6-2.2-0.9-1.5-1.5-1.2-0.9-1-0.8-1.2-1.1-0.8-1.6 0.1-2.6 2.5-1.5 3.3-1.2 1.5-0.8 0.3-1-1-1.1-2.2-0.6-0.6-0.7-0.1-1.1 0.3-1.7 1-0.5 0-0.8-0.2-0.8-0.9-0.7-0.7-3.2-1.9-0.5-0.8-0.2-0.9 0.4-0.7 0.9-0.5 2.7-0.3 0.7-0.5 0.1-0.7-0.7-0.6-1.3-0.2-6.5 2-0.9-0.1-2.4-1.5-3.8-1.5-1.1-0.9-0.6-1.2-1.1-3.2-1.5-1.1-2.1-0.4-4.4 0.9-1.5 1.2-0.3 2.3 0.3 1.4-0.1 0.8-0.3 0.5-0.9 0.8-0.7 0.2-0.9-0.2-6.6-5.7-1.4-0.8-1.1-0.2-1.1 0.8-0.7 0.8-1.2 0.3-0.9 0-5.4-2-1.1-0.2 0-3.3-0.4-3.4-1.7-9.9-8-29.5-0.5-3.2 0.3-3.9 1.4-2.3 10.2-5.6 1.8-2 2.9-4.9 0.5-1.2 0-2.7 0.4-5.7-0.1-2.3-0.9-2.4-2.6-3.5-0.9-2.1 0.5-5.1 3-3.1 4-1.4 12.1 1.2 3.1-0.6 11.1-9.1 11.8-14 2.7-4.5 2.1-5.6 1.1-6.6-0.3-5.5-1.9-9.8-0.7-5.2 0.4-2.5 0.9-2 4.1-5.2 1.5-2.5 1.2-2.9 0.8-3.7 0.6-5.5-0.3-4.8-1.1-4.4-8.4-21.9-8-14.9-2-6.1-1.2-5.5-1.6-11.3-1.4-5.2-2.9-7.2-0.2-3.1 2-2.1 17.5-5.3 4.3-0.3 8.6 1.6 1.6-0.9 0.5-1.7 0.3 0.5 2.2 6.2 0.9 2.1 25.9 28.6 3.2 4.7 1.9 3.7 2.2 7.5 0.7 1.3 0.8 1 1.2 0.6 1.1 0.7 1.2 1.2 10.4 18.7 2.6 5.8 1.2 3.7 0.1 0.3 3.1 5 1 1.3 1.7 1.5 8.5 4.2 2.1 1.9 13.4 22.2 8.1 8.8 1.7 0.9 1.5-0.8 1.3-0.8 0.4-0.7 0-0.6-2.3-2.7-0.8-1.4-0.4-1.3 0.1-0.8 0.6-0.2 0.8 0 3.9 1.8 6.4 0.6 1.2 0.7 1.1 1.5 1.5 3.4 2.1 5.5 0.4 1.7 2 3.2 1.5 4.6 14.7 10.7z"
     id="SWE188"
     name="Värmland" />
  <path
     d="M435.9 956.4l-8.7 28.4-0.8 10-2 9.7-4.9 3.7-3 1.4-17.1 2.5-7.5-1.7-4.4 1.1-7 3.7-5.6 1.8-1.9 4.1 4.2 8.2 1.7 5.1 1.3 7.9 0.2 3.8 0.8 5.1 2.2 2.2 2.9 1.2 3.7 3.7 3.3 7.1 59.5 64.4-0.3 2.3-18.3 6.2-4.8 3.3-16.4 22.5-3.7 6.8-2.9 2.3-3 1.1-32.4 2.3-20.9 9.4-33 8.3-13.4-1.3-10 1.5-2.1 1.4-0.7 1.4 0.6 2 0 1.1-0.1 1.9 0.1 1.5 0.8 1.8 0.5 1.1 0.7 4.6 0.9 2.8 0 1.1-0.4 1-1.4 1.1-0.7 1.3 1 4.8 3.4 3.7 4.5 8.1 3.4 4.1 4.9 4.9 4.6 2.3 5 1.5 5.8-2.2 6.7 0.9 1.6 6.8 2.1 3.9 1.7 2.5 1.1 2.9 0.8 3.7-0.7 3.2-2.2 3.8-21.4 18-0.6 0.8 1.2 6.4 0.3 2.8-0.1 2.8-0.4 2.7-1.1 1.2-0.4 1.2 0.1 1.4 0.3 2.3 0.1 3.1-1 2.1-2-0.1-2.1-2.3-3.9-0.7-3.5 0.6-1.7 3.3-2.7 0.4-2.9-2.5-2 1 1 4.2-0.4 2.1-0.5 0.7-1.1-0.8-0.9-1-5.4-10.2-0.5-1.5-1.4 0.2-2.3 1.7-6.3 9.1-2.4 5.9-1.8 8.3-1.8 14.5-3 6.4-7.5 1.5-6.5-2.8-52.1-9.3-4.6-4.4-1.8-5.8-2.1-4.9-3.6-6.5-2.8-6.8-6.2-11.2 2.4-11.9 1.7-3.9-7.3-6.9-7.4 0.6-10.5-6.1-5.5-8-13.5-12.3-34.4-10.9-2 0.4 0-2.4-2.1-8-14.8-41-0.1-3.2 1-4.6 2.7-8 1.2-4.6 0.1-3.8-4.4-25.3-0.3-3.4 0.8-2.7 8.9-13-12.3-33.9-5-14.1 16-28 1.1-3.3 0-3.7-3.7-17.3 9.3-10 14.3-26 15-25.2 5.6-6 17.1-11.7 19-5.5 26.7 7 26.6 7 1.9 0 1.3-1.7 12.5-25.8 1-3.2 0.1-3.2-3.5-41.1-1.4-4.2-2.7-2-6-1.3-3.1-1.2-22.5-16.3 20-36 20-36.3 10.4-16.6 1.7-5.5 0.6 0.5 27.8 20 4.1 4.9 1.4 2.1 1.2 2.3 0.9 2 5.8 10.3 0.9 0.9 1.3 0.9 3.9 1.5 2.8 1.8 1.4 1.1 1.6 2.3 1 2.7 1.5 6.6 1.1 2.6 0.7 1 0.8 0.4 4.5 0.3 2.9 1.7 3.2 2.6 1.3 1.4 1 1.6 0.7 1.4 2.4 3.1 1.8 1.2 1.5 1.5 0.2 0.5-0.6 0.7-4.6 2.5-0.7 1.3 1.1 1.4 1.7 1.6 1.3 1.5 1.4 2.3 12.6 11.5 2.1 2.4 1 1.7 0.7 1.8 0.5 3 0.8 3.2 0.5 0.7 0.7 0.1 1.9-1 1-4.8 0.5-1.9 1-2.8 3.1-0.6 1.5 2.1 0.9 2 0.6 6.9 0.9 3.9 1.7 3.3 14.9 12.8 2.9 4.1 1.9 6.7 1.6 3.7 1.1 1.2 5.4-1.9 2.9 0 2.2 1.1 3 2.1 36.4 41.3z"
     id="SWE189"
     name="Jämtland" />
  <path
     d="M803.2 766.4l-0.1 2-1.8-0.4-0.2 0.5-0.8 0.4-0.2-0.2 0.3-1.1-0.2-1.2 1.5-1.3 1.5 1.3z m9.1-5.1l-1 0.2-0.3-0.1 0.5-0.9 0.1-0.9-0.8-1.6 1.1 1.1 0.7 0.8 0.3 0.1-0.6 1.3z m-2.7-0.7l-0.3 0.3-1.1-0.3-1.6-1.9 0.3-0.8-0.1-0.5 0.9-0.7 1.4 1.9 0.6 1.2-0.1 0.8z m19.5-10.1l0 1.1-1.6-0.6-0.8-0.5 0.3-0.6 1.2 0 0.9 0.6z m-4.3-1.3l0.6 1.7-1.1-1-1.1-1 0.2-1.3 1.4 1.6z m-3.3 0l-0.5 0.2-1.2-1.1-0.6-1-1.9-1.8-2-1.8-0.3-1.5 0.6-0.9 0.8-0.1 0.6 0.7 1.5 0.1 0.7 1.1 0.5 0.2 1.3 1.8 0.3 0.9-0.1 0.7 0.3 1.1 0 1.4z m7.3-14.3l-0.6-0.3-0.4-0.7 0.6-0.1 0.4 1.1z m-6.5 2.8l0.2 1.5-0.2 1.2-0.5 0-1.2-2.2-1.1 0.5-0.8 0.2-0.3-0.5-0.8 0-1.6-0.6-1.3-2.7-0.7-2.4 0.6-0.4 1.5 0.2 1.1 0.5 0.6 0.9 1.3 1.5 2 1.2 0.6 0.4 0.6 0.7z m38.7-9.8l-0.2 0.2-1.3-1.4 0.4-0.5 1.2 0.4 0.1 0.8-0.2 0.5z m-42.5-1.6l0.4 1.1-1.6-0.2-2.2-0.9-1-1 0-1 0.7-0.6 1.2 0.4 1.4 0.7 1.1 1.5z m6.4-5.9l1.2 1.7-0.8 0.7-0.4-0.5-1.2-0.3 0.2-0.8 1-0.8z m43.3-0.3l-1.3 0.6-0.6-0.2 0.6-1.1 0.5-0.7 0.7 0 0.8 0.5 0.1 0.5-0.8 0.4z m0.8-4.3l-0.7 0.5-1.1-0.9-0.3-0.8 0.2-0.8 0.7-0.2 0.7 0.8 0.5 1.4z m-54.9-2l1.7 1 1.2 1.5 1.3 1.9 0.9 1.8 0.4 1.2-1.1 0.4-1.6-0.7-0.9-0.6-1.3-1.1-0.5-0.5-1.3-1.8-1.1-2-0.3 0-0.2 1.3-0.5 0.6-1.6-0.6-1.7-1.2-0.4-0.7 0.2-0.8 0.8 0.1 1.7 1.2 0.2-0.1 0.3-1.4 0.9-0.4 1.4 0.2 1.5 0.7z m6.5 2.1l-2.5-0.7-1-1.7 0.3-0.6 0.8 0.7 1.3 1.1 1.1 1.2z m44.9 3.2l-0.7 0.2-1.3-2-1.3-1.5-1.2-2 0.2-1.1 0.5 0.4 0.5 1.1 0.6 1 1.6 1.1 0.8 0.3 0.6 0.9-0.3 1.6z m-30.8-2.2l-0.5 0.5-1.7-0.7-1.5-1.4-0.3-1.2 0.5-1.3 1.1-0.3 1 0.7 0.8 0.8 0.5 1.3 0.1 1.6z m37.6-4.5l-0.7 0.2-0.5-0.2-0.4-0.5-0.8-1.5 0-0.8 1.2 0.1 1.1 0.4 0.6 1-0.1 1-0.4 0.3z m-35.1-0.2l-0.5 0.3-0.7-0.6-0.5-1 0.2-1.2 1-0.2 1.3 1 0 0.7-0.8 1z m5.5-5.7l-0.4 0.3-0.5-0.1 0.3 1.9-0.7-0.3-0.7-1 0.5-2.1 0.3-0.4 0.7 0.6 0.5 1.1z m21.7-3.7l-0.6 1.6-1.7 1.3-0.9 0.6-6.1 0.4-0.7-0.6 0-2 0.7-1.9 0.9-0.4 0.7 0.6 0.4 0.9 0.8 0.7 1.5-1.1 1.4-1.8 1.5-0.1 1.3 0.8 0.8 1z m15.7-0.2l-0.5 0.3-1.7-0.3 0.3-0.9 1.2-1.3 1 1.7-0.3 0.5z m0.8-4.2l0.6 0.3 0.6-0.2 0 1.8-0.9-0.7-0.3-1.2z m-30.5 9.1l-0.1 1.1-0.9-0.4-1.4-1-3.6-0.9-0.4-0.7-0.4-2.1 0.1-1.6 0.2-0.7 0-1.8 0.7-1.1 1.4 0 2.7 1.6 0.4 1-0.6 0.8-0.1 1 0.8 1.5 0.8 1 0.3 0.9 0.1 1.4z m38.2-9.8l0 1.1-0.5 0.5-0.6-0.3-0.8 0-0.4-0.5 0.4-0.6 0.2-1.1 0.5-0.7 0.6-0.2 0.7-1 0.2 0.7-0.3 2.1z m-50.3-3l0.9 2.2-1.4-0.8-0.5-0.6-0.1-0.4 1.1-0.4z m-3.3-2l0.1 0.6-0.2 1-1.2-0.7-0.1 1.3-1.1-1-0.5-0.4-0.1-0.9 0.9 0.1 1.5-0.3 0.7 0.3z m40.7 5.6l-1.8 0.1-1.8-0.4-0.7-0.6-0.4-0.9-0.3-1.1 0.4-1.8 0.9-1.3 1.7-0.4 1.2 1.6 0.6 1.3 0.7 1.5 0.2 1.3-0.7 0.7z m11-3.6l-0.8 0.3-1.8-1.1-0.8-1.7 0.8-0.5 1 0.5 1 1 0.6 0.9 0 0.6z m-47.1 1l-0.5-0.6-0.1-1.7-0.2-0.9 0-1.3 0.4-0.3 1.1 0.4 1.3 0.9 0.2 1-0.7 0.6-0.2 0.7-1 0.6-0.3 0.6z m47.9-5.3l-1.6 0.1-0.3-1.7 1.3-0.7 0.7 0.9-0.1 1.4z m62.7-2.4l-0.4 0.7-0.5 0.4-0.5-0.1 0.3-0.6 1.1-0.4z m-71 3.5l-0.7 0.3-1.2-0.3-1.6-0.9-1.1-2.4 0.4-1.5 1.4 0.9 0.7 0.8 0.6 0.1 1.2 0.8 0.5 1.2-0.2 1z m-17.7-1.2l-0.3 1.6-0.9-0.4-0.1-1.5-0.6-1.2-2-2.3 0.5-0.1 1.2 0.9 1.2 1.4 1 1.6z m3.4-2.9l-0.4 0-0.6-0.5 0.3-1.2 0.8 1-0.1 0.7z m-9.2 2.1l1.2-0.2 0.6 0.6 0.7 1.4 1.7 1.6 0 1.7-1.1 0.8-0.9-0.2-0.8-1.6-1-1.2-1.1-0.8-1.1-0.3-0.7 0.6 0.3 1.5-0.2 0.2 0.1 1.7 0.8 1.4 0.2 0.8-0.4 0.1-1.1-0.6-3.6-4.6-1.9-3.4-0.5-2.2 0.9-0.8 1-0.6 1.1 0.3 5.8 3.8z m37.8-3.8l0.7 0.8-0.2 1-0.7 0.5 0.4 1.6-0.3 0.4-0.6-0.6-0.4-0.7-0.4-2.1-0.4-0.8-1 0.1-1-0.4-0.5-1.2 0.5-0.8 1.3 0.7 1.5 1 1.1 0.5z m-8.7-1l-0.8 0.9-0.7-0.1-0.7 0.8-0.9 0.4-0.5-0.7 0.4-2 0.9-1 1.7 0.1 0.6 1.6z m9-0.3l-0.7 0.5-1.1-0.5-1-0.9-0.1-1.2 0.8-0.9 0.9-0.1 0.6 0.4 0.9 1.9-0.3 0.8z m-12.5-7l-0.3 1.7-1.2 0.7-0.6 0.8-0.2 1.4-0.4 1.2-0.7 0.6-0.8-0.2-0.8-0.5-0.5 0.5-2.3-1.5-0.4-0.8-0.3-1.5 0.5-1 0.8 0 1.1 0.1 1.3-0.3 3.6-2 1.2 0.8z m84.5 2.3l0.8 1.6 0 1.2-0.4 0.4-0.5-0.1-2.1-1.9-0.5 0-0.3-0.3-0.1-0.9 0.2-0.6 0.6-0.3 0.4-0.5 0.4-1.8 0.3-0.8 0.6-1.1 0.3 0-0.3 3 0.6 2.1z m-104-5.6l-0.1 2.3-1.1-1 0.1-1.3-0.2-0.7 0.6-0.1 0.7 0.8z m16.7 1.3l-1.2 1.2-1.4-0.2-0.9-1.2-0.3-0.8 1-1.3 2.1-0.1 0.7 2.4z m120.4-1.1l-0.5-0.1 0.1-1.1 0.5-0.2-0.1 1.4z m-12.5 0.3l-0.2 0.6-0.7-0.4 0.4-0.8 0.3-1.3 0.5-0.4 0 1.1-0.3 1.2z m-119 0.3l-0.3 0-1.4-1.8-0.9-0.6-0.7-0.7 0.4-0.7 0.7 0.2 0.8 1.1 0.9 1 0.6 0.9-0.1 0.6z m14.4-6l-1 0.6-1.2-0.5-0.4-0.6 0-1 0.3-0.4 1-0.2 1.1 0.5 0.2 1.6z m25.8-0.7l-0.3 0.8-1.3-1.2-0.5-1-0.1-0.8 0.2-0.6 0.4 0 0.4 0.9 0.6 0.7 0.6 1.2z m61.6 0.1l0.3 0.2 0 0.7-1.8-0.5-1.7-1.2 1.4-2.2 1.3 2 0.5 1z m-104.7-3.2l-0.9 0.2-0.7-0.4 0.1-1.1 0.8 0.2 0.7 1.1z m106.9 0.9l-0.1 0.3-0.8-1-0.2-2.4 0.6 0 0.3 1.4 0.2 1.7z m-79.1-3.2l0.8 2.8-0.8 0.4-1.2-0.5-0.5-1.9 0.4-0.7 0.4 0.2 0.9-0.3z m101.6 0.4l-0.4 0.6-0.7-0.7-0.1-0.8-0.5-0.9 0.9 0.4 0.8 1.4z m-84.3-1.8l0.5 2.2-1.3-0.1-0.6-0.7-0.5-1 0.2-0.3 1.7-0.1z m-42.2-0.3l1 0.1 0.1 1.9-1.1-0.7-0.4-0.7 0.4-0.6z m47.6 1l0.3 0.8-0.1 0.8-0.8 0.5-1.1-0.5-1.4-1.3-0.2-0.8 1.2 0.6 0.3-1.2 0.3 0 1.5 1.1z m-27.6 0.1l-0.4 0.9-1.1-0.5-1-0.8 0.2-0.8 0.6-0.6 1.1 0.3 0.6 1.5z m12.1-1.9l0.8 0.7 0.3-0.1 0.2 0.6 0.1 0.9-1.1-0.3-0.9-1.2 0.6-0.6z m-18.7 4.5l-1.4 0.4-1.1-0.2-0.3-0.3 0.3-0.8 0.8-0.9 0.2-0.9-0.2-0.9 0.5-0.5 0-0.9 0.2-0.5 0.7 0.6 0.7 1.3 0.1 1.4-0.1 1.4-0.4 0.8z m100.3-7.2l1 0.4 1.2-0.1 0.6 0.2 0.1 0.7-0.2 1-0.7 0.5-1-0.1-0.8-0.4-0.4-0.6-0.2-0.6-0.4-0.8 0.3-0.5 0.5 0.3z m11.1-1.5l-0.2 1 0.6-0.2 0.1 0.5-0.4 0.2-1.1-1.4-0.7-0.2 0.8-1 0.9 1.1z m3.6-1.8l0.6 1.5 0.9 1.8-0.7 0 0-0.8-0.6-0.4-0.2-0.9-2 0.1-0.4-0.4 1.2-0.8 1.2-0.1z m-130.7 2.7l-0.8 0.1-1.4-0.8-0.3-0.6 0.3-1.1 0.8-0.7 0.9-0.1 0.6 0.1-0.3 1.7 0.2 1.4z m9.6-3.5l0.2 0.7-0.7-0.2-0.6-1.6 0.5-0.1 0.6 1.2z m48.1-0.6l-0.2 0.6-0.6-0.3 0.2-0.7 0.4-0.6 0.2 1z m-0.9-0.8l-0.4 0.6-0.7-1.8 0.8-0.1 0.3 1.3z m28.8 0.5l0.5 1.6-0.9-0.5-0.8-1.4-0.2-0.5-0.7-0.8 0.4-1.5 1 2 0.7 1.1z m-43.5 4.5l-0.2 1.2-0.8-0.4-0.6 0-0.2 1 0.1 1.5 0.7 2.7-1.1-0.7-2.3-2.5-2.1-3.1-1.3-3.5 0.4-3.1 1.3-1 2 0.2 1.9 1.6 0.3 1.4-1.1 0.2 0.1 0.5 1.2 1 1.1 1.2 0.6 1.8z m40.1-2.6l-0.2 0.8-0.4-0.3-0.7-1.2-0.8-0.4-0.1-0.7 0.1-3 0.4-0.8 0.4 0.3 0.4 1.5 0.5 0.8 0.5 1.6-0.1 1.4z m-18.5-5.6l1.2 3.1 0.8 0.8 0.6 0.8-0.4 0.6-0.7-0.2-0.6-0.7-0.7-1.6-0.4-1.2-0.8-0.4-0.5 0.8 0.2 1 0.7 2.1-0.1 1.2-0.2 0.4-0.6-0.2-0.8-1.3-0.3-0.7-1.8-2.4-0.1-0.9 0.5-0.2 0.7 0.8 0.7 0-0.5-0.6 0.2-1.1 1.1-0.8 1 0.2 0.8 0.5z m60.1 0.7l-0.9 0.5-0.3-1.1 1.1-1.4 0.3 1.4-0.2 0.6z m-19.9-0.5l-0.3 1.6-0.5 1.2-0.5 0.7-0.2 0.6 0.1 0.6-0.8 1.2-2.7 2.7-2.9-2-1.4-2.6 0-3.9 0.6-1 0.6 1.6 0.6 0.7 0.4-0.8 0.2-2.1 0.5 0.2 0.8 1 0.9 0.5 0.9 0.2 0.8-0.5 0.8-1 1.1 0.4 0.2-1.2 0.4 0 0.2 0.7 0.2 1.2z m-28.3 0l-1.5-1 0.3-0.5 0.3-1.2 0.4-0.4 0.6 1.5-0.1 1.6z m-14.2-2.2l0.1 0.8-0.5 0.1-0.5 0.6-0.8 0.1-0.5 0.7-1.1-0.1-0.4-0.4-0.4-1.1 0.1-0.3 0.7-0.5 0.4 0.2 0.6-0.6 1.1-0.5 0.6 0.8 0.6 0.2z m49.4 0.4l-0.7-0.6 0.3-1.2 0.5 1-0.1 0.8z m-46.9 0.5l-0.1 0.3-0.9-0.4-1.2-0.9-0.3-0.7 0.8-0.4 1.3-0.3 0.4 0.2 0 2.2z m-34.9 6.7l-0.5 1.6-3.3-0.6-1.5-0.9-0.7-0.9-0.5-1 0.1-1.1 0.3-1.6 0.1-2.4 0.3-2.7 0.8-0.7 3.3 3.7 0.9 2.8 0.7 3.8z m-13.4-13.1l0.3 0.9 0.1 0.8-0.6 0.5-1.4 0.4-0.6-0.2 0-0.7 0.4-1.3 0.4-0.3 0.6 0.3 0.8-0.4z m100.9 0.6l-0.1 0.7-1.2-0.6 0.6-1.2 0.9 0.4-0.2 0.7z m-36.9-0.9l-0.5 0.5-0.2-0.7-0.5-1.6 0.6 0 0.7 0.6-0.1 1.2z m-18.1-0.1l-0.7 0.6-0.9-0.4-0.5-1-0.1-0.9 0.8-0.2 1 0.6 0.4 1.3z m69.4 0.1l-0.3 0.1-0.7-2.5 0.9 0.1 0.2 0.9-0.1 1.4z m-131.8-0.8l0.7 0.9-1.1-0.3-0.7 0.6-0.6-0.4-0.3-0.5-0.1-1 0.5-0.9 1.6 1.6z m128.6 0.3l-0.5 0.7-0.9-0.6 0.5-1 0.4-0.6 0.5-0.1 0.5-0.7 0.5 0.1-0.2 1.5-0.8 0.7z m-102.5-0.6l-0.1 0.2-1.4-1-1.4-2.3 1.6 0.4 1.3 2.7z m-20.8-0.7l-0.1 0.6-0.5-0.3-0.9-0.9-0.3-1 0.1-1.4 0.5-0.3 0.5 2.4 0.7 0.4 0 0.5z m21.8-1.8l0.3 2-0.7-0.7-0.9-2.9 1.3 1.6z m-90.1 134.3l-2.5-1.6-21.3-15.8-87-26.5-31 11.1-5.7 7.5-9.3 6.4-4.3 1.9-1.9 0.5-1.5-0.5-1.2-1.1-0.2-0.5-0.1-1.7-1.3-1.3-2.3-1.6-0.3-0.6-2.4-1.1-2.2 0-1.5-1.4-0.6-5.5-0.9-3.2-2.1-2.7-4.3-3.4-8-2.3-4.1-6-12.5-6-4.2-4.9-0.5-0.7-2.1-4.6-0.8-1.2-1.4-0.7-10.6-0.4-2.6-1.5-4.7-5.5-8-2.3-4.2-2.6-4-4.1-3.5-5.4-1.6-3.6-1.4-0.4-29-13.5-23.3-18.1-44.6-46.3-29-13-47.9-37.5-27.4-13.8-1.8-1-3.5-20.5-0.3-5.2 18.4-20.5 27.9-55.2 6.5-9 14-14.6 4.5-2.8 2.2-2.2 1.2-3.3 2.2-25.2-0.5-3.4-23.5-43.6 4.1-14.5 1.4-2.4 12.7-2.6 4.6-2.5 4.1-4.7 7.9-13.5 1.6-4.2 11.6-45.9 1.6-4 1.9-2.7 31.1-26.1 6-11.7 1.6-1.5 21.7 13.8 21.7 13.6 1.9-0.6 2.3-3.7 2.3-5 14-28.9 1.6-8.1-4-40.3 0.1-6.3 1.5-19 0.4-2.3 0.8-1.2 19.9-7.9 3.5 2.5 12.3 12.5 4.2 1.2 25.5-2.1 33.5 16.8 33.9 15.2 3.1-0.3 2.9-2.5 17.8-23.4-21.4-13.1 14.3-13.6 6.4-10.8 7.7-22.2 1.1-4.2 0.3-3.9-0.6-18.6-0.6-3.5-18-23.6 39.3-3 4 3.8 9 1.5 5.2 5.3 3.6 1.1 1.7 2.9 0 3.8-1.2 3.4-2.3 1.2-0.2 4.3 1.6 2.5 12.5 5.3 6.1 5.8 4.8 5.1 4.5 8.6 1 1.3 0.4 0.4 0.5 1.8 0.4 0.8 0.7 0.3 5.3 0.1 1.6 1 0.6 2.1 0.5 2.4 2.3 6.4 0.9 2 2.4 2.4 5.8 1.7 6.8 7 4.1 2.9 1.6 6.5 13.7 4.1 3.4 4.4 0.4 1.3 2.2 3.1 1 1.9 0.9 1.2 0.9 0.8 0.1 1.4 0 1.4 0.1 1 2.6 2.3 17.4 0.2 5.1 1.6 0.3 0.5 0 2 0.3 0.4 5.9 0.5 4.9 2.8 3.3 0.4 3.2 2.3 1.4 0 1.3-0.5 1.4 0 2.1 2.2 2.2 3.7 2.3 2.7 4.5-1.9 1.9 2.1 3.1 6.9 2.2 2.9 11.2 7.9 1.1 1.6 0.5 1.7 0.2 1.7 0.4 1.7 1 2 3.4 4.4 1.2 3.4-0.5 4.7 0.7 1.5 0.1 1.6-0.4 5.1-0.3 1.8-0.1 1.1 0.2 1.9 0.5 0.5 0.6 1.1 1.6 0 6.4-4.6 2.6-0.1 1 1.4 0.8 2.2 3.1 12 0.3 1.7 0.6 1.8 5.6 5.4 2.1 1.7 6.7 8.6 5.2 2 1.5 2.6-0.1 3.5-1.9 3.9-2.5 2.1-5.3 2-2.6 2.2-1.3 3.5-0.3 4.7 0.2 4.9 0.4 4.1-0.1 11.8 0.3 2.5 0.9 3.1 0.8 7.9 0.6 3.3 1.8 5.2 0.6 3.1 0.3 4.8-1.4 1.9-2.7 2.2-2 2.2 0.9 2.4-1.5 4-1.7 3.5-0.9 3.8 1 4.9 2.5 3.3 2.8-0.2 3-1.4 3-0.3 5.2 3.4 5.1 1 1.7 0.8 0.9 1.4-0.1 4.4-0.9 5.6 0 4.5 2.6 1.7-1.7 6.1-2.1 3.3-8.6 4-1.4 1.8-0.7 3-0.2 3.8 0.4 1.4 1.4 0.8-0.6 2.5-0.7 2.1-0.9 1.8-0.9 1.6 0.6 3.8 1.3 2.5 1.6 2.2 2.1 4 0.7 0.9 0.7 1.2 0.3 2.1 0 2.5 0.1 1.6 0.4 1.4 0.5 1.8 2.8 6.3 1.7 3 1.4 1.3 2.3 1.1 1.8 2.6 4.3 9.8 3 4.1 1.5 2.8 2.1 5.2 3.1 9.5 0.2 1.4-0.4 1.7-1.1 0.6-1.8-0.1-1.6 0.5-1.1 3.4-2.5 4.3 0 1.4 0.8 7 0.1 3.9-0.4 3.8-0.5 3.5-0.7 3.1 0.5 3.4 0.3 3.4-0.1 3.3-0.7 2.9-1.6 1.7-4.1 2.9-0.1 2.1-1.5 1.8-2.3 1.3-1.8 1.6 0 3.1-1.9 0.7-2.2 1.7-1.9 2.9-0.7 4.3 0.3 2.3 1.4 3.5 0.4 1.9 0.1 2.6 0.4 3.4-0.1 2.6-0.2 1.9-0.7 2.5-0.1 1.9 0.2 2 1.2 4.3 0.6 4.8 2.6 9.5 2 3.2 2.7 2.4 7.8 2.9 1.7 2.3 4.1 12.5 0.7 1.7 0.7 1.2 1.9 2 0.8 1.2 0.7 2.6 1.9 9.3 0.2 2.8-0.2 4.1 1.6 3.7 2 3.6 1.7 7.3 2.9 5.2 0 3.3-1.7 3.4-2.7 0.5-5.5-1.5 0.9 2.1 0.7 0.4-1.9 1.1-3.6-0.8-1.8 1-0.4 1.1-0.6 3.1-0.5 0.9-0.8 0.2-1.2-1.2-1.2-0.6-0.7-0.6-0.6-1-0.2-1.3-0.2-1.6-0.5 0-0.8 1-3.7 0-1.8-0.7-0.8-2.4-0.7-3-1.7-1.3-3.7-0.2-1.2 0.9-1.9 4.1-1.1 1.3-0.9 0-0.5-0.9-0.7-1.6-6 0-3.3-1.1 0.5-2.6-0.5-0.8-1.1 0.2-0.9 0.5 0 0.4-0.6 2.3-0.5 0.6-1.1 0.7-0.5 1.2 0.9 0.8 0.3 1 0 1.4-0.1 1.8-0.2 1.5-0.4 0.3-0.7-0.4-1.3-0.2-1.3-1.2-0.8-2.8-0.3-3.3 0.3-2.7-1.6 0.3-1.1 1.5-0.9 1.9-1.1 1.2-1.7 0.1-1.6-1.4-2.9-3.6-1.2-0.8-1.4 0-0.9 1.4-0.1 3.2 0.7 2.3 1.1 1.5 2.4 2.4-1.2 0.9-4.8 2.5-0.8 0.8-1.5 2.2 0.1 3.4-2 1.9-1.8-0.4 0.6-3.8-2.2-5-0.9-1.2-4.2-0.5-3.5-2-0.6-0.7-1.6-3.2-1-0.4-1.8 0.7-1.3-0.3-1.8-2.1-2.3-7.6-1.6-2.9-8.5-7.6-1.5-0.5-1.4 0.6 1 1.9 1.9 2.4 0.7 2 0.3 1.6 0.3 4.7 0.3 2.4 0.3 1.8 0.2 1.9-0.3 2.7-0.6 2.5-0.8 2-1.1 1.3-1.1 0.5 0.3-4.3-1.9-2.2-4.3-1.1-1.1 0.8-2.5 2.8-0.9 0.3-0.4-1.6 0.5-2 0.8-1.8 0.7-1-1-2.4-1.1-1.5-2.6-2.3 0.6-2.5-5.5-1.3-2.6 0.4-0.2 3.4-3.2 1.2 3.2 5-0.3 2.2-1 0.2-2.4-1 0.9 1.7 1.1 4 1.2 1.8-2.7 4.8-3-1.5-3.1-3.1-2.7-0.2 1.6 3 1.5 1.7 1.8 1 5 1.2 1.6 1.4 1.2 3 0.8 5-0.9-0.1-1 0.1-0.9 0.5-0.8 0.9-0.8-4.4-1.6-2.2-2-0.1-1.8 1.6 0.6 0.9 0.2 1.2-0.2 1.5-0.6 1.5 0.6 1 0.5 1.6 0.9 3.6-1.7 1-5.5 0.3 5.6 2.3 2.8 0 1.4-3.6-0.4-1.9-1.8-2.6-0.4-1.7 0.7-1.6 1.1 0.8 1.2 1.8 0.7 1.5-0.6 1.1 4.1 2.1 0.4 1.1-3.4 2.8-0.5 1.6 0.8 1.5 1.7 1.2 2.9 1.1 0.5 0.8 0.5 1.8 0.8 3.6-1.8 1.3-1.4-1.5-1.2-2.3-1.5-1.2-2.3-0.5-1.6-0.9-1.8-2-0.9-0.3-0.9 1.2 0.4 2.6-2.1-0.6-7.7-5.8-5.7-2.5-2.3-3.2-1.1-1.2-3.2-0.9-2.6-3.1-4.7-1.7-1.1-1-0.7-1-1.6-3.5-1-1.4-2.3-1.7-1.1-1.5 1.8 7.5 4.5 4.8 9.3 5.4 6.2 6.2 5 2.5 1 1 1.2 1.6 1.7 3 1 0.8 1.4-0.1-1.9 1.7-4.3 0.1-2.1 0.7-0.6 0.7-0.3 1.2-0.4 1.3-0.7 0.7-0.7-0.9-0.7-1.1-0.7 0-2 1.4-10.4-3.5-1.5 0.2 3.5 6.2 2.1 2.2 1.7-1-1.6-2-0.6-0.4 1.9-0.2 4.4 5.9 2 1.8-0.6 2.5-0.4 2.2-0.5 1.6-1.1 1.1-1.2-0.1-1.1-1.3-1.8-3.5-0.8 2.1 0.3 1.9 0.5 1.7 0 1.8-1.1 1.4-1.6 0.2-1.4-0.8-0.6-2-2.2 2-2.3 1.2-2.3 0.1-6.4-2.6-1.3 0.4 1.1 2.6-3.6 0.2-1.8-0.6-1.6-3.3-1.8 0-3.2 1.2 0 1.1 3.1 1.5 1.1-0.1 0 1.1-5.5-0.9-2.9 0.7-1.4 2.8 0.4 0.2 1.1 1-3.1 2.5 1.6 0.5 1.6 1.1 1.5 1.8 1.2 2.2 1.2 1.4 1.7 0.5 1.4-0.9 0.1-2.9 1.5 0.6 1.3 1.3 2.4 3.2 2.5 2.1 1.1 2-0.2 2.6-2.4 3.4-3.4 2.2-3.4 0.4-2.5-1.6-0.7-1.9-1.4-4.6-1-2.3-1-1.7-1.2-1.6-1.3-1.1-1.6-0.4-2-1.9-2.3-4-2.5-3.2-2.5 0.3 0.4 0.3 1.1 1-1 2.3-3.1 0.2-1 2.4 9.5 2.7 2.4 2.4 4.5 8.6 4.2 5.4 5.4 11.2 0.7 3.8-1.4 1.6-4.2 0.3 1 1.1 0.4 1.5-0.1 1.9-1.3 5.2 0.4 1 1.2 0.4 1.5 1.1-0.3 0.3z"
     id="SWE190"
     name="Norrbotten" />
  <path
     d="M508.8 1261.9l-1 0.4-0.7-1.6-0.3-2.3 0.4-1.8 1.3-1.3 1.7 0.5 1.2 0.7 0.3 0.4-0.4 1.3-1.4 2.2-0.3 0.8-0.8 0.7z m29.4-75.8l-0.7 2-5.9-2.8-0.3-0.6 0.5-0.7 0.5-0.5 3.9-0.5 0.4 0.4-0.1 0.5 0.9 0.2 1 0.9-0.2 1.1z m-0.5-15.7l0.8 0.5 1.9-1.1 1.6 0.3 0.8 0.5 0.1 1.3-0.3 2.3-0.7 1.6-0.1 1-0.3 0.5-0.9-0.2-0.8 0.2-0.3 0.8 0.6 0.4 0.4 0.9-0.4 0.9-3.4 1.4-4-0.8-1.5-3.5 0.7-2.7 0.7-2 0.2-1.8 1-1.5 1.8-0.6 1.3 0.6 0.8 1z m8.7-1.2l-0.6 0.4-0.3-1.4 0.3-0.8 1.2-2.2 0.7-0.7 1 0.1 0.1 1.2-1 0.9-1.4 2.5z m-15.2-0.7l-0.8 1-0.4-0.3-1.8-2.9-0.4-1.5 0.1-0.8 3.3 0.7 1 0.9 0.5 1.3-0.4 1.1-0.6 0.5-0.5 0z m-9.1-21.8l-0.6 0-0.2-0.8 0-0.8 0.4-0.4 0.6-0.3 0.8 0 0 0.8-1 1.5z m57.7-15.4l-1.8 1.6-0.5-0.8 0.4-3.6 0.2-0.7 1.8-2 0.6 0.2 0.1 1.2-0.1 1.6-0.2 1.5-0.5 1z m-10.4-5.4l-0.6 0.2-0.5-0.7-0.2-1 0.5-0.4 0-0.7-0.3-0.8 0.2-1.5 0.6-1.3 2.4-1.6 0.3 0.9 0.6 0.4 0.9 0.1 0.3 0.7-0.7 0.3-0.6 1.3-0.2 1.3-0.3 0.6-1.8 1.2-0.6 1z m8.1-6.3l-0.7-1.1-0.2-2.1 0.9-1 0.7 0.6 0 1-0.5 2.1-0.2 0.5z m8.7-2.4l-0.4 0.8-0.2-1.3 0-1.3 0.1-1.1 0.4 0.3-0.1 1.2 0.2 1.4z m6-11.3l-1.7 0.8-0.6-0.2-0.7-1.4 0.4-0.6 2.6 0.5 0 0.9z m-9.8 0.6l-0.6 0.4-1-0.6-0.5-0.7 0.1-1.4 0.6-1 0.5 0.2 0.4 0.7 0.3 0.9 0.2 1.5z m12-2.3l-0.6 0-0.4-0.8 1.4-1.4 1.2 0.2-1.6 2z m4.1-6.4l-0.3 0-1.1-0.6 0.4-0.9 1.4-0.2 0.2 1-0.6 0.7z m21.6-13.9l-0.2 0.3-1.1-0.9-0.5-1 0.9-0.3 0.8 1.1 0.1 0.8z m10-32l-0.4-0.4-1.3-1.1-1 1.2-0.3 2.9 0 5.9-0.1 1.6-0.3 2.7-0.1 1.5 0 5.2-0.8 2.2-1 1.2-0.9-0.6-0.4-2.8-1.6 2.7-3.8 1.2-1.8 1.8 0.4 0.5 1.1 1.9-0.9 1.1-1.4 3.9-0.8 1.9 1.6 0-1.3 2.8-1.4-0.2-3-3.8-1.4 3.6 1.3 2.1 2.3 0.9 1.9 0.2-0.6 2-0.9 0.2-0.9-0.2-0.9 0.9-0.5 1.7-0.2 1.4-0.5 0.8-1.2 0.2-0.3-0.7-2.1-2.9-0.4-0.5-0.7-1-1.5-1.7-0.7-1.2 0.4-2.2-0.9-1.2-1.3-0.8-1-1-1.3-1.8-1.6-0.9-1 0.6 0.5 2.7-1 0.5-4.2-1.7-3.1-0.3-1.4 0.4-1.2 1.1 1.6 1.7 11.9 5.2-1.5 2.4-2.3 0.9-5 0.1 0.5 2.3-1.2 1.7-1.1-0.2-1-1.4-0.3-2.4-0.2-2.7 1.6-0.7 3.7 0 0-1.3-7.1-2.1-2.2 1.1 1 1.1 0.5 1.4 0.2 1.5 0.4 1.7 1.7 4.3 0.4 1.4-10.9-3.6-3.6 0.2 0 1.1 1.6 0.1 1.8 0.9 1.5 1.4 1.1 1.7 0.6 1.8 0.4 2.1-0.2 1.6-1.1 0.7-1.6-0.7-1.5-1.2-1.5-0.6-1.6 1.4-0.6 1.5-0.3 1.9-0.5 1.9-1.2 1.5 2.6 0-3.4 3-1 0.4-0.5 0.9-0.5 4-0.6 0.9-0.8-0.5-2.5-4-1.1-1-1.2-0.4-1.2 0.3-1.2 1.1 2.5 2 1.3 1.4 0.9 2.1-5-1-0.9-2.1-0.3-0.7-0.7-0.4-0.2 0.6-0.1 1.7-1.1 1.9-1.9 1.3-4.3 1.1 1.8 1.6 19.5-0.3 2 1 1.5 2.2 0.5 2.4-0.7 0.8-1.1-0.8-0.7-2.4-0.6 0-0.6 3.2-1.8 0.7-2.1-0.6-4.4-2.7-1.1 0.7-0.8 3.3 3.5 2.8 1.1 0.6 2.8-1.1 1.5-0.2 0.9 1.3-0.8 3.4-3 0.4-5.5-1.5 1.1 2.3 3.7 1.6 0.8 1.7-0.2 1.5-0.7 1.1-0.8 0.7-1.9 0.5-0.6 0.7-0.6 0.7-0.8 0.7-1.7 0.8-0.8 0.1-1.5-0.6-1.2-0.1-0.5-0.2-0.3-0.5-0.3-1.9-2.4-3.4-1.2-1.2-1.5 0 0.5 2.4-3.7 0 0 1 0.9 0.6 0.1 1.2-0.3 1.4-0.7 1.4 1.7 1 2.5-3.1 1.6 1.1-1.9 5.1-1.1 1.9-1.5 0.8-0.7 0.7-0.7 1.3-0.8 0.8-0.9-1 0-1.1 0.4-1.3 1-1.7-1.1-0.6-0.7 1.3-0.6 2.1-0.8 1.8-1.4 1.4-1.5 0.2-3.3-0.5 0.6-2.2-1.2-1.1-1.5-0.4-3 0.3 1.9-2.8 6.6 0.9 1.8-2.7-3.1-1.5-1.5-1-1-1.9 0.4-1.2-1.7 0.5-2.6 1.9-2.4 2.6-1 2.4-0.5 0.6-1.3-0.6-1.2-1-0.7-0.8-0.1-1.5 0.1-5.8-0.8-2-0.2-0.9 0.2-0.8 0.8-2-0.3-2.5-0.9 0-1.2 0.8-1.2 0-0.5-1.3-1.3-6.1-0.7-1.4-0.7-1.1-0.9-0.8-1.1-0.7 0.6-0.7 1-2.7-1.7 0.3-2.3 2.5-1.2 0.6-1.4-0.7-1.2-1.4-1.2-1-1.3 0.8 9.3 8.5 2.3 3.5 1.4 3.2 1.8 5.2 0.9 5.2-1.2 2.8 0 1.2 3.2 2.4 0.9 1 1.2 1.9-0.1 3.2 0.6 1.9 2.4 4 0.6 3.1-0.2 1.8-0.7 2.8 0.1 1 0.4 1.6-0.3 0.9-0.7 0.3-0.7 0.1-0.5-0.3-1.8-1.6-0.8-0.3-4.7 0 1.5 2.1 11.5 5.2 0 1.8 0.3 1.4 0.5 1 0.7 0.8-1.6 0.6-5.6 5.2-0.5-0.5-0.1-2.1-0.6-4.8 0.1-1-0.3-0.5-1-0.2-0.4 0.6-0.4 1.2-0.8 5.2-0.2 2.6-0.2 1.3-0.7 0.6-1.7 0.8 1.1 2.2-2.4 4.4-1.4 1.8-1.4 0.6-0.9-0.6-1.3-2.2-0.7-0.5-3.8 0-3.2 1.4-1.6 1.3-1 1.8 0.1 2.8 1.2 1 1.5 0.8 0.9 2.1-9.9-0.5-1.1-0.5-0.9-0.8-1.4-2.3-0.4-0.4-3.4-6.7-3.2-5-0.9-0.7-1.6 0.9-0.8 3.9-1.2 0.9-1.5 0.3-1.3 1-0.8 1.7-0.1 2.5 3.4 5.7 0.2 0.6 0.1 1.3 0 1.5 0 1-0.6 0.7-0.9 0.4-0.9 0.1-0.7-0.1 0.8 0.9 0.9 1.4 0.4 1.8-0.4 2 0 1.7 0.6 2.1 0.9 1.7 0.9 0.7 2.4-0.6 1 0.3 1.3 1.4 0.6 1.4 0.5 1.8 0.6 1.5 0.8 1 0 1-0.7-0.1-0.4 0.3-1 1 6.6 3.9 1.5-0.8 2.4 0.7 2.5 1.4 1.6 1.4-6.3 4.4-1.9 0.6-0.2-0.8 2.1-4.2-1.3-0.8-1.3 0.3-1.2 1.2-0.8 1.5-0.4 2.4 0.1 2.6 0.2 2.4 0.1 1.5-0.5 2.1-0.3 0.5-18.4-3.6-3.4-1.3-15-0.4-39.5-11.4-21-1.6-44-15.4-3.5-0.5-3.8 1.5-13 10.9-6.7-0.9-5.8 2.2-5-1.5-4.6-2.3-4.9-4.9-3.4-4.1-4.5-8.1-3.4-3.7-1-4.8 0.7-1.3 1.4-1.1 0.4-1 0-1.1-0.9-2.8-0.7-4.6-0.5-1.1-0.8-1.8-0.1-1.5 0.1-1.9 0-1.1-0.6-2 0.7-1.4 2.1-1.4 10-1.5 13.4 1.3 33-8.3 20.9-9.4 32.4-2.3 3-1.1 2.9-2.3 3.7-6.8 16.4-22.5 4.8-3.3 18.3-6.2 0.3-2.3-59.5-64.4-3.3-7.1-3.7-3.7-2.9-1.2-2.2-2.2-0.8-5.1-0.2-3.8-1.3-7.9-1.7-5.1-4.2-8.2 1.9-4.1 5.6-1.8 7-3.7 4.4-1.1 7.5 1.7 17.1-2.5 3-1.4 4.9-3.7 2-9.7 0.8-10 8.7-28.4 3 3.5 8.8 6.4 62.6 12.1 47.8-16.1 4.8 0 3.1 2.1 0.7 2.2 0.2 1.8-0.4 1-0.6 0.6-2.7-0.2-0.3 0.5 0.3 1.5 4.6 9.3 0.4 1.4 0.7 1 1.1 1.3 4.5 3 1.6 0.6 5.6-0.3 1.3 0.4 3.7 2.2 3.5 1.1 1.5 1.1 1.8 2.2 1.7 1 1.5 0.4 2.9-0.2 1.6 0.7 1.7 1.8 0.9 2.5 0.1 2.6 0.5 0.7 3.8 2 1.6 1.6 2.4 3.5 9.6 17.1 8.1 21.9 0.2 1.2z"
     id="SWE191"
     name="Västernorrland" />
  <path
     d="M637.4 1054.4l-0.5 0.6-0.1-1.7 0.4-1.1 0.4 0.6-0.2 1.6z m7.9-1.5l1.2 0.9-0.5 1.7-1.2-0.8-0.2-0.9-0.4 0-0.7-1.8-0.3-2.4 0.4 0.6 0.4 1.3 1.3 1.4z m28.7-6.5l0.3 2.5-0.5-0.4-0.4 0.6-0.3-1.9 0.9-0.8z m-1.3-8.4l-0.3 1.5-0.5-2.4 0.4-0.4-0.1-1.5 0.2-1.7 0.8 3-0.5 1.5z m68-10.9l0.1 0.8-0.5 0.6-1.1 0.5-0.8-0.8 0.1-1 0.4-0.7 0.7 0.8 0.4-1.5 0.1-0.8 0.5-0.6 0.5 0.3 0 0.9-0.4 1 0 0.5z m-39.4-9.7l0.6 0.4 0.3-0.3 0.5 0.3 0.2 0.8-0.4 1-1.2-2.2z m44.1 2.9l-1.3 0.1 0.2-1.6 2.8-4 0.3 0.1 0.1 1.1-0.4 1.7-0.7 1.5-1 1.1z m-19.9-15.2l0 1.9-0.8-1.4-0.5 0 0-1.3 0.4-0.6 0.4-0.8 0.5 2.2z m24.9 6.5l-1.1 0.9-1.1-0.1-1.1 1.3-0.2-1.8 1.4-8.3 0.6-1.3 0.7-0.7 0.7-0.4 0.9-1.4 1.4-1.4 0.8-0.3-0.5 0.9-0.1 0.6 0.3 0.8-0.1 0.7-0.5 0.8-0.3 1.2 0.2 1.3 0.1 1.7-0.3 2.1-0.7 2.1-1.1 1.3z m-25.7-13.6l0.1-1.5 0.6-1.6 0.4-0.2 0.3 1.1-0.3 1.2-0.5 0.4-0.6 0.6z m26.6 0.2l-3.6 3.4 0.6-1.2-0.6-1.7-0.7-0.5-0.9 0.4-1 0.7 2-5 3 0.5 1.2 3.4z m-16.6-5l-0.2-1 0.8-0.3-0.1 0.9-0.5 0.4z m23.4 0.1l-0.8 0.2 0.2-1.6 0.9-0.6 0.2 0.4-0.1 1.2-0.4 0.4z m37.8-137.5l-0.7 0.2-0.1-1.4 0.6 0.7 0.2 0.5z m-26.8-16.4l0.5 0.2 0.6-1.1 0.9-0.5 0.8 0.8 0.7 1 0.4 1.6-0.1 0.6-1 0.4-4.2-2.3-0.5-0.6 0.1-0.5-0.5-1.5-0.3-1.9 0.3-0.8 0.9 0 1 0.9 0.2 1.1-0.3 0.7 0.1 1 0.4 0.9z m10.7-33.1l-0.7 0.4-0.8-0.4-1.5-2.3-0.3-1.6 0.1-1.2 0.3-0.6 0.6 0.1 1.6 1.5 0.1 0.7 0.6 1.2 0.1 1.4-0.1 0.8z m21.4-34.5l-1.4 1.1-6.3-0.2-0.9 1.3 0.7 2.6 1.4 2.6 0.6 0.9-2.3 2.1-0.7 0.3-0.8-0.3-1.5-1-0.8 0.1-0.4 1.9-0.2 0.5-1.3 1.2-1.1 1.4-0.3 1.6 1.2 1.9-1.3 1.2-9.2 0.6-0.9 0.7-0.2 1.3 0.5 1.1 0.3 1.2-0.4 2-0.6 1.2-0.8 1.5-1 1.1-0.9 0.3 0.7 4.7-1.4 1.9-1.6 1.4 0.7 3.1-1.2 1.1-2.6 1.1-1.4 0.2-1.2-0.9-0.4-1.9-0.2-2.1-0.3-1.3-1.2-0.6-1.2 0.7-0.8 1.8-0.4 2.5 0.4 2.3 0.9 0.9 2.3 1-0.5 2.5 1.4 1.7 1.4 0.7 2.9 0 4.8-1.4 4.8 2.2 1.9 1.5 0.5 2.6-1 0.9-3.9-0.4-1.4 0.6 1.3 3 1.6 2.3 3.4 3.2 0 1.2-1.3 0.1-0.5 0.9 0.2 1.4 1 1.3 0 1.1-2-0.9-3.5-4.1-2-1-1.6-1.3-1.5-2.6-1.5-2-1.9 0.6-0.8 2.3 0.2 3 0.9 2.9 1.3 2 2.1 0.7 2.5 0.2 2.3 1 1.4 3-1.4 0.2 0 1.7 1 2 1.4 0.9 1.6 0.1 0.8 0.3 0.7 0.7 0.4 0.9 0.7 2.2 0.8 1.1 1.1 2.5 0.7 0.5 0.7-0.5 0.2-0.9-0.2-0.8-0.2-0.1 0.5-2.1 0.1-1.7 0.4-0.6 1.6 0.8 1.5 2.4 1.7 3.2 1.4 1.6 0.9-4.4 0.7 0 0.7 0.7 0.3 0.7 0 4.1 0.8 2.1 1.1 1.2 1.3 0.5 1.5-0.1-1 1.2-1 0.9-1.1 0.4-1.1-0.7-1.9-3.6-0.6-0.6-3.7 3.4-2.1 1.3-0.9-1.7-0.3-1.2-0.5-0.6-0.6 0-0.5 0.6-0.2 1.1 0.5 0.5 1 0.2 1.4 3.1 1 0.9 1-1 0.8-0.6 3.1-0.4 0.9 0.3 0.3 0.8 0.6 2.9 0.2 1.2-0.9 2.7 0.1 1.9 0.9 1.1 1.4 0.4 0.8-0.5 0.8-2.5 0.5-0.6 1.6 0.4 1.5 0.8-0.5-2.5 1 0 0.9 0.9 0.6 1.7 0.1 2.3-0.5 1.7-0.9 0.3-1 0-1 1-0.8 1.2-1.9 1.1-0.9 1.3-4.3 7.5-3 3.2-1.5 2.4-1.8 1.6-1.6-1.7-1.4-2.7-1.2-1.5 0.4 1.6 0.1 1.5-0.1 1.5-0.4 1.5 0.5 0.5 0.6 2-1.2 0.5-2.2 1.7-1.3 0.2-1.1-0.7-0.4-0.6-0.5 0.3-9.6 14.9-0.3 0.3-2.3-1-0.3-0.3-0.6 0.9-1.9 5.3-5.9 7.3-1.4 3.3 0.9 3-0.5 3.1-2.9 6.6-0.6 3.7 0.4 0.3 0.1 1.6-0.1 0.5-0.6 0.4-0.3 0.9-0.1 3.4-0.2 1.8-0.5 0.8-0.9 0.3-0.6 0.8-0.5 1.2-1.7 1.1-1.2 2.5-2.9 11.3-0.7 1.6-3.7 3.4-3.3 0.2-0.8 1-0.3 2.3 0.6 1.2 1.1 0.2 1.2-0.2-1.6 4-1 1.7-0.8-0.4-1.6-4-0.9-1.1-1.4-0.2-3.6 4.1-0.2 2.2-0.6 1.4-0.9 0.3-0.8-1 0.7-1.8-0.2-1.5-0.7-1.4-1.6-2.1-0.3-0.2-3.6 8.6-1.4 1.9-1.8-1.1 0.4 1.4 0 0.8-0.3 0.9-0.1 1.5 0.5 3.7 0.1 1.1-0.5 1.9-0.7 1.9-0.9 1.5-0.8 0.6-1.4-0.5-0.7-1.5-0.1-2 0.6-2.5 0-1.7-0.7-2.2-1-2-1.1-0.6-0.6 2.4 0.1 10.4-0.8 4.2-0.9 0.3-1.2-1.2-0.9-1.9-0.1-1.8 0.6-2 0.6-2.3 0.3-2.4-0.2-2.1-1.4 2.2-1.5 3.7-0.7 4.2 0.5 3.9-1.8-0.5-5 0.5-0.7 0.4-0.9 0.7-0.9 0.3-0.8-0.9-0.8-2.4-0.5-0.5-1.4-0.3-1.5 0.5-1.4 1.2-1.1 1.5-0.7 2.3 0.2 1.9 1.3 3.5-5.9-2.9-1.1-0.1-1.2 1.3-2.7 1.6-0.5 0.7-1.2 4.4-2.7 3-3.2 2.4-2.5 2.9-0.2 1.7 1.2 4.5 0.5 3.9-0.3 0.6-1.8 0.6-0.7 0.7-1 1.4-1.7 1.9-1 0.4-3.6-2.3-0.2-2.4 0.3-1.8-0.3-1.5-1.8-1.2 0.5-2.4-1-0.7-2.1-2.9-3.9-1.6-1-1.2-1.6-2.6-1.7-1.4-1.8 0.1-1.9 2.1 0.8 0.9 0.9 0.7 1.9 0.8-1 4.3 0.9 1.3 2 0.6 2.3 2-2.1 1.5-1.1 0.5-1.2 0.2-0.3 0.6 0.7 1.5 3.1 4.5 0.3 1.2 0 2-0.6 0.5-1.5-0.9-2.5-2.4-6.2-8.2-2-1-0.1 1.4 2.1 5.5-1.6 0.8-1.6-1.4-1.1-1.6-0.2-1.2-8.1-21.9-9.6-17.1-2.4-3.5-1.6-1.6-3.8-2-0.5-0.7-0.1-2.6-0.9-2.5-1.7-1.8-1.6-0.7-2.9 0.2-1.5-0.4-1.7-1-1.8-2.2-1.5-1.1-3.5-1.1-3.7-2.2-1.3-0.4-5.6 0.3-1.6-0.6-4.5-3-1.1-1.3-0.7-1-0.4-1.4-4.6-9.3-0.3-1.5 0.3-0.5 2.7 0.2 0.6-0.6 0.4-1-0.2-1.8-0.7-2.2-3.1-2.1-4.8 0-47.8 16.1-62.6-12.1-8.8-6.4-3-3.5-36.4-41.3-3-2.1-2.2-1.1-2.9 0-5.4 1.9-1.1-1.2-1.6-3.7-1.9-6.7-2.9-4.1-14.9-12.8-1.7-3.3-0.9-3.9-0.6-6.9-0.9-2-1.5-2.1-3.1 0.6-1 2.8-0.5 1.9-1 4.8-1.9 1-0.7-0.1-0.5-0.7-0.8-3.2-0.5-3-0.7-1.8-1-1.7-2.1-2.4-12.6-11.5-1.4-2.3-1.3-1.5-1.7-1.6-1.1-1.4 0.7-1.3 4.6-2.5 0.6-0.7-0.2-0.5-1.5-1.5-1.8-1.2-2.4-3.1-0.7-1.4-1-1.6-1.3-1.4-3.2-2.6-2.9-1.7-4.5-0.3-0.8-0.4-0.7-1-1.1-2.6-1.5-6.6-1-2.7-1.6-2.3-1.4-1.1-2.8-1.8-3.9-1.5-1.3-0.9-0.9-0.9-5.8-10.3-0.9-2-1.2-2.3-1.4-2.1-4.1-4.9-27.8-20-0.6-0.5 0.4-1.4 2.1-16.7 1.1-4.5 1.5-2.7 6.2-6 2.4-5.3 0.3-8.4-0.5-9.5-0.1-8.7 3.8-43.2 0.7-2.9 5.1-11.8 0.9-3.9-0.3-7.5-7.9-52.4 38.7-5.2 32.4-22.8 0.8-2.5-0.2-3.8-0.6-6.1-0.4-2.7 1.8 1 27.4 13.8 47.9 37.5 29 13 44.6 46.3 23.3 18.1 29 13.5 1.4 0.4 1.6 3.6 3.5 5.4 4 4.1 4.2 2.6 8 2.3 4.7 5.5 2.6 1.5 10.6 0.4 1.4 0.7 0.8 1.2 2.1 4.6 0.5 0.7 4.2 4.9 12.5 6 4.1 6 8 2.3 4.3 3.4 2.1 2.7 0.9 3.2 0.6 5.5 1.5 1.4 2.2 0 2.4 1.1 0.3 0.6 2.3 1.6 1.3 1.3 0.1 1.7 0.2 0.5 1.2 1.1 1.5 0.5 1.9-0.5 4.3-1.9 9.3-6.4 5.7-7.5 31-11.1 87 26.5 21.3 15.8 2.5 1.6z"
     id="SWE192"
     name="Västerbotten" />
  <path
     d="M589.9 1920.3l1.5 2 0.5-3.7 1.3-1.7 1.3-1.4 0.5-2.5-0.9-2-0.2-1 1.1-0.4 4.7-0.9 0 0.9-1.2 2.4 1.5 1.4 1.8-0.1 0-1.9 1.1-0.8 1.5-0.5 1.5-0.1 1 0.5-0.5 0.9 0.3 1.4 0.6 1.6 0.8 1.3 1.2 0.6 0.7 0.8 2.2 3.9 0.5 1.3-5.3 0.5-2.2 2.1-0.4 5.2-0.8-1.3-1-0.7-0.6 0.3-0.1 1.7-0.7 1.1-0.5 1.5 0 1.6 0.7 1.6-3 0.8-2.8 0.1-0.9-0.3-1.6-1.4-0.8-0.3-1 0.4-0.1 0.9 0.2 1.3 0.1 1.3-1 4.8-1.4 3.5-0.3 1.4-0.7 2-0.2 1.4 0.5 0.3 3.1 1-0.7 2.2-0.5 2-0.3 1.9 0 2.3-0.6 1.8-1.1 2-0.5 1.9 1.1 1.4-0.5 2.2 0.3 1.4 1 0.5 1.3-0.1-0.4 0.7-0.6 2.1 2.9 1.3 3 0.6 0.3-0.4 0.2-0.9 0.3-0.6 1 0.5 1.2 0.9 0.4 0.5 0.5 1 0.4 1.4 0.3 2-0.2 1.6-1.3 0.7-2.3 0-1.1-0.8-0.5-0.1-0.4 0.3-0.9 1.3-0.5 0.3-2.5 0.6-2.3 1.7-2.2 2.3-1.8 2.7-2.8 2.5-1 2 0.5 2.6 0.6 0.3 1.6-0.3 0.6 0.5 0.2 4.4-2.6 1.3 0.1 0.5-6.7 1.6-2.1 1.3 0 1 1.1 0 0 0.9-1.8 0.4-9.3 5.3-1.9 1.6-1.6 2.2 5.2 0-1.7 1.4-5.4 2.9-1.2 1.9-0.5 7.1 0.8 1.8 1.2 1 2.7 1-4.2 0 0 1 1.1 1-2 1.8-0.8 1.1-0.8 2.9-1 0.9-7.1 3.6-2.6 0.5-2.3-1.4 4.9-8.9 0.2-1.2-0.1-1.4-0.3-1.8 1-1.2 2.7-1 1.2-1.1 0.6-1.7 0.6-3.8 0.6-1.6-1.8 1.2-1.6 1.9-1.6 1.4-1.7-0.7 0-1 1-1.2 0.8-1.9 0.2-1.8-1-0.8 0.7-2.1 0.3-0.7-3.2-1.6-1.9-11.8-4.6-4.1 0.1-2.6 1.1-2.7 2.9-2.3 0.9-2.5 0.4-2.9-0.4-2.1 1-1.7-0.2-0.9-0.7-0.5-0.6-0.7-1-1.9-0.1-0.8 0.1-1.8-0.3-0.8-0.8-1.9-0.8-2.7-0.5-3.3-0.1-3.2 1.2-5.2 2.5-4.2 12.3-13.4 10.5-18.4 2.7-3.4 3.8-1.8 1.1 0.2 1.2 0.7 1.1 0.3 1.1-0.7 0.4-1.1 0.5-2 0.4-1.4 1.1-2.6 1.3-2.2 1.5-1.8 1.7-1 1.8-0.3 1.4 0.8 1.1 1.6 0.9 2.6 0 0.8-0.5 1.6 0.2 0.9 0.7 0.7 0.1 0.4 0.2 1.4 0.4 1.1z m33.1-21.4l0.4 2.3 1 0.5 2.4-0.9 2.5 0 1.2 0.6 1.3 1.3-0.5 0.6-0.5 0.3-1.1 0-1.1 1.9-3.6-1.3-1.7 0.9-1.6 1.6-3.2 1.3-1.7 2.5 1 0.9 0.6 0.9 0.1 0.9-0.2 1.3-2.2 4-0.1 0.8-1.2-0.3-1.1-0.6-1.1-0.9-1-1.2-2.6-5.3 0.2-1.7 0.6-1 1.6-2.2 0.5-1.4 0.4-1.4 0.5-1.3 0.9-1.2 1.2-0.4 2.6 0.1 1.1-1.2 0.6 0 1.2 0.4 1.4 0.1 1.2-0.9z m5.2-51.6l-3.1 1.1-2.7-1.7-2-5.8 2.6 0 2 1.2 4.3 1.1 2 1.6-3.1 2.5z"
     id="SWE193"
     name="Gotland" />
  <path
     d="M520.7 1787.5l-0.2 3.9-0.3-0.8-0.2-2.6-0.3-0.7 0.1-1.3 0.6 0.2 0.3 1.3z m-11.1-11.9l-0.3 1.8-0.6-0.8-0.3-0.8 0.2-0.5-0.9-2 0.8 0.5 0.6 1.1 0.4 0 0.1 0.7z m29.4-2.2l-0.1 1-0.5 0-0.4-0.4-0.3-0.8 0-0.6 1-1.8 2.4-2.3 0.4 1-0.4 2.2-0.2 0.6-1.1 0.9-0.8 0.2z m-19.5 0.9l0.7 0.6 0.6 1.9-0.2 2.5 0.3 0.4-0.1 0.9-0.4 0.5-0.7 0.5-0.1 1.1-0.3 0.2-0.8-0.5-3.3 0.1-0.2-0.5 0.5-0.8 1.1-0.9 0.2-1.3-0.1-1.3-0.4-2 0-0.8 0.4-0.6 0.5 0.1 0-0.6-0.3-1.4 0-1.4 0.4-1 0.7-0.1 0.1-0.9 0.6-1.1 0.7-0.3 0.4 0.3 0.4 0.8-0.2 1.2-1.1 1.7-0.8 2.4 0.3 0.2 1.1 0.1z m22.9-7.7l-0.7 0.6 0.1-1.6 0.4-0.5 0.8-0.1 0.3-1.5 0.1-1 0.4-0.6 1.7-0.2 0.5-0.5 0.8 0.4-0.2 0.7-3.6 4.2-0.6 0.1z m-9.5-5.1l-0.5 1.1-0.6 0.7-0.5-0.2-0.4-0.5-0.8 0.2 0-1 2-4.1 0.9-1.2 0.4 0.3 0 0.8-0.7 1 0.3 0.8-0.1 1 0 1.1z m24.5-3.8l-1.1 1.4-1.6 0.9-1.2 0.9-0.6-0.1-0.3 0.7 0.7 1 1.2 0.5 0.1 0.6-2.1 0.5-1.2 0.6-2.6 0.8-1.7 1.2-0.7 0-1-0.8 0.2-1.3 1.1-2.2 1.2-1.4 2.7-2.2 1.1-0.3 1 0.1 0.7-0.2 0.5-0.4 1.2-0.6 2.2-1.5 0.5 0.4-0.3 1.4z m-10.3-8.4l-0.1 0.6-2.8 1.3 1-0.1 0.5 0.4-0.3 1.7-0.3 0.6-0.6-0.8-0.6-0.3-0.5 0.6-0.7-0.1-0.8-1.1-0.2 0.1 0.3 1.5-0.1 1.3 0.1 1.3-0.4 1.1-1 0.7-1-0.4-1.4-1.7-0.9 0.5-1.2 1.4-1.1 0.9-0.5-0.2 0-0.9 0.6-2.6 0.5-0.9 0.8-0.3 0.5-0.5-0.2-0.9 0.3-1 0.7-1.2 0.8-0.7 1.7 0.2 1.8-0.7 1.7-0.2 3.4 0.4z m-2.8-3.9l0.5 1.1-0.6 0.1-0.4-0.3-1 0.7-1.3-0.7 0.3-1.2 1-0.6 0.5-0.2 0.1 0.7 0.9 0.4z m27.6-1.4l-0.8 1 0 0.9 0.1 1-0.4 1.2-0.6 0.5-1-0.2 0.3-2.9 0.3-0.8 0.5-0.5 0.2 0.6 1-1 0.4 0.2z m-64.8 19.9l-0.5 0.4 0.1 1.2 0.7 1.8-0.5 0.1-2.1-3.2 0 0.7-0.7-0.1-0.7-1.8 0.2-2.4-0.5-1.3-0.7-0.1-0.1-1 0.2-2.6 0.7-2.4 0.8-1.7 0.1-1.2-0.1-0.8 0-1.6-0.2-4 0.6-1.5 0.9-0.1 0.4 1.9 0.6 0.4 0.7 0.9 0.6 1.7 0.5 2 0.4 2.5 0.1 2.2-0.4 1.2-0.1 1.2 0.2 1.7 0.1 1.4-0.8 4-0.5 0.5z m69.3-22.6l-0.6 0.1-0.2-0.5 0-1.3 0.2-0.6 0.6-0.7 1.4-0.8-0.9 1.4 0 0.8-0.2 1.2-0.3 0.4z m10.2-1.8l-0.2 0.1-0.7-1.2 1.4-1.9 0.8-0.5 0.3 0.3 0 0.6-0.5 0.1-0.5 0.9-0.5 0.1-0.2 0.6 0.1 0.9z m-21.5 5l-1.5 1.1-0.5 1.7 0 0.9-0.3 1.5-0.9 1.5-0.6 0.4-1.1-0.3-0.3 0.5-0.7 0.1-0.8-0.3-0.9-1-0.8-1.5-0.2-1.1 0.3-0.5 0.6 0 0.6-0.4-0.3-0.9-0.6-1.1 0.1-0.5 0.5 0.1 0.7-0.3 0.7-0.9 0.2-1-0.5-0.4 0.2-0.7 3.1-2.2 1.4-1.6 1.3-1.2 1.1-0.7 1 0.1 0.5 1.6 0 1.2 0.2 0.3 0.1 0.9-0.5 0.9-2.1 3.8z m9.7-9.7l-0.6 0.5-0.4-0.7 1-1.4 0.9 0.5-0.2 0.7-0.7 0.4z m5.8-9.6l-0.9 2-0.9 1-0.5-0.5 1-2.2 0.7-0.4 0.6 0.1z m5.8-1.4l-5.2 3.5-0.7-0.4 0.5-1.6 0.9-1.7 1-1.4 1-0.4 0.9 0.4 2.1 0.3 0.4 0.2-0.9 1.1z m-23.4-2.2l-0.6 0.3-1.1-1.6 1 0 0.5 0.3 0.2 1z m14.2-3.1l-0.2 1.4-0.5 0-0.2-0.4-0.8 0.3-0.4-0.1 0.6-1 1.5-0.2z m23.6-6l-0.5 0.2-1.4-1.2-0.2-1 0.2-0.6 1.2 0 0.8 1.3 0.2 0.6-0.3 0.7z m-11.3 2.1l-0.1 0.9-0.5 0.5-0.5-0.1-0.8-0.7-0.8-0.4-0.8 0-0.7-0.5 0.1-1.6 1.1-1.8 1.4-1.4 1.4-0.5 1.1 0.2 1 0.4 0.5 0.7-0.2 0.9-1.2 1.5-1 1.9z m-19.3-4.2l6.7 4.5-3.9 0.1-1.6-0.4-1.7-1.7 0.1 3.3 1.1 1.1 3.5-0.4-2 2.8-2.4-0.5-3.9-3.4-2.9-0.9-0.2-0.4-0.7-1.9-0.4-0.8-1.2-1-4-2 8.9 0.2 4.6 1.4z m27.9-3l-0.5 0.6-1.7 0-0.1-0.6 0.9-0.6 1.5 0-0.1 0.6z m1.6-6.9l0.7 0.8-0.2 0.7-1.6 0-0.4 0.3 0.6 0.4 0 0.8-1.1 1.7-1.4 0.6-0.4-0.3 0.1-0.6 0.3-0.6 0.3-1 0-1.4 0.4-1 0.5-0.2 0.6 0.6 0.8-0.9 0.8 0.1z m-16.3-2.7l1.3 1 1.2 1.9 0.8 0.5 0.2 0.8 0.2 2-0.4 1.7-1.1 1.2-3.3 1.8-0.4 0.1-0.4-0.7 0.3-1 0.7-0.8-0.3-2.2-0.4-1.4-1-1-0.8-1.1-1.1-2 0.7-0.5 3.1 0 0.2-0.3 0.5 0z m-33.9 1l-1.2 0.3-0.7-0.1-1.5-0.1 0.4 0.6 1 1.5-0.8 1.6-1.6 0.4-1.9-0.3-1.9-1.2-1.3-1.2-0.8-2.3-0.5-0.8 0.1-1.1 1.2-0.6 8.6 2.4 0.9 0.9z m46.6-3.4l-0.8 0.6-0.6-0.5-0.1-1 0.6-1 0.8 0.4 0.4 1-0.3 0.5z m6.2 1.6l-0.8 0.9-1.2-1-1.6-2.1-0.1-1 0.7-0.9 1 0.1 1.1 1.1 0.8 1.5 0.1 1.4z m-41-4.7l0 0.6-0.5 0.1-1.2-0.1 3.7 1.2-0.1 0.9-3.2-0.2-1.1-0.7-0.8-3 0.6-0.1 0.9 0.6 1.1 0 0.6 0.7z m41.7-1.8l0.8 0.8 0.5-0.1 0.4 0.4-0.4 0.8-0.6 0.6-0.8 1.5-0.6 0.2-0.6-0.9-0.2-1.7 0-0.6 0.7-0.7 0.8-0.3z m-46.8 0.1l-1.8 0.6-0.8-0.3 0-1 0.2-0.9-0.1-0.3 0.9-1.2 1 0.4 1.5 1.1 0.6 1-1.5 0.6z m66.7-1.6l-0.5 0.1-0.6-1.7 1-0.2 0.1 0.7 0 1.1z m-23.5 2.2l-1.2 1.6-1.6-0.2-0.9-2.4 1-2.2 1.9-0.9 1-0.2 0.3 0.1 0.6 0.7 0.1 1.1-1.2 2.4z m45.5-3.4l0 0.4-0.9-0.4-0.1-0.7 0.8-0.3 0.2 1z m-58.6-2.6l-0.4 0.9-1.6 0.5 0.8 0.6-0.6 0.5-1.5 0.1-0.8-0.4-0.9 0.7-1.8 0.3-0.3-0.5 0.5-1.3 1.3-1.1 2.3-0.3 0.7 0.1 0.8-0.7 0.8-0.1 0.7 0.7z m6.8-2.7l-0.1 0.5-8.4 1.3-0.3-0.3-0.1-0.6 0.5-0.2 1.3 0 0.3-0.6 2.8-0.6 0.8 0.3 0.4-0.4 2-0.3 0.7 0.2 0.1 0.7z m26.4-4.1l-0.8 1.9-0.3-0.1 0.2-1.1 0.7-1.1 0.2 0.4z m-37.1-4.6l0.7 0.2 3.4-1-0.1 0.8-4.2 2-1.9 2.2-0.8 0.4-0.6 0.7-0.4 1.5-0.7 0.2-1.1-0.8-0.4 0.1 0 0.7-0.7 0.2 0.8 3-0.2 1.5-0.9 0.6-0.6-0.5-0.3-1.2 0.2 4.9-0.6-0.1-0.8 0.5-0.5 0.9-0.4-0.1-0.4-0.9-0.3-1.2-0.4-1.4-0.7-1.2-0.6-1.4-0.1-1.5-0.5-1.4 0.3-1.1 0.7-0.6 1-0.1 0.9 0.4 0.5 0.8 0.3-0.6 0.4-0.2-0.4-0.8-0.9-0.1-0.2-0.5 0.4-1.2 0.7-1.1 1.5-1.9 0.9-1.3 1.3-1 1.8-0.6 1.6 0 1.5 0.6 0.8 0.9 0 0.7z m27.7-6.7l0.5 0.3 0.8-0.2 0.6 0.5-0.1 0.4-1.3 1.2-0.4 0.1-1.6-0.5-0.7-0.7 0.2-0.5 2-0.6z m7.2-0.7l-0.3-0.5 2.4-1.9 0.3 1.5-0.8 0.5-1.3 0.1-0.3 0.3z m-12.9-5.7l-0.6 0.5-1 0.2-1.4-0.1-0.6-0.5-1.2 4.5-0.5 1.3-1.5 0.7-1.7-0.8-0.4-1.8 0.8-1.4 5.2-6.5 1.1-0.6 1 0.8 0.9 2.1 0.7 0.7-0.1 0.7-0.7 0.2z m5.6-3.5l0 1.2-1.6 0.1-0.5-0.2-0.1-0.6 1.1-1.8 0.4 0.5 0.2 0.6 0.5 0.2z m-20.1 10.7l-1 0.4-1-0.1-0.1-0.4 1.4-0.8 1.6-1.3 1.5-1.9 0.7-1.1 3-3.4 4.5-3.7 0 1.3-1.4 2.2-3.9 4.8-1.8 1.5-0.2 0.8-0.3 0.3-1.1 0.3-1.9 1.1z m28-11.5l-0.6 0.4-0.8-0.7-0.6-0.3 0.1-0.5 0.5-0.6 0.7 0.3 0.3 0.7 0.5 0.3-0.1 0.4z m2.6-1.1l-0.7 0.2-0.2-0.9 0.1-0.9 1.3 0.2 0.1 0.9-0.6 0.5z m-22.2-1.5l0.5 0.5-0.4 0.6-0.7 0.7-0.5-0.1-1-0.7-1.3 0.2-0.4-0.1-0.1-0.5 0.5-0.9 2.3-1 0.5 0.2-0.2 0.5 0.9 0.3-0.1 0.3z m19.2-11.3l-1.1 0.6-1.4-0.6-0.6-1.1 0.3-0.9 0.4-0.1 2.2 0.9 0.4 0.6-0.2 0.6z m2.7-2.9l-0.4 0.4-0.5-0.1-0.6-1.1-0.3-1.3 1.2-1 1.1-0.3 0.6 0.5 0.1 0.6-0.3 0.9-0.9 1.4z m-6.8-1.7l-0.7 0.1-0.5-0.5-0.1-1.2 0.9-0.9 1.1 0.3 0.2 0.5-0.4 0.5-0.1 0.7-0.4 0.5z m-7.7-5.8l0.7 1.2 0 0.9-0.3 0.8-0.8 0.7-1.2 0.5-1.2-0.1-1.5-0.8-0.7 0.8-0.7-0.1-2 0.3-0.4-1.2 0.9-2.4 3.3-5.8 0.8-1.9 0.5-0.4 0.8 0.3 0.7 0.6 0.7 1.1 0.6 1.6 0.1 2-0.3 1.9z m10.2-4.7l-1.5 2.5-0.3-0.4-0.5 0.5-0.4-0.7 0-0.8 1-1.3 0.6-1.8 0.4-0.4 1.2-0.5 0.4 0.6 0.1 1.2-0.4 0.8-0.6 0.3z m-116.5 130.6l-2.1-2.3-2.5-1.4-3.4-0.5-5 0.1-1.3-0.3-0.8-0.5-1.6-3.2-0.4-1.3-0.5-1.9-1.3-11.6-2.2-5.1-0.8-2.4-0.5-2.1-0.1-1.6-0.4-2 0-1.4 0.2-1 0.6-0.9 3-3.1 0.5-3.1-0.2-4 0.4-3.4 0.9-1.8 0.8-1.1 1-0.5 1.3-0.2 2.8-0.3 1.3-0.8 0.5-1.7 0-1.2-0.9-1.3 1.5-3.3 0.9-3.4 0.5-1 3-2.5 0.5-1.2 0.3-1.7 0-2.2 0.2-2.8 0.5-1.6 3.7-6.7 0.3-1.4-0.1-1.1-1.2-1.8-0.6-1.1-0.4-1.5-0.2-2 0.4-2.4 0.8-1.7 0.3-2.5 0.4-0.5 2.2-0.7 1.3-1 1.5-1.9 0.9-1.7 0.6-0.6 0.6-0.2 2.7 0.3 1.4 0.5 2.5 1.8 1 0.2 2.2-1.2 4.5-1.4 10.5-6.4 6.1-0.1 1.5-1.5 1.3-2.5 2-5.1 1.8-2.4 2.5-1.6 4.8-1.3 5.2-2.5 3.6-2.6 1.6-2.8 0.7-3.2 0-6.4 0.4-2.3 0.8-1.3 1.1-1 2.8-1.8 0.4-0.6-0.2-0.5-1.9-1.8-0.5-1.1 0.1-1.4 0.9-2.2 2.4-3.1 3.8-6.6 1.4 5 0.4 2.2 0.4 0 0.4-2.3 0.1-2.9-0.3-3-0.6-2.2 1.6-0.9 2-0.4 1.9 0.4 2.6 2.6 2.6 0.8 1.1 1.7 0.4 2.4-0.1 5.2 0.5 2.2 3.3 4.9-0.6-2-1.4-3.8-0.7-4 0.9-4.4 2.9-1.6 1 0.6 0.3 0.6-0.2 2.4 0.1 2.6 0.4 1.9 3.3 11.3 2.6 7 1.4 2 3.3 1.1 1.8 1.1 1.5 1.5 0 2 1.2 1.8 0.5 0.4 0.9-0.1-0.5-3.1 1.3 0.3 1.3 0.7-0.2 2.2-0.1 6 0.1 1.2-2.6-0.2-1-0.7-5.4-9.1-2.5-3.2-2.3-1.3 0.8 2 2.6 4.7 0.3 2.6-0.8 2.4-4.7 7.4-1.4 1.1-1.7 0.5-3.3-0.2-1.7 0.4-1.2 1.3-0.4 2.1 1.4-0.1 2.9-1.5 19-0.9 3.3 1.9-0.8 3.4-1.3 2-1.7 1.2-4.5 1.4-1.4 0-1.2-0.7-0.7-1.1-0.8-2.3-0.6-0.8-0.9 2.6-1.6 1.9-1.9 1.3-5.6 1.7-1.8 1.6-0.1 2.2-2.7 0.1-0.5 0.4-0.1 1.3-0.3 1-0.5 0.8-0.6 0.4 3.6 0-0.4 1.2-0.9 1.4-1 1.1-0.8 0.5-0.8-0.4-1.3-1.6-1-0.1 1.5 2.8 0.6 1.7-0.8 0.7-0.9 0.5-1.9 2.1-3.2 1.4-4.3 4.2-4.2 1.7-2 1.9-3.4 4.6-2.5 2.1-2.6 0.5-5.8-0.6 0 1 2.6 2-1 1-2.1-0.3-1 0.3 1.3 0.8 1.3 1.3-0.5 2 1.2 1.3 1.9 0.6 1.5 0.2-2.3 1.8-4.5-0.2-4.5-1.4-2.2-2.2 0.9-0.6 0.9-0.3 1 0.2 0.8 0.7-0.2-1.3-0.3-3-0.4-0.9-1-0.2-1.7 1.7-1 0.5-0.6-0.4-0.9-1.3-0.5-0.3-0.4 0.4-1 1.3-1.2 1 0 1.7 0.4 1.7 0.6 1.1-2.5 1.7-0.8 0.3-0.9-0.3-1.6-1.3-0.9-0.4 10.3 10.1-2.7 0.7-1.1-0.4 0 1.7 5.9 0.1 1.7-1.2 0.8 0.3 0.6 1.9 0.5 0 2.5-6.4 4.8-1.9 5.4 0.9 4.4 2.3-1.6 2 2.3 0.8 1-0.3 0.9-1.6-2-5-0.6-2 3.6 0-3-2.2-1.4-1.4-0.8-2.5 4.4 0.3 2 0.9 1.9 1.8 0.6 3.1 5.1 3-0.8 1.8-1.3 0-1.5-0.6-1.5-0.2 1.7 1 2.6 0.8 2.4 1.4 1 2.4-0.5 2.3-1.5 1-3.9 0.2-1.2 0.3-1.2 0.7-1.3 0.3-1.3-0.7-0.9-0.8-2.2-0.6-1-0.1-6.3 0.9-2-0.9 0.5-3.1-1.5-0.1-1.3 0.6-1.2 1.1-1.2 1.5 1 0.7 0.9 1 0.7 1.2 0.5 1.1 0 1-2.5 0-0.8 0.7 0.5 1.9 4.4 2.5 1.8 0.6 2 1.5 1.8 2.3 1.1 2.6-6.8-5.7-1.7 0.2 0 1.8 1.2 1.1 1.6 0.6 1.1 0.1 0.5 1 0.4 1.8 0.7 1.2 1.5-1-0.7 1.6-0.3 0.4 0 1.1 1.9-1 0.9 0.1 0.3 1.4-0.2 1.7-0.6 1.4-0.7 0.6-0.9-0.8-1.6-0.3-2.8 0.9-2.8 1.5-1.3 1.6 0.9-0.3 0.7 0.2 0.6 0.7 0.4 1.2-7.1 3.5-2.2 0.5 1-0.8 2.1-1.3 1-0.9-1-1 1-0.9 0-0.9-1.3-0.2-1.1 0.3-1.1 0.8-0.9 1.4-0.9 0.8-2.5 0.3-1 0.5-0.7 1-1.6 3.5-0.9 0.7-4-0.2 0.5 3.1-1.9-1-0.9 0.1-0.8 0.9 1.2 2.3-1.2 2.5-1.9 2.9-1.2 3.4 0.1 1.7 0.4 1.1 0.2 1.2-0.7 1.9-1 1.2-1.3 0.7-1.4 0-1-0.9-0.4 1.8-0.1 2 0 4.2-1-0.9-0.8-1.4-0.3-1.7 0.5-2-0.5-1.9-0.3-0.6-0.7-0.8-0.6 0-0.5 0.3-0.5 0-1.2-0.8-0.7-0.8-1.5-2.9-0.9-1 0.2 1.9 0.8 3.2 1.3 2.5-0.9 2.6-0.4 0.9-0.6 0.4-0.3-0.6 0-1.6 0.3-1.7 0.3-1.1-2.5-1.1-0.2-2.8 0.4-3.3-0.8-2.8 0-1 1-2.2 0.4-4.5 0-4.5-0.1-2-0.2-0.6 1-3.5-0.1-1.7-0.8-0.8-1 0.5-0.9 1.2-0.4 1.4-0.1 4.6-0.4 2.1-0.8 0.9-0.7-0.6-2.6-3.5 0.2-2.1 1.5-3.3 0.4-2-0.3-1.7-0.7-1.6-0.8-1.3-0.9-0.9 1.1 5-0.9 2.2-1 1.7-1.3 1.3-1.5 0.8 0.7 3.1-0.3 3.2-0.1 2.8 1.3 2-0.8 2.3-0.5 3.2-0.6 2.2-0.7-0.7-0.9 0.8z m90.5-180.6l0.9-0.4 0.3 0.3 0.5 1.3 0 1.1-1.8 1.1-1.6 0.5-1.9-0.4-0.9-0.4-0.3-0.9-0.5-1.8 0-1.4 0.3-1.8 0.8-0.4 0-0.5-1.2-1.8 0.5-0.7 1.5 0.3 1.1 0.8 0.6 1 0.3 1 0.6 0.7 0.7 0.3 0.4 0.8 0 1-0.3 0.3z"
     id="SWE194"
     name="Stockholm" />
  <path
     d="M575.2 1571.6l2.6 1.9 0.1 0.3-0.4 1-2 0.6-0.7-0.5-0.1-0.8-0.6 0.1-0.2-0.8-0.8-0.2 0.3-1 0.5-0.4 0.7-0.3 0.6 0.1z m-2.6 3.2l-0.1 0.7-1.1-0.1-3.2-2.7-1.7-2.8 3.2 0.5 2.6 1.8 0.1 0.7-0.3 1 0.5 0.9z m6.2-12.3l0.3 0.7-0.2 0.6-1.3-1.1 0 0.7-0.5 0.4-0.9-0.6-0.2-0.6 0.4-1.1 0.6-0.6 0.5 0.2 1.3 1.4z m-14.9-27.8l2 2 0.6 1.8-1.2-0.2-1.8-1.5-1.1-0.3 0.8 2.2 3.3 7.2 0.8 2.5 0.7 1.5 1.1 0.1 1.6-1.9 0.2 2.2 0.3 1.4 1 2.7 0.4 0.3 1 0.6 0.2 0.6-0.3 1.5-0.6 0-3.4-2.1-4.1-5-4.3-2.4-1-3.3-0.3-4.1 0.3-7.6-0.1-1.7-1-3.3 0.3-1.2 0.9-0.3 1.2 0.6 1.2 2.3 0.3 0.9-0.2 2.2 0.2 0.9 1 1.4z m-2.2-8.7l-0.9 0.2-2-0.9-0.8-0.7 0-0.3 1-0.8 1.1-0.5 1.2 0.3 0.3 0.7 0.2 1.3-0.1 0.7z m10.9 59.7l-3.8 6.6-2.4 3.1-0.9 2.2-0.1 1.4 0.5 1.1 1.9 1.8 0.2 0.5-0.4 0.6-2.8 1.8-1.1 1-0.8 1.3-0.4 2.3 0 6.4-0.7 3.2-1.6 2.8-3.6 2.6-5.2 2.5-4.8 1.3-2.5 1.6-1.8 2.4-2 5.1-1.3 2.5-1.5 1.5-6.1 0.1-10.5 6.4-4.5 1.4-2.2 1.2-1-0.2-2.5-1.8-1.4-0.5-2.7-0.3-0.6 0.2-0.6 0.6-0.9 1.7-1.5 1.9-1.3 1-2.2 0.7-0.4 0.5-0.3 2.5-0.8 1.7-0.4 2.4 0.2 2 0.4 1.5 0.6 1.1 1.2 1.8 0.1 1.1-0.3 1.4-3.7 6.7-0.5 1.6-0.2 2.8 0 2.2-0.3 1.7-0.5 1.2-3 2.5-0.5 1-0.9 3.4-1.5 3.3-2-4.5-1.7-1.8-2.6-2.1-4.7-2.5-2.3-2.3-1.4-2.4-0.3-1.5-0.4-0.4-3-2.2-2.3-1.1-1.6-0.3-5.9 0.8-7.9-1.6-1.4-4.6-2.3-11.6-1.3-4.2-7.8-17.4-0.7-2 0.3-1.3 3.6-2.4 1-1.6 0.5-1.9-0.2-3.5 0-1.4 0.2-0.8 0.6-0.1 1.2 0.2 5.2 2 4.2 0.8 0.5 0.5 1 2.1 0.8 0.9 1 0.4 1.4-0.3 1.4-1 3.1-2.9 3.9-2.7 1.1-1.9 0.7-2.6 0.4-3.6 0.1-2.7-0.2-1.6-0.7-0.9-1.2-0.6-0.9-0.8-0.5-1.3 0.3-1.5 0.8-1.4 2.4-4.8 0.7-1 0.9-0.3 1.9 0.3 1.1-0.3 1.3-1.3 1.4-2.8 5.9-18.8 0.6-3.5-0.4-2.4-1.4-1.6-10.8-8.9-0.7-11.5 0.5-3 1.6-3.7 1.4-1.7 1.3-1 2.6-6.1 4.6-21.2 0.3-0.1 1.2-1.2 1.3-0.9 10.1-1.7 2.1 0.2 1.4 1.3 1.1 1.4 2.8 1.8 1 1.6-0.9 1.3-2.7 1.7-0.5 0.7 0.2 2.3 1.1 3.4 0.3 1.7 1 3.2 2.4 1.7 5.4 0.9 0-1.2-1.1-4.4 2.6-4.4 4.1-3.4 7.8-2.3 2.2 0.2 2 1.7 1.5 5.4-0.1 1.8-0.4 1.6-0.7 1.1-0.9 0.7 0 1.1 2 0.2 1.9 1.3 3.4 3.7 2.6 2 0.3 0.9 0.5 2.5 0.3 0.9 2.3 3.6 2.7 2.2 6.3 2.5-1.3 0.9-1.9 2-1 1.3 0 1.2 1.1 1.3 1 1.8 1.2-1.1 2.1-2.3 1.4-0.9 1.3-0.3 0.9 0.2 2.5 1.3 5.2-0.2 1.5 1.1-0.1 1.7 0 1.5 0.1 1.1 0.3 0.5 1.7 1.5 0 1.1-0.9 0.2-0.9-0.1-0.9 0-0.9 0.9 10.5 4.1 3 3.2-3.1 1.6-12.3-4.8-2.4-3-4-6.4 1.1 5.4 2.9 4.1 3.4 3.6 2.5 3.7-1.3 0.1-1-0.9-1.8-2.5 0.5 3.7 1.5 2.2 3.7 2.6 1.8 2.4 1 0.8 1.3-0.1 0.9-0.4 0.7-0.8 0.3-1.3 0 4.4 0.1 2.2 0.4 1.2z"
     id="SWE195"
     name="Uppsala" />
  <path
     d="M292.6 2174.9l-0.4 0-0.5-0.8-0.1-1.6 0.3-0.2 0.8 0.2 0.4 0.6-0.5 1.8z m70.9-4.2l0.1 0.3 1-0.7 0.7 0.3-0.5 0.9-1.1 1.8-1.2-1.3 0.5-0.3-0.1-1 0.6 0z m-8.4-12l0.6 0.4 1.7 0.1 0.9 0 0.7-0.3-0.1 0.8-0.8 0.8-1.1 0.2-0.1 0.7 0.3 1.5 0.1 1.1-0.2 0.6-0.4 0.3-1-0.1-2.4-2-0.7-2 1-2 1-0.6 0.5 0.5z m-52.5-0.7l0 0.8-0.5 1.2-0.6-0.8-0.8-0.4-0.1-0.5 0.8 0.2 0.8-0.2 0.4-0.3z m37.5 3.3l-0.9 0.7-0.6-0.4-0.9-0.1-0.5-1 0-0.7 0.4-0.1 0.9-1 1.4-0.4 0.6-0.4 0.5 0.5-0.3 1.8-0.6 1.1z m6.4-0.7l-0.4 0.8-2.6-0.3-0.5-0.5 0-1.3 0.4-1.2 0.5-0.6 0.5 0 1.8 0.5 0.6 0.9-0.3 1.7z m5 0.3l-1.4 0.8-0.8-0.8-0.3-0.9 0.1-0.3 1.3-1.8 0.2-0.6 1-0.6 0.5 0.2 0 0.6-0.3 0.7-0.1 1 0.2 1.2-0.4 0.5z m9.9-4l0.5 0.3 0.6-0.4 0.3 0.7 0 0.7-0.6 0.7-0.1 0.8-0.3 0.5-0.6 0.2-0.4-0.5-0.3-0.8-2.4-2.1 0.3-0.8 0.8-0.3 0.6 0.1 0.9 0.7 0.7 0.2z m23.2-27.5l-2.1 11-0.5 0.7-0.8 0.5-0.5 1.1-0.3 1.3-0.4 1.2-1.3 1.6-2.9 2.8-1.3 1.7-4.3 9.8-1.8 2.2-1.2-0.2-1.4-1.4-2.1-1.1 2.2-4.6 0.6-2.6-1.5-1.2-3.7 1.5-2 0-1.3-2.4-0.8 0.6-0.5-0.4-0.3-0.7-0.7-0.4-1-0.3-1.1-1.2-0.5-0.3-1.3 1.2-1.5 2.2-1.5 1.2-1.2-1.9 0.5-0.8 0.7-1.6 0.3-1.5-0.7-0.7-1 0.3-2.9 2.4-3.2 1.7-0.4 0.7-0.2 2.1-0.3 0.5-1.6-1.3-1.2-1.6-0.8-0.8-1.1-0.3-1.1 0.2-0.8 0.6-1.2 1.9-0.5 1.4 0 0.8-0.4 0.6-3.3 0.2-1.1-0.3-0.9-0.8 1.5-0.8 0.6 0-0.5-1.4-1.6-3.4-1.6 2.4-3 1.9-3.2 0.6-2.3-1.6-0.5-0.6-0.6 0.2-1.2 0.8-2.9 0-0.6-0.4-0.2-2.4-0.5-0.9-0.5 0.1-1.8 0.8-0.8 0.1 0.3 0.8 0.5 2.1 0.3 0.9-4.6-2.2-2.6-0.5-1.9 1.2-1.7 0.4-2.5-0.5-1.9 0.2 0.2 2.2-1.5 0.6-1.3-1-1.3-1.5-1.6-0.9-3.8 0.1-1.7 0.8-1.2 1.9-0.2 1.1-0.2 1.6 0.1 1.4 0.5 0.6 1.1 0.4 0.5 1.1 0.3 1.2 0.5 1.1 2.1 3.2 0.7 1.7 0.8 2.4-0.9 0.4-0.9 0.9-0.9 0.9-0.7 1.1-0.6 0.5-0.4-0.5-0.3-1.5-1.5 0-0.5 1.1-0.5 0.5-1.7-0.6-2.2 0-0.7-0.2-0.2-0.5 1.1-1.3-0.6-0.7-0.6-1-0.4-1.2 0-1.6-1.5 1.9-0.9-0.9-0.3-0.7-1 0.2 0.2-5.7 1-3.2 1-2.4 0.3-2.3-0.2-3.1-0.6-3.1-1.4-3.9-0.6-0.9-0.6-0.4-0.6-0.2-0.9-0.1-1.1-0.2-1.4-0.8-2.1-1-0.8-1.2-0.5-2-0.3-2-0.5-1.8-1.5-3.1-0.2-1.1 0.2-1.2 3.3-8.3 1.2-2.2 5.1-7.4 4.2 1.8 2.3 2 2.9 3.1 2.6 2.4 2 1.1 10.9 3.1 1.8 0.1 1.6-0.5 2.5-2.3 2.6-3.7 0.5-1.1 0.5-1.8 0.5-0.6 0.8-0.2 3.3-0.2 3.6-1.1 1.3 0 1 0.4 2.3 1.4 1.7 0.7 1.3 0.2 0.8 0 0.9-0.9 0.7-1.7 0.8-0.8 1.5-0.5 1.6 0 2.2 0.6 1 0 0.9-0.3 1.5-1.8 2.1-2.2 0.5-0.3 1.7-0.3 1.4 0.2 1.6 0.9 4 1 0.6-0.1 0.7-0.3 0.5-1.4 1-1.2 0.9-0.1 1.3 0.1 1.4 1 5.4 6.1 4.2 4 5.7 7.3 4.5 3.3 9.1 3.3 2.4 0.2 1.5-0.2 0.8-0.8 1.4-0.5 0.4 0z"
     id="SWE262"
     name="Blekinge" />
  <path
     d="M60.8 1946.3l0.6 1.5-0.4 2-0.8-0.4-1.1-0.8-1.1 0.6-0.9-0.6-0.2-1 0.4-0.3 0.8 0.1 1-0.9 0.3-0.2 0.8 0.4 0.6-0.4z m-9.3-6.4l0.7 0.5 0.4 1.6 0.3 0.6-0.3 0.5-0.4 0.2-1-0.5-0.5 0.3-0.7-0.6-0.5-1-0.5-0.3-0.6 0-0.3-0.6 0.4-0.9 1.3-0.1-0.4-1.9 0.1-0.7 0-1.2 1.4 1.1 0.8 1.2 0.4 0.9-0.6 0.9z m-1.6-26.2l0.4 0.5 0.1 0.6-0.1 0.7-0.8 0.2-0.4 0.7-1.1 1.4-0.5 0.3-0.6 0.9-0.6 0.3 0.1-0.9-0.1-1.2-0.6 0.5-1.5-0.8-0.1-0.5 0.1-1 0.6-0.1 0.5 0.4 0.3-0.3 1.6-0.8 0-0.4-0.7-0.2-1 0.6-1.3-1 0.6-0.3 1-1.2 1.5-0.3 1.7 0.5 0.7 0.7 0.2 0.7z m7.9-24.6l0 2.5 0.1 0.8 0.4 0.6-0.7 4-0.3 0.8-1 0.8-0.7-0.1-0.2-1 0.3-1.6-1.2-0.6-1.2 1.3-0.9 2.2-0.6 3.9-0.7 1.1-0.8 0.6-1.6-0.4-0.5 0.8-0.6 1.1-0.7 0.7-1 0-0.7-0.6-0.9-1.3-2-0.2-0.4-0.5-0.2-1.8-0.2-1.2-0.5-1.2-0.3-1.3 0.2-1.1 0.9-0.7 2.1 0.4 1-0.2-1.6-0.8-1.7 0-1.4-0.5-0.6-2.1 0.6-2.6 1.4-0.7 3.3 0.8 6.9 0 1.7-0.7 1.3-1.3 1.3-0.7 1.7 0.8z m3.8-26.9l1.3 2.3 0.6 2.8 0.1 3.1-0.1 6.4-0.7 2.7-1.7 0.8-2 0.3-3.6 2.9-4.1-1.4-1.9 1.1-1.3-2.7-2-0.6-2.2 0.7-1.7 1.6-0.8 1.5-0.5 1.5-0.8-0.1-0.8-0.5-2.4-2.4 0 5-0.4 0-0.5-3.6-0.3-0.9-2.4-2.7-0.7-1.2 0.2-2.1 1.5-2.2 7.5-7.4 2.6-1 1.9-1.9 1-0.7 1.3 0 2.2 0.5 1.2-0.5-0.4-1.5 0.1-1.5 0.6-1.1 0.8-0.8-0.6-1.9 1.2-0.9 1.3 0 2.7 0.9 0.8 3.2 1.4 1.3 1.6 1z m-58.4-97.1l0.5 0.5 0.3 0.8-0.2 0.2 0 1.3 0.7-0.5 0.7 0 1 0.5 0.3 0.8-0.7 0.8 0.2 0.6 0.6 0.3 0.4-0.1 0 1.5-0.8 1.1-0.3 0-1.4-0.6 0-0.6-1.4-0.6-0.4-0.9-0.7 0-0.3 1.3-0.5 0 0.1-1.2 0-1.6 0.5-0.5 0.2-0.5-0.5-0.2-0.5-1 0.1-0.5 0.5-0.6 0.7 0.1 0.9-0.4z m249-14.6l1.2 3.9 0.6 1.5 1.2 3.9 1.4 3.7 1.6 3.3 0.5 1.6 0.1 1.4-0.1 1.9 0.1 1.7 0.8 2.2 4.2 7 1.1 2.5 0.4 2.2 0.1 2.9 0.7 1.5 1.8 0.9 3 0.5 0.8 0.4 0.4 1.3 0.4 0.6 0.6 0 1.5-0.9 1.2-1 0.6-0.7 0.4-1.5 0.5-0.6 0.8-0.5 1.5 0.4 1.5 1.1 1.3 3.1 1 3.7 1.6 2.3 4.9 3.8-28.9 60.8-14.5 31.9 0.1 1.5 0.8 3.7 0.1 1.7-0.3 1.7-1 1.8-1.6 1.7-2.3 1.6-4.9 2.3-0.8 0.9-3.7 1.7-0.9 0.9-0.3 0.7-0.6 3.2-0.4 0.8-0.7 0.3-1.2-0.2-1.8-1.2-1.9-1.7-1.7-0.7-7.8 1-1.8-0.5-4.1-0.1 1.3 6.3 0.1 2.2-0.1 1.7-0.5 1.3-0.8 1.2-0.6 1.2-0.6 1.5-0.7 3.4 0 1.6 0.2 1.7 0.2 2.8-0.3 1.6-1.5 2.7-0.9 2.2-0.2 2-0.1 5.3-0.6 2-0.9 1.4-2.5 2.8-3.1 5.4-4.1 8.6-1 1.7-0.9 1-3.2 2.7-4.6 5.9-3.1 2.8-2.9 1.5-1.4 1-1.3 1.8-1.3 3.9-0.5 0.8-0.6 0.3-1.1 0.2-1.5 1.3-1.9 2.6-4.1 8.1-1.3 1.8-1.4 1.6-4.6-1.6-0.7-0.7-0.8-1.1-0.7-1.2-0.6-0.5-2.9-0.2-2.1-0.7-1.2-1.2-0.6-2 0.1-1.4 1.4-3.1 0.4-1.8 0-0.8-0.7-0.6-6.1-0.9-1.4-0.5-0.8-0.7-0.6-0.9-0.5-0.4-0.7 0-2 0.8-1.1 0-1.7-0.9-3.4-4.6-1.1-1.1-1.1-0.4-2.3-0.1-2.8-0.6-0.9 0.1-3.3 3.1-0.6 0.8-0.5 1.2-0.7 1.2-0.9 1.1-1.2 0.7-1.1 0.3-2-0.1-0.8-0.5-1-1.5-2.4-6.7-0.6-2.3-0.1-1.9 0.3-1 1.1-2.6 0.3-1.4 0.1-1.3-0.1-1-0.7-1.3-1.1-1.5-2.4-2.5-1.7-2.5-0.4-1.1-0.1-1.1 0.1-4.1 0.2-2.3 0-2.6-0.2-1.8-2.3-4.6-11.8 5-5.7 1.1-8.6-1.9-3.3 0.5-0.1-1.8 0.4-3.6-0.3-0.3-1.1-0.5-0.4 1.9-1 1-0.9-0.2-0.4-1.3-0.3-2.2-0.6-1.5-0.7-1.3-0.4-1.4 0.7-2.9 4.9-0.6 1.1-2.2-1.7 0.9-2.1 0.4-2.1 0-1.9-0.4-3.8-2.3-1.7-0.2 0.3 2.5-1.1 0.4-1.3 0-1.1-0.7-0.1-1.6 0.1-1.7 7.2-7.4 0.7-1.1-0.2-0.9-1.4-0.3-1.7 0.2-1.1 0.6-1.9-2.6-1.4-2.9-1.6-2-2.3-0.3 1.6-2 1-0.7 1-0.3-0.8-2.9 1-1.5 3.9-1.5 0-0.9-1 0 0-0.9 1.1-0.6 0.5-1.4-2.3-1.4 0.6-2.4 3.3-6 0.9-3.5 0.2-2-0.4-1.8-0.7-1.4-0.4-1.5 0.3-1.3 1.1-1.2-0.3-0.5-0.3-1.4 1.9-0.5 0.8-2.5 0.6-9.5 0.3-0.9 0.9-0.4 1 0 0.7-0.4 0.6-0.9 0.5-1.6-1.2 0.2-1-0.5-0.7-1.1-0.5-3.9-0.8-1.2-0.8-1-0.7-1.3-0.4-3.5 1.3-2 4.3-2.4-1-1.8-1.5 0.4-3.3 2.3-4.1-0.5-1.9 0.4-0.1 2.1-1.1 0.7-2.4 0.1-3.8 3.7-0.8 0.5-0.4 0.5-1.7 2.6-0.7 0.8-1.1 0.2-1.1-0.1-1.1-0.5-0.5 0.1 0.6 2.2-2.5-0.8-0.7-2.2 0.5-3.1 1.2-3.7 1.7-4 1.9-3.1 4.2-4.8-1.1-0.9 1.1-1.6 1.1-1.1 2.5-1.3-1.3-2.2-1.8 0.9-1.8 2.3-1.2 2.1-0.8-1.9-1.5-4.9-0.4-2.2-0.5 0 0.5 4.2-0.1 5-0.8 5-1.4 4.1-2.1 3.4-2.2 2.7-5.3 4.2 0.7-2.1 0.8-1.6 1-1.2 1.1-1 0-1-1.2 0.1-2.2 1.3-0.7-0.4-0.4-1.8 0.4-1.6 0.9-1.1 0.9-0.4 2.7-0.3-0.6-1-1.4-2.2 0.1-3.5-1.3 0.2-0.7 1.2-0.5 1.8-0.6 1.8-0.9 0.9-1.2 0.5-0.7-0.3 0.4-1.6 2.6-5.9 1.7-2.9 0.6-1.5 0-0.5-3.3 4.7-1.2 1-0.6 0.6-1.1 3-2 1.1-2.1-0.9-2 0-1.6 3.8-0.8-0.9-0.1-1 0.2-1.1 0.2-1.4-0.3-1.3-1.3-3.1 0.4-2.6 1.1-0.9 2.7 0.4-0.6-2.9 0.7-1.4 1.3-1 1.2-1.6-2.7-1.7-0.5-0.8-0.1-0.8-0.7-1.3-0.2-0.8 0.5-1.3 0.5-0.3 0.1-4.3 0.2-1.1 0.7-1 1.2-1.1 0.4-1.4-1.5 0 0.3-1.8-0.4-0.6-0.6-0.4-0.4-1.1 0.1-1.3 0.5-1.4 0-1.3-0.7-2.1-3-4.4 0.3-2.8 0.3-1.4-0.5-0.3-1.9 0-0.7-1.2 0.1-2.6 0.8-2.4 1.6-0.6-0.3-2 0.5-1.3 0.7-1.1 0.7-1.8 0.1-1.3-0.1-5.1-0.4-0.8-0.9-0.3-0.9-0.6-0.4-1.3 0-3.5-0.1-1.5-0.4-1.5 0.3-1 0.2-1.1-3.8-1.2-2.1-1.4-0.8-1.9 0.7-2.2 1.6-1.4 3.4-1.9-3.2 0.2-1.4-0.6-0.6-2.1 0.3-1.9 0.8-1.5 4.8-7.2 2-1.4 7.6-1.4 2.6 1.1 1.1 4.2 0.5 3.2 1.3 3.2 1.6 2.7 1.1 1.5 0.7 0 1.1 4.5-0.1 9.4 2.3 1.4 4.9 0.3 4.9-1.3 4-3.9 2.2-7.8 0.5-3.8 0.6-3.3 2-6.4 0.8-3.9 0.2-7.1 2.1-9.2 0.7-2.3 1.3-2.4 0.7-2.1 1.1 0.2 5.4 2 0.9 0 1.2-0.3 0.7-0.8 1.1-0.8 1.1 0.2 1.4 0.8 6.6 5.7 0.9 0.2 0.7-0.2 0.9-0.8 0.3-0.5 0.1-0.8-0.3-1.4 0.3-2.3 1.5-1.2 4.4-0.9 2.1 0.4 1.5 1.1 1.1 3.2 0.6 1.2 1.1 0.9 3.8 1.5 2.4 1.5 0.9 0.1 6.5-2 1.3 0.2 0.7 0.6-0.1 0.7-0.7 0.5-2.7 0.3-0.9 0.5-0.4 0.7 0.2 0.9 0.5 0.8 3.2 1.9 0.7 0.7 0.8 0.9 0.8 0.2 0.5 0 1.7-1 1.1-0.3 0.7 0.1 0.6 0.6 1.1 2.2 1 1 0.8-0.3 1.2-1.5 1.5-3.3 2.6-2.5 1.6-0.1 1.1 0.8 0.8 1.2 0.9 1 1.5 1.2 0.9 1.5 0.6 2.2 0.7 6.8 0.3 2.1 0.7 1.4 5.5 9.3 5.2 25.3 27.2 10.7 6.6 0 2.2-0.7 2.3-1.1 0.8-0.8-0.1-1.4-3.5-6-1-2.4-0.4-2.3 0.5-2 1.7-5.6 1-3.9 1.1-3.2 1.6-3.6 2.6-4.7 1.8-2.6 3-3.2 2.5-1.7 2-0.5 46.2 1.5 0.9 0.2 1 0.6 4.6 3.3z"
     id="SWE3428"
     name="Västra Götaland" />
  <path
     d="M269.4 2110l-5.1 7.4-1.2 2.2-3.3 8.3-0.2 1.2 0.2 1.1 1.5 3.1 0.5 1.8 0.3 2 0.5 2 0.8 1.2 2.1 1 1.4 0.8 1.1 0.2 0.9 0.1 0.6 0.2 0.6 0.4 0.6 0.9 1.4 3.9 0.6 3.1 0.2 3.1-0.3 2.3-1 2.4-1 3.2-0.2 5.7-1.5 1.2-0.7 0.2-2 0.5-1.5 1.2-2.5 3.9-2.8 3.5-1.7 1.4-1.4 0.6-1.6 1.2-0.9 2.5-0.8 2.5-0.9 1.2-3 1.7-2.8 4.3-2 5.5-0.7 5.6-0.4 5.1 0.2 2.2 0.7 2.3 1.3 1.5 2.9 2.3 1 1.7 0.1 1.4 0 1.4 0 1.5 0.7 1.6 0.7 1.1 1.7 1.7 3.1 5.2 0.7 2.4-0.3 2.9-1.1 1.8-4.1 4.6-1.3 1-0.9 0.9-3.5 6.3-1.4 2-1.4 1.1-1.8 0.5-4.8 0-2.3-0.5-2.1-0.8-6-4-2-0.8-2.5-0.3-1.1 0.3-1.9 1.1-1.1 0.5-1.1-0.1-3.6-0.8-10.1 0.9-1.3 0.3-0.9 1-0.7 1.2-0.9 1.2-1.2 0.6-3.2-0.6-2.6 0.6-7 4.8-2.2 0.9-5.2 0.4-2.5-0.4-12.4-4.6-4.1-0.1-1.5-0.6-1.3-0.4-1.2-1.1-0.6-0.4-1.6-0.5-1.6 0.5-0.8 0.5-1.1 1.1-0.9 0.2-0.8-0.2-1-0.6-0.8-0.1-1.5 0.6-1.5 0.9-1.1-0.1-0.3-2.3 2.3-4.7 1 0.1 0.4 0.4 0.7 0.9 1.4 0.9 1.8-0.1 1.8-0.8 1-1.4-0.5-1.7 0.3-0.8 0.7 0 1 0.8-0.8-3.6-3.5-6-0.9-3.6 0.9-4.3 2.2-2.5 5.2-3.9 0.8-1.1 0.9-1.6 0.6-1.8 0.3-1.9-0.5-2.6-1.1-1.5-1.1-0.9-1.1-2.2-1.4 0.4-1.4-0.1-0.6-2.7-1.9 0.1-1.4-0.5-0.8-1.9 0.9-0.2 0.6-0.6 0.4-1.1 0.1-1.7-0.9-5.9-2.7-2.6-3-1.6-2.2-2.9-0.8-2.1-0.2-1-0.1-2-0.2-0.6-0.5-0.8-0.6-0.6-0.5-0.2-1-1-0.4-2.2-0.4-2.5-0.6-1.8-1.3-1.3-1.1-0.8-0.8-1.2-0.4-2.6-0.5-1.5-6.6-8.8-0.6-0.9-2.8-6.6-0.9-1.3-0.6-4.3-0.3-1.3-1.9-4-0.9-3.2-3-2.2-1-1.7 14.7 6.4 0.6 0.4 0.9 2 1.2 0.7 1.1 1.3 0.7 0.3 0.6-0.1 1.1-0.7 0.6-0.1 3.2 0.4 1.4-0.3 1.3-1 1-1.9 0.5-2.2-0.3-1.7-3.5-2-1.6-3-2.3-6.1-6.6-4.9-1.7-3.2 2.6-4.9 4.3-1.7 9.1 3.4 4.3-1.7 1-1.6 0.5-1 1.5 1.8 3.4 2.4 0.7 1.2 0.3 1 0 0.9-1 3.4 0 1.2 0.3 0.8 0.4 0.5 2.4 0.9 10.5 1.9 1 0.8 0.9 1 0.9 0.7 1.2 0.1 1.7-0.7 1.9-1.9 1.4-1.9 1.6-1.7 1.8-1.5 5.4-3.4 2.2-0.8 2.4-0.4 3.7 0.6 5.7 0 31.5-7.6 2.3-1 1.3-0.8 0.4-1 0.4-1.7 0.3-0.8 0.6-1 1-1.2 1.3-1 1.1-0.1 1.1 0.5 1.7 1.7 1.2 0.4 8.8-0.1 2.2 0.5 3.9 1.8 13.7 4z"
     id="SWE3429"
     name="Skåne" />
  <circle
     cx="425"
     cy="1757.8"
     id="0" />
  <circle
     cx="301.6"
     cy="1527.9"
     id="1" />
  <circle
     cx="239.9"
     cy="2095.5"
     id="2" />
  <circle
     r="12.88234"
     cy="1513.7535"
     cx="366.91565"
     id="circle3865"
     style="fill:#ff0000;fill-opacity:1;stroke:#000000;stroke-width:3.12682962;stroke-opacity:1" />
  <circle
     style="fill:#ff0000;fill-opacity:1;stroke:#000000;stroke-width:3.12682962;stroke-opacity:1"
     id="circle3867"
     cx="572.44824"
     cy="1947.9088"
     r="12.88234" />
  <circle
     r="12.88234"
     cy="2142.3696"
     cx="356.32812"
     id="circle3869"
     style="fill:#ff0000;fill-opacity:1;stroke:#000000;stroke-width:3.12682962;stroke-opacity:1" />
  <circle
     style="fill:#ff0000;fill-opacity:1;stroke:#000000;stroke-width:3.12682962;stroke-opacity:1"
     id="circle3871"
     cx="463.91074"
     cy="1515.637"
     r="12.88234" />
  <circle
     style="fill:#ff0000;fill-opacity:1;stroke:#000000;stroke-width:3.12682962;stroke-opacity:1"
     id="circle3873"
     cx="142.58563"
     cy="2069.2678"
     r="12.88234" />
  <circle
     style="fill:#ff0000;fill-opacity:1;stroke:#000000;stroke-width:3.12682962;stroke-opacity:1"
     id="circle3875"
     cx="284.34622"
     cy="1085.5912"
     r="12.88234" />
  <circle
     r="12.88234"
     cy="1922.7738"
     cx="258.44916"
     id="circle3877"
     style="fill:#ff0000;fill-opacity:1;stroke:#000000;stroke-width:3.12682962;stroke-opacity:1" />
  <circle
     style="fill:#ff0000;fill-opacity:1;stroke:#000000;stroke-width:3.12682962;stroke-opacity:1"
     id="circle3879"
     cx="399.29614"
     cy="2076.7849"
     r="12.88234"
     inkscape:transform-center-x="163.85577"
     inkscape:transform-center-y="-156.32218" />
  <circle
     style="fill:#ff0000;fill-opacity:1;stroke:#000000;stroke-width:3.12682962;stroke-opacity:1"
     id="circle3881"
     cx="282.08798"
     cy="2051.6218"
     r="12.88234" />
  <circle
     r="12.88234"
     cy="631.12646"
     cx="842.85504"
     id="circle3883"
     style="fill:#ff0000;fill-opacity:1;stroke:#000000;stroke-width:3.12682962;stroke-opacity:1" />
  <circle
     style="fill:#ff0000;fill-opacity:1;stroke:#000000;stroke-width:3.12682962;stroke-opacity:1"
     id="circle3885"
     cx="164.22105"
     cy="2237.2581"
     r="12.88234" />
  <circle
     style="fill:#ff0000;fill-opacity:1;stroke:#000000;stroke-width:5.13968945;stroke-opacity:1"
     id="circle3887"
     cx="519.09564"
     cy="1701.4606"
     r="21.175196" />
  <circle
     r="12.88234"
     cy="1772.0017"
     cx="460.58133"
     id="circle3889"
     style="fill:#ff0000;fill-opacity:1;stroke:#000000;stroke-width:3.12682962;stroke-opacity:1" />
  <circle
     style="fill:#ff0000;fill-opacity:1;stroke:#000000;stroke-width:3.12682962;stroke-opacity:1"
     id="circle3891"
     cx="502.53195"
     cy="1632.8324"
     r="12.88234"
     inkscape:transform-center-x="7.9905882"
     inkscape:transform-center-y="99.882353" />
  <circle
     style="fill:#ff0000;fill-opacity:1;stroke:#000000;stroke-width:3.12682962;stroke-opacity:1"
     id="circle3893"
     cx="82.899551"
     cy="1940.5876"
     r="12.88234" />
  <circle
     style="fill:#ff0000;fill-opacity:1;stroke:#000000;stroke-width:3.12682962;stroke-opacity:1"
     id="circle3895"
     cx="693.12482"
     cy="993.4455"
     r="12.88234" />
  <circle
     r="12.88234"
     cy="1196.1277"
     cx="506.75092"
     id="circle3897"
     style="fill:#ff0000;fill-opacity:1;stroke:#000000;stroke-width:3.12682962;stroke-opacity:1" />
  <circle
     style="fill:#ff0000;fill-opacity:1;stroke:#000000;stroke-width:3.12682962;stroke-opacity:1"
     id="circle3899"
     cx="424.65918"
     cy="1660.9812"
     r="12.88234" />
  <circle
     style="fill:#ff0000;fill-opacity:1;stroke:#000000;stroke-width:3.12682962;stroke-opacity:1"
     id="circle3901"
     cx="330.96005"
     cy="1729.7253"
     r="12.88234" />
  <circle
     r="12.88234"
     cy="1695.7457"
     cx="197.78694"
     id="circle3903"
     style="fill:#ff0000;fill-opacity:1;stroke:#000000;stroke-width:3.12682962;stroke-opacity:1" />
  <circle
     r="12.88234"
     cy="1860.6216"
     cx="359.21106"
     id="circle3905"
     style="fill:#ff0000;fill-opacity:1;stroke:#000000;stroke-width:3.12682962;stroke-opacity:1" />
  <rect
     style="fill:#0000ff;fill-opacity:1;stroke:#000000;stroke-width:2.0553019;stroke-opacity:1"
     id="rect110"
     width="24.193468"
     height="24.193468"
     x="506.69415"
     y="1664.6288" />
  <rect
     y="1692.8"
     x="490.20001"
     height="24.193468"
     width="24.193468"
     id="rect112"
     style="fill:#0000ff;fill-opacity:1;stroke:#000000;stroke-width:2.0553019;stroke-opacity:1" />
  <rect
     y="1665.4"
     x="474.60651"
     height="24.193468"
     width="24.193468"
     id="rect114"
     style="fill:#0000ff;fill-opacity:1;stroke:#000000;stroke-width:2.0553019;stroke-opacity:1" />
  <rect
     y="1598.9589"
     x="378.27475"
     height="24.193468"
     width="24.193468"
     id="rect116"
     style="fill:#0000ff;fill-opacity:1;stroke:#000000;stroke-width:2.0553019;stroke-opacity:1" />
  <rect
     style="fill:#0000ff;fill-opacity:1;stroke:#000000;stroke-width:2.0553019;stroke-opacity:1"
     id="rect118"
     width="24.193468"
     height="24.193468"
     x="31.350046"
     y="1800.7212" />
  <rect
     style="fill:#0000ff;fill-opacity:1;stroke:#000000;stroke-width:2.0553019;stroke-opacity:1"
     id="rect120"
     width="24.193468"
     height="24.193468"
     x="525.70654"
     y="1699.4" />
  <rect
     y="1949.7717"
     x="551.67596"
     height="24.193468"
     width="24.193468"
     id="rect122"
     style="fill:#0000ff;fill-opacity:1;stroke:#000000;stroke-width:2.0553019;stroke-opacity:1" />
  <rect
     style="fill:#0000ff;fill-opacity:1;stroke:#000000;stroke-width:2.0553019;stroke-opacity:1"
     id="rect124"
     width="24.193468"
     height="24.193468"
     x="790.15472"
     y="667.58771" />
  <rect
     y="341.97122"
     x="465.87003"
     height="24.193468"
     width="24.193468"
     id="rect126"
     style="fill:#0000ff;fill-opacity:1;stroke:#000000;stroke-width:2.0553019;stroke-opacity:1" />
  <rect
     style="fill:#0000ff;fill-opacity:1;stroke:#000000;stroke-width:2.0553019;stroke-opacity:1"
     id="rect128"
     width="24.193468"
     height="24.193468"
     x="343.95648"
     y="2130.4849" />
  <rect
     y="2059.7"
     x="419.00653"
     height="24.193468"
     width="24.193468"
     id="rect130"
     style="fill:#0000ff;fill-opacity:1;stroke:#000000;stroke-width:2.0553019;stroke-opacity:1" />
  <rect
     style="fill:#0000ff;fill-opacity:1;stroke:#000000;stroke-width:2.0553019;stroke-opacity:1"
     id="rect132"
     width="24.193468"
     height="24.193468"
     x="525.09998"
     y="1121.0065" />
  <rect
     y="938.55542"
     x="864.67651"
     height="24.193468"
     width="24.193468"
     id="rect134"
     style="fill:#0000ff;fill-opacity:1;stroke:#000000;stroke-width:2.0553019;stroke-opacity:1" />
  <rect
     style="fill:#0000ff;fill-opacity:1;stroke:#000000;stroke-width:2.0553019;stroke-opacity:1"
     id="rect136"
     width="24.193468"
     height="24.193468"
     x="354.54297"
     y="1501.3175" />
  <rect
     style="fill:#0000ff;fill-opacity:1;stroke:#000000;stroke-width:2.0553019;stroke-opacity:1"
     id="rect138"
     width="24.193468"
     height="24.193468"
     x="96.199997"
     y="2005.4065" />
  <rect
     style="fill:#0000ff;fill-opacity:1;stroke:#000000;stroke-width:2.0553019;stroke-opacity:1"
     id="rect140"
     width="24.193468"
     height="24.193468"
     x="927.50653"
     y="354.50653" />
  <rect
     y="1319.7052"
     x="371.13205"
     height="24.193468"
     width="24.193468"
     id="rect142"
     style="fill:#0000ff;fill-opacity:1;stroke:#000000;stroke-width:2.0553019;stroke-opacity:1" />
  <path
     sodipodi:type="star"
     style="fill:#ffff00;fill-opacity:1;stroke:#0000ff;stroke-width:3.75106454;stroke-opacity:1"
     id="path144"
     sodipodi:sides="3"
     sodipodi:cx="976.78374"
     sodipodi:cy="623.86127"
     sodipodi:r1="26.077459"
     sodipodi:r2="13.03873"
     sodipodi:arg1="0.52359878"
     sodipodi:arg2="1.5707963"
     inkscape:flatsided="true"
     inkscape:rounded="0"
     inkscape:randomized="0"
     d="m 999.36749,636.9 -45.16748,0 22.58374,-39.11619 z"
     inkscape:transform-center-y="-6.5194048"
     inkscape:transform-center-x="-2.7497691e-06" />
  <path
     inkscape:transform-center-x="-2.7497691e-06"
     inkscape:transform-center-y="-6.5194048"
     d="m 742.76642,950.94577 -45.16748,0 22.58374,-39.11619 z"
     inkscape:randomized="0"
     inkscape:rounded="0"
     inkscape:flatsided="true"
     sodipodi:arg2="1.5707963"
     sodipodi:arg1="0.52359878"
     sodipodi:r2="13.03873"
     sodipodi:r1="26.077459"
     sodipodi:cy="937.90704"
     sodipodi:cx="720.18265"
     sodipodi:sides="3"
     id="path146"
     style="fill:#ffff00;fill-opacity:1;stroke:#0000ff;stroke-width:3.75106454;stroke-opacity:1"
     sodipodi:type="star" />
  <path
     sodipodi:type="star"
     style="fill:#ffff00;fill-opacity:1;stroke:#0000ff;stroke-width:3.75106454;stroke-opacity:1"
     id="path148"
     sodipodi:sides="3"
     sodipodi:cx="489.78739"
     sodipodi:cy="1141.667"
     sodipodi:r1="26.077459"
     sodipodi:r2="13.03873"
     sodipodi:arg1="0.52359878"
     sodipodi:arg2="1.5707963"
     inkscape:flatsided="true"
     inkscape:rounded="0"
     inkscape:randomized="0"
     d="m 512.37113,1154.7057 -45.16749,0 22.58374,-39.1162 z"
     inkscape:transform-center-y="-6.5194048"
     inkscape:transform-center-x="-2.7497691e-06" />
  <path
     inkscape:transform-center-x="-2.7497691e-06"
     inkscape:transform-center-y="-6.5194048"
     d="m 479,1530.1 -45.16748,0 22.58374,-39.1162 z"
     inkscape:randomized="0"
     inkscape:rounded="0"
     inkscape:flatsided="true"
     sodipodi:arg2="1.5707963"
     sodipodi:arg1="0.52359878"
     sodipodi:r2="13.03873"
     sodipodi:r1="26.077459"
     sodipodi:cy="1517.0613"
     sodipodi:cx="456.41626"
     sodipodi:sides="3"
     id="path150"
     style="fill:#ffff00;fill-opacity:1;stroke:#0000ff;stroke-width:3.75106454;stroke-opacity:1"
     sodipodi:type="star" />
  <path
     sodipodi:type="star"
     style="fill:#ffff00;fill-opacity:1;stroke:#0000ff;stroke-width:3.75106454;stroke-opacity:1"
     id="path152"
     sodipodi:sides="3"
     sodipodi:cx="336.21626"
     sodipodi:cy="1590.9613"
     sodipodi:r1="26.077459"
     sodipodi:r2="13.03873"
     sodipodi:arg1="0.52359878"
     sodipodi:arg2="1.5707963"
     inkscape:flatsided="true"
     inkscape:rounded="0"
     inkscape:randomized="0"
     d="m 358.79999,1604 -45.16748,0 22.58374,-39.1162 z"
     inkscape:transform-center-y="-6.5194048"
     inkscape:transform-center-x="-2.7497691e-06" />
  <path
     inkscape:transform-center-x="-2.7497691e-06"
     inkscape:transform-center-y="-6.5194048"
     d="m 353.5,1744.8001 -45.16748,0 22.58374,-39.1162 z"
     inkscape:randomized="0"
     inkscape:rounded="0"
     inkscape:flatsided="true"
     sodipodi:arg2="1.5707963"
     sodipodi:arg1="0.52359878"
     sodipodi:r2="13.03873"
     sodipodi:r1="26.077459"
     sodipodi:cy="1731.7613"
     sodipodi:cx="330.91626"
     sodipodi:sides="3"
     id="path154"
     style="fill:#ffff00;fill-opacity:1;stroke:#0000ff;stroke-width:3.75106454;stroke-opacity:1"
     sodipodi:type="star" />
  <path
     sodipodi:type="star"
     style="fill:#ffff00;fill-opacity:1;stroke:#0000ff;stroke-width:3.75106454;stroke-opacity:1"
     id="path156"
     sodipodi:sides="3"
     sodipodi:cx="425.61626"
     sodipodi:cy="1664.2613"
     sodipodi:r1="26.077459"
     sodipodi:r2="13.03873"
     sodipodi:arg1="0.52359878"
     sodipodi:arg2="1.5707963"
     inkscape:flatsided="true"
     inkscape:rounded="0"
     inkscape:randomized="0"
     d="m 448.20001,1677.3001 -45.16748,0 22.58374,-39.1162 z"
     inkscape:transform-center-y="-6.5194048"
     inkscape:transform-center-x="-2.7497691e-06" />
  <path
     inkscape:transform-center-x="-2.7497691e-06"
     inkscape:transform-center-y="-6.5194048"
     d="m 531.4,1641.4001 -45.16749,0 22.58374,-39.1162 z"
     inkscape:randomized="0"
     inkscape:rounded="0"
     inkscape:flatsided="true"
     sodipodi:arg2="1.5707963"
     sodipodi:arg1="0.52359878"
     sodipodi:r2="13.03873"
     sodipodi:r1="26.077459"
     sodipodi:cy="1628.3613"
     sodipodi:cx="508.81626"
     sodipodi:sides="3"
     id="path158"
     style="fill:#ffff00;fill-opacity:1;stroke:#0000ff;stroke-width:3.75106454;stroke-opacity:1"
     sodipodi:type="star" />
  <path
     sodipodi:type="star"
     style="fill:#ffff00;fill-opacity:1;stroke:#0000ff;stroke-width:3.75106454;stroke-opacity:1"
     id="path160"
     sodipodi:sides="3"
     sodipodi:cx="196.25318"
     sodipodi:cy="1699.7436"
     sodipodi:r1="26.077459"
     sodipodi:r2="13.03873"
     sodipodi:arg1="0.52359878"
     sodipodi:arg2="1.5707963"
     inkscape:flatsided="true"
     inkscape:rounded="0"
     inkscape:randomized="0"
     d="m 218.83692,1712.7824 -45.16749,0 22.58374,-39.1162 z"
     inkscape:transform-center-y="-6.5194048"
     inkscape:transform-center-x="-2.7497691e-06" />
  <path
     inkscape:transform-center-x="-2.7497691e-06"
     inkscape:transform-center-y="-6.5194048"
     d="m 113.86749,1849.8001 -45.167487,0 22.583742,-39.1162 z"
     inkscape:randomized="0"
     inkscape:rounded="0"
     inkscape:flatsided="true"
     sodipodi:arg2="1.5707963"
     sodipodi:arg1="0.52359878"
     sodipodi:r2="13.03873"
     sodipodi:r1="26.077459"
     sodipodi:cy="1836.7613"
     sodipodi:cx="91.283742"
     sodipodi:sides="3"
     id="path162"
     style="fill:#ffff00;fill-opacity:1;stroke:#0000ff;stroke-width:3.75106454;stroke-opacity:1"
     sodipodi:type="star" />
  <path
     sodipodi:type="star"
     style="fill:#ffff00;fill-opacity:1;stroke:#0000ff;stroke-width:3.75106454;stroke-opacity:1"
     id="path164"
     sodipodi:sides="3"
     sodipodi:cx="93.45904"
     sodipodi:cy="1905.7455"
     sodipodi:r1="26.077459"
     sodipodi:r2="13.03873"
     sodipodi:arg1="0.52359878"
     sodipodi:arg2="1.5707963"
     inkscape:flatsided="true"
     inkscape:rounded="0"
     inkscape:randomized="0"
     d="m 116.04278,1918.7842 -45.167485,0 22.583743,-39.1162 z"
     inkscape:transform-center-y="-6.5194048"
     inkscape:transform-center-x="-2.7497691e-06" />
  <path
     inkscape:transform-center-x="-2.7497691e-06"
     inkscape:transform-center-y="-6.5194048"
     d="m 145.46749,1951.9001 -45.16749,0 22.58374,-39.1162 z"
     inkscape:randomized="0"
     inkscape:rounded="0"
     inkscape:flatsided="true"
     sodipodi:arg2="1.5707963"
     sodipodi:arg1="0.52359878"
     sodipodi:r2="13.03873"
     sodipodi:r1="26.077459"
     sodipodi:cy="1938.8613"
     sodipodi:cx="122.88374"
     sodipodi:sides="3"
     id="path166"
     style="fill:#ffff00;fill-opacity:1;stroke:#0000ff;stroke-width:3.75106454;stroke-opacity:1"
     sodipodi:type="star" />
  <path
     sodipodi:type="star"
     style="fill:#ffff00;fill-opacity:1;stroke:#0000ff;stroke-width:3.75106454;stroke-opacity:1"
     id="path168"
     sodipodi:sides="3"
     sodipodi:cx="157.48374"
     sodipodi:cy="2164.1613"
     sodipodi:r1="26.077459"
     sodipodi:r2="13.03873"
     sodipodi:arg1="0.52359878"
     sodipodi:arg2="1.5707963"
     inkscape:flatsided="true"
     inkscape:rounded="0"
     inkscape:randomized="0"
     d="m 180.06748,2177.2001 -45.16749,0 22.58374,-39.1162 z"
     inkscape:transform-center-y="-6.5194048"
     inkscape:transform-center-x="-2.7497691e-06" />
  <path
     inkscape:transform-center-x="-2.7497691e-06"
     inkscape:transform-center-y="-6.5194048"
     d="m 204.56354,2245.9411 -45.16748,0 22.58374,-39.1162 z"
     inkscape:randomized="0"
     inkscape:rounded="0"
     inkscape:flatsided="true"
     sodipodi:arg2="1.5707963"
     sodipodi:arg1="0.52359878"
     sodipodi:r2="13.03873"
     sodipodi:r1="26.077459"
     sodipodi:cy="2232.9024"
     sodipodi:cx="181.97979"
     sodipodi:sides="3"
     id="path170"
     style="fill:#ffff00;fill-opacity:1;stroke:#0000ff;stroke-width:3.75106454;stroke-opacity:1"
     sodipodi:type="star" />
  <path
     inkscape:transform-center-x="-2.7497691e-06"
     inkscape:transform-center-y="-6.5194048"
     d="m 413.79999,2088.1 -45.16748,0 22.58374,-39.1162 z"
     inkscape:randomized="0"
     inkscape:rounded="0"
     inkscape:flatsided="true"
     sodipodi:arg2="1.5707963"
     sodipodi:arg1="0.52359878"
     sodipodi:r2="13.03873"
     sodipodi:r1="26.077459"
     sodipodi:cy="2075.0613"
     sodipodi:cx="391.21626"
     sodipodi:sides="3"
     id="path172"
     style="fill:#ffff00;fill-opacity:1;stroke:#0000ff;stroke-width:3.75106454;stroke-opacity:1"
     sodipodi:type="star" />
  <path
     sodipodi:type="star"
     style="fill:#ffff00;fill-opacity:1;stroke:#0000ff;stroke-width:3.75106454;stroke-opacity:1"
     id="path174"
     sodipodi:sides="3"
     sodipodi:cx="356.21979"
     sodipodi:cy="1859.6108"
     sodipodi:r1="26.077459"
     sodipodi:r2="13.03873"
     sodipodi:arg1="0.52359878"
     sodipodi:arg2="1.5707963"
     inkscape:flatsided="true"
     inkscape:rounded="0"
     inkscape:randomized="0"
     d="m 378.80353,1872.6496 -45.16748,0 22.58374,-39.1162 z"
     inkscape:transform-center-y="-6.5194048"
     inkscape:transform-center-x="-2.7497691e-06" />
  <path
     sodipodi:type="star"
     style="fill:#ffff00;fill-opacity:1;stroke:#0000ff;stroke-width:3.75106454;stroke-opacity:1"
     id="path176"
     sodipodi:sides="3"
     sodipodi:cx="540.3"
     sodipodi:cy="1663.3775"
     sodipodi:r1="26.077459"
     sodipodi:r2="13.03873"
     sodipodi:arg1="0.52359878"
     sodipodi:arg2="1.5707963"
     inkscape:flatsided="true"
     inkscape:rounded="0"
     inkscape:randomized="0"
     d="m 562.88373,1676.4162 -45.16748,0 22.58374,-39.1162 z"
     inkscape:transform-center-y="-6.5194048"
     inkscape:transform-center-x="-2.7497691e-06" />
  <path
     inkscape:transform-center-x="-2.7497691e-06"
     inkscape:transform-center-y="-6.5194048"
     d="m 535.78375,1689.3162 -45.16748,0 22.58374,-39.1162 z"
     inkscape:randomized="0"
     inkscape:rounded="0"
     inkscape:flatsided="true"
     sodipodi:arg2="1.5707963"
     sodipodi:arg1="0.52359878"
     sodipodi:r2="13.03873"
     sodipodi:r1="26.077459"
     sodipodi:cy="1676.2775"
     sodipodi:cx="513.2"
     sodipodi:sides="3"
     id="path178"
     style="fill:#ffff00;fill-opacity:1;stroke:#0000ff;stroke-width:3.75106454;stroke-opacity:1"
     sodipodi:type="star" />
  <path
     sodipodi:type="star"
     style="fill:#ffff00;fill-opacity:1;stroke:#0000ff;stroke-width:3.75106454;stroke-opacity:1"
     id="path180"
     sodipodi:sides="3"
     sodipodi:cx="507.54001"
     sodipodi:cy="1701.9139"
     sodipodi:r1="26.077459"
     sodipodi:r2="13.03873"
     sodipodi:arg1="0.52359878"
     sodipodi:arg2="1.5707963"
     inkscape:flatsided="true"
     inkscape:rounded="0"
     inkscape:randomized="0"
     d="m 530.12375,1714.9527 -45.16748,0 22.58374,-39.1162 z"
     inkscape:transform-center-y="-6.5194048"
     inkscape:transform-center-x="-2.7497691e-06" />
  <path
     inkscape:transform-center-x="-2.7497691e-06"
     inkscape:transform-center-y="-6.5194048"
     d="m 558.36749,1728.4324 -45.16748,0 22.58374,-39.1162 z"
     inkscape:randomized="0"
     inkscape:rounded="0"
     inkscape:flatsided="true"
     sodipodi:arg2="1.5707963"
     sodipodi:arg1="0.52359878"
     sodipodi:r2="13.03873"
     sodipodi:r1="26.077459"
     sodipodi:cy="1715.3937"
     sodipodi:cx="535.78375"
     sodipodi:sides="3"
     id="path182"
     style="fill:#ffff00;fill-opacity:1;stroke:#0000ff;stroke-width:3.75106454;stroke-opacity:1"
     sodipodi:type="star" />
</svg>
